SplineFontDB: 3.2
FontName: MonplesirPermuted
FullName: Monplesir Permuted
FamilyName: Monplesir
Weight: Regular
Copyright: Copyright (c) Gophmann A.L., 2008. All rights reserved.
Version: 1.337 2022 CTF Edition
ItalicAngle: 0
UnderlinePosition: -100
UnderlineWidth: 50
Ascent: 800
Descent: 200
InvalidEm: 0
sfntRevision: 0x00010000
LayerCount: 2
Layer: 0 1 "Back" 1
Layer: 1 1 "Fore" 0
XUID: [1021 782 -1792549096 16046387]
StyleMap: 0x0040
FSType: 0
OS2Version: 2
OS2_WeightWidthSlopeOnly: 0
OS2_UseTypoMetrics: 0
CreationTime: 1201795220
ModificationTime: 1645847124
PfmFamily: 17
TTFWeight: 400
TTFWidth: 5
LineGap: 30
VLineGap: 0
Panose: 2 0 5 3 0 0 0 2 0 4
OS2TypoAscent: 926
OS2TypoAOffset: 0
OS2TypoDescent: -500
OS2TypoDOffset: 0
OS2TypoLinegap: 30
OS2WinAscent: 1220
OS2WinAOffset: 0
OS2WinDescent: 624
OS2WinDOffset: 0
HheadAscent: 926
HheadAOffset: 0
HheadDescent: -500
HheadDOffset: 0
OS2SubXSize: 700
OS2SubYSize: 650
OS2SubXOff: 0
OS2SubYOff: 140
OS2SupXSize: 700
OS2SupYSize: 650
OS2SupXOff: 0
OS2SupYOff: 477
OS2StrikeYSize: 50
OS2StrikeYPos: 250
OS2CapHeight: 1220
OS2XHeight: 454
OS2Vendor: 'goph'
OS2CodePages: 00000005.00000000
OS2UnicodeRanges: 80000203.10000000.00000000.00000000
MarkAttachClasses: 1
DEI: 91125
TtTable: prep
PUSHW_1
 40
CALL
PUSHW_1
 30
CALL
PUSHW_1
 20
CALL
PUSHW_1
 10
CALL
PUSHW_1
 0
CALL
EndTTInstrs
TtTable: fpgm
PUSHW_1
 0
FDEF
MPPEM
PUSHW_1
 9
LT
IF
PUSHB_2
 1
 1
INSTCTRL
EIF
PUSHW_1
 511
SCANCTRL
PUSHW_1
 68
SCVTCI
PUSHW_2
 9
 3
SDS
SDB
ENDF
PUSHW_1
 1
FDEF
DUP
DUP
RCVT
ROUND[Black]
WCVTP
PUSHB_1
 1
ADD
ENDF
PUSHW_1
 2
FDEF
PUSHW_1
 1
LOOPCALL
POP
ENDF
PUSHW_1
 3
FDEF
DUP
GC[cur]
PUSHB_1
 3
CINDEX
GC[cur]
GT
IF
SWAP
EIF
DUP
ROLL
DUP
ROLL
MD[grid]
ABS
ROLL
DUP
GC[cur]
DUP
ROUND[Grey]
SUB
ABS
PUSHB_1
 4
CINDEX
GC[cur]
DUP
ROUND[Grey]
SUB
ABS
GT
IF
SWAP
NEG
ROLL
EIF
MDAP[rnd]
DUP
PUSHB_1
 0
GTEQ
IF
ROUND[Black]
DUP
PUSHB_1
 0
EQ
IF
POP
PUSHB_1
 64
EIF
ELSE
ROUND[Black]
DUP
PUSHB_1
 0
EQ
IF
POP
PUSHB_1
 64
NEG
EIF
EIF
MSIRP[no-rp0]
ENDF

StartChar: B
Encoding: 66 66 1
Width: 721
Flags: W
LayerCount: 2
Fore
SplineSet
-17 349 m 0,0,1
 -77 349 -77 349 -105 382 c 128,-1,2
 -133 415 -133 415 -133 467 c 0,3,4
 -133 510 -133 510 -114.5 561.5 c 128,-1,5
 -96 613 -96 613 -60.5 665.5 c 128,-1,6
 -25 718 -25 718 27 767.5 c 128,-1,7
 79 817 79 817 145.5 855 c 128,-1,8
 212 893 212 893 293 916 c 128,-1,9
 374 939 374 939 467 939 c 256,10,11
 560 939 560 939 626.5 923.5 c 128,-1,12
 693 908 693 908 735.5 882.5 c 128,-1,13
 778 857 778 857 798 823.5 c 128,-1,14
 818 790 818 790 818 754 c 0,15,16
 818 723 818 723 804 692.5 c 128,-1,17
 790 662 790 662 764 634 c 128,-1,18
 738 606 738 606 700.5 583.5 c 128,-1,19
 663 561 663 561 616 546 c 1,20,21
 678 514 678 514 709 459.5 c 128,-1,22
 740 405 740 405 740 342 c 0,23,24
 740 282 740 282 710.5 220 c 128,-1,25
 681 158 681 158 621 108.5 c 128,-1,26
 561 59 561 59 470 27.5 c 128,-1,27
 379 -4 379 -4 255 -4 c 0,28,29
 226 -4 226 -4 207.5 -3 c 128,-1,30
 189 -2 189 -2 172.5 -1.5 c 128,-1,31
 156 -1 156 -1 138.5 0 c 128,-1,32
 121 1 121 1 95 1 c 0,33,34
 83 1 83 1 66 1 c 128,-1,35
 49 1 49 1 33 0.5 c 128,-1,36
 17 0 17 0 4.5 -0.5 c 128,-1,37
 -8 -1 -8 -1 -11 -1 c 0,38,39
 -17 -1 -17 -1 -17 2 c 128,-1,40
 -17 5 -17 5 -18 8 c 0,41,42
 -18 11 -18 11 -16.5 14.5 c 128,-1,43
 -15 18 -15 18 -10 19 c 0,44,45
 10 19 10 19 23.5 23 c 128,-1,46
 37 27 37 27 47 34.5 c 128,-1,47
 57 42 57 42 64 54 c 128,-1,48
 71 66 71 66 79 83 c 2,49,-1
 351 713 l 2,50,51
 354 719 354 719 354 724 c 0,52,53
 354 736 354 736 338 736 c 0,54,55
 332 736 332 736 328 735 c 0,56,57
 319 735 319 735 319 745 c 0,58,59
 319 753 319 753 327 754 c 0,60,61
 334 756 334 756 354.5 763 c 128,-1,62
 375 770 375 770 395 778 c 256,63,64
 415 786 415 786 438 798 c 128,-1,65
 461 810 461 810 475 821 c 0,66,67
 480 825 480 825 484 825 c 256,68,69
 488 825 488 825 489 822 c 128,-1,70
 490 819 490 819 490 816 c 0,71,72
 490 810 490 810 489 809 c 0,73,74
 479 801 479 801 470 792.5 c 128,-1,75
 461 784 461 784 450 761 c 0,76,77
 445 751 445 751 435.5 732.5 c 128,-1,78
 426 714 426 714 410 681 c 128,-1,79
 394 648 394 648 371 597.5 c 128,-1,80
 348 547 348 547 315.5 472.5 c 128,-1,81
 283 398 283 398 240.5 297 c 128,-1,82
 198 196 198 196 144 63 c 0,83,84
 140 52 140 52 140 42 c 256,85,86
 140 32 140 32 147 26 c 128,-1,87
 154 20 154 20 171 17 c 128,-1,88
 188 14 188 14 216 13.5 c 128,-1,89
 244 13 244 13 286 13 c 0,90,91
 371 13 371 13 440 47.5 c 128,-1,92
 509 82 509 82 557.5 135 c 128,-1,93
 606 188 606 188 632.5 252.5 c 128,-1,94
 659 317 659 317 659 377 c 0,95,96
 659 427 659 427 639.5 468.5 c 128,-1,97
 620 510 620 510 578 536 c 1,98,99
 527 524 527 524 467 524 c 0,100,101
 429 524 429 524 411 531.5 c 128,-1,102
 393 539 393 539 393 549 c 0,103,104
 393 560 393 560 413.5 569 c 128,-1,105
 434 578 434 578 472 578 c 0,106,107
 540 578 540 578 595 556 c 1,108,109
 666 582 666 582 704.5 632.5 c 128,-1,110
 743 683 743 683 743 738 c 0,111,112
 743 773 743 773 726 806 c 128,-1,113
 709 839 709 839 674 865 c 128,-1,114
 639 891 639 891 584.5 906.5 c 128,-1,115
 530 922 530 922 455 922 c 0,116,117
 371 922 371 922 299 898.5 c 128,-1,118
 227 875 227 875 168 836 c 128,-1,119
 109 797 109 797 63.5 747.5 c 128,-1,120
 18 698 18 698 -13 646.5 c 128,-1,121
 -44 595 -44 595 -60 545 c 128,-1,122
 -76 495 -76 495 -76 456 c 0,123,124
 -76 416 -76 416 -58.5 391.5 c 128,-1,125
 -41 367 -41 367 -6 367 c 0,126,127
 31 367 31 367 57.5 378 c 128,-1,128
 84 389 84 389 100.5 405.5 c 128,-1,129
 117 422 117 422 124.5 442 c 128,-1,130
 132 462 132 462 132 481 c 0,131,132
 132 503 132 503 123 518 c 0,133,134
 117 528 117 528 117 537 c 256,135,136
 117 546 117 546 123.5 550.5 c 128,-1,137
 130 555 130 555 138 555 c 0,138,139
 155 555 155 555 163 543 c 128,-1,140
 171 531 171 531 171 512 c 0,141,142
 171 489 171 489 159 461 c 128,-1,143
 147 433 147 433 123.5 408 c 128,-1,144
 100 383 100 383 65 366 c 128,-1,145
 30 349 30 349 -17 349 c 0,0,1
460 565 m 0,146,147
 447 565 447 565 441 561.5 c 128,-1,148
 435 558 435 558 435 553 c 0,149,150
 435 547 435 547 445 541.5 c 128,-1,151
 455 536 455 536 476 536 c 0,152,153
 521 536 521 536 560 545 c 1,154,155
 517 565 517 565 460 565 c 0,146,147
EndSplineSet
EndChar

StartChar: C
Encoding: 67 67 2
Width: 667
Flags: W
LayerCount: 2
Fore
SplineSet
86 739 m 0,0,1
 97 733 97 733 97 719 c 0,2,3
 97 711 97 711 92.5 705.5 c 128,-1,4
 88 700 88 700 77 700 c 0,5,6
 50 700 50 700 33.5 720.5 c 128,-1,7
 17 741 17 741 17 770 c 0,8,9
 17 788 17 788 25 809 c 128,-1,10
 33 830 33 830 50.5 848 c 128,-1,11
 68 866 68 866 95 877.5 c 128,-1,12
 122 889 122 889 161 889 c 0,13,14
 218 889 218 889 268 865.5 c 128,-1,15
 318 842 318 842 365 811 c 1,16,17
 437 862 437 862 512.5 891.5 c 128,-1,18
 588 921 588 921 663 921 c 0,19,20
 717 921 717 921 755 910 c 128,-1,21
 793 899 793 899 817 880.5 c 128,-1,22
 841 862 841 862 852 837 c 128,-1,23
 863 812 863 812 863 784 c 0,24,25
 863 742 863 742 840.5 697 c 128,-1,26
 818 652 818 652 779.5 615.5 c 128,-1,27
 741 579 741 579 690.5 555 c 128,-1,28
 640 531 640 531 583 531 c 0,29,30
 552 531 552 531 530 539 c 128,-1,31
 508 547 508 547 493.5 560.5 c 128,-1,32
 479 574 479 574 472.5 592 c 128,-1,33
 466 610 466 610 466 630 c 0,34,35
 466 671 466 671 491 710 c 1,36,37
 462 725 462 725 434 744 c 128,-1,38
 406 763 406 763 377 783 c 1,39,40
 314 729 314 729 260 659 c 128,-1,41
 206 589 206 589 167 512.5 c 128,-1,42
 128 436 128 436 106 358.5 c 128,-1,43
 84 281 84 281 84 213 c 0,44,45
 84 163 84 163 97 120.5 c 128,-1,46
 110 78 110 78 138 46.5 c 128,-1,47
 166 15 166 15 210 -2.5 c 128,-1,48
 254 -20 254 -20 316 -20 c 0,49,50
 365 -20 365 -20 411.5 -5 c 128,-1,51
 458 10 458 10 494.5 36 c 128,-1,52
 531 62 531 62 553.5 97 c 128,-1,53
 576 132 576 132 576 171 c 0,54,55
 576 209 576 209 590 225.5 c 128,-1,56
 604 242 604 242 619 242 c 0,57,58
 637 242 637 242 645.5 231 c 128,-1,59
 654 220 654 220 654 203 c 0,60,61
 654 173 654 173 629 130 c 128,-1,62
 604 87 604 87 555.5 47 c 128,-1,63
 507 7 507 7 434 -21.5 c 128,-1,64
 361 -50 361 -50 265 -50 c 0,65,66
 188 -50 188 -50 134.5 -32 c 128,-1,67
 81 -14 81 -14 46.5 17.5 c 128,-1,68
 12 49 12 49 -3.5 92.5 c 128,-1,69
 -19 136 -19 136 -19 187 c 0,70,71
 -19 260 -19 260 10 343.5 c 128,-1,72
 39 427 39 427 89 509.5 c 128,-1,73
 139 592 139 592 206.5 668 c 128,-1,74
 274 744 274 744 351 801 c 1,75,76
 306 830 306 830 262.5 851 c 128,-1,77
 219 872 219 872 176 872 c 0,78,79
 143 872 143 872 119 865 c 128,-1,80
 95 858 95 858 79.5 846.5 c 128,-1,81
 64 835 64 835 56 820.5 c 128,-1,82
 48 806 48 806 48 792 c 0,83,84
 48 776 48 776 57.5 761.5 c 128,-1,85
 67 747 67 747 86 739 c 0,0,1
500 722 m 1,86,87
 520 748 520 748 551 765 c 128,-1,88
 582 782 582 782 622 782 c 0,89,90
 655 782 655 782 672 767.5 c 128,-1,91
 689 753 689 753 689 735 c 0,92,93
 689 714 689 714 666.5 695.5 c 128,-1,94
 644 677 644 677 599 677 c 0,95,96
 576 677 576 677 554 683.5 c 128,-1,97
 532 690 532 690 509 701 c 1,98,99
 494 674 494 674 494 643 c 0,100,101
 494 606 494 606 518.5 577.5 c 128,-1,102
 543 549 543 549 597 549 c 0,103,104
 638 549 638 549 673.5 570 c 128,-1,105
 709 591 709 591 735.5 623.5 c 128,-1,106
 762 656 762 656 777 695.5 c 128,-1,107
 792 735 792 735 792 773 c 0,108,109
 792 799 792 799 784 822 c 128,-1,110
 776 845 776 845 759.5 862.5 c 128,-1,111
 743 880 743 880 716 890 c 128,-1,112
 689 900 689 900 652 900 c 0,113,114
 583 900 583 900 517 871 c 128,-1,115
 451 842 451 842 390 793 c 1,116,117
 419 773 419 773 446 754.5 c 128,-1,118
 473 736 473 736 500 722 c 1,86,87
591 696 m 0,119,120
 620 696 620 696 633.5 706.5 c 128,-1,121
 647 717 647 717 647 729 c 256,122,123
 647 741 647 741 636 750.5 c 128,-1,124
 625 760 625 760 606 760 c 0,125,126
 577 760 577 760 554 747 c 128,-1,127
 531 734 531 734 517 714 c 1,128,129
 535 706 535 706 553.5 701 c 128,-1,130
 572 696 572 696 591 696 c 0,119,120
EndSplineSet
EndChar

StartChar: D
Encoding: 68 68 3
Width: 779
Flags: W
LayerCount: 2
Fore
SplineSet
377 713 m 0,0,1
 380 719 380 719 380 724 c 0,2,3
 380 736 380 736 364 736 c 0,4,5
 358 736 358 736 354 735 c 0,6,7
 345 735 345 735 345 745 c 0,8,9
 345 753 345 753 353 754 c 0,10,11
 360 756 360 756 380.5 763 c 128,-1,12
 401 770 401 770 421 778 c 256,13,14
 441 786 441 786 464 798 c 128,-1,15
 487 810 487 810 501 821 c 0,16,17
 506 825 506 825 510 825 c 256,18,19
 514 825 514 825 515 822 c 128,-1,20
 516 819 516 819 516 816 c 0,21,22
 516 810 516 810 515 809 c 0,23,24
 505 801 505 801 496 792.5 c 128,-1,25
 487 784 487 784 476 761 c 0,26,27
 471 751 471 751 461.5 732.5 c 128,-1,28
 452 714 452 714 436 681 c 128,-1,29
 420 648 420 648 397 597.5 c 128,-1,30
 374 547 374 547 341.5 472.5 c 128,-1,31
 309 398 309 398 266.5 297 c 128,-1,32
 224 196 224 196 170 63 c 0,33,34
 165 45 165 45 165 37 c 0,35,36
 165 20 165 20 186.5 17.5 c 128,-1,37
 208 15 208 15 266 15 c 0,38,39
 343 15 343 15 412 39.5 c 128,-1,40
 481 64 481 64 539.5 106 c 128,-1,41
 598 148 598 148 645 204 c 128,-1,42
 692 260 692 260 724.5 323 c 128,-1,43
 757 386 757 386 774.5 452.5 c 128,-1,44
 792 519 792 519 792 582 c 256,45,46
 792 645 792 645 773 701.5 c 128,-1,47
 754 758 754 758 714 800.5 c 128,-1,48
 674 843 674 843 611 868 c 128,-1,49
 548 893 548 893 461 893 c 0,50,51
 377 893 377 893 305 869.5 c 128,-1,52
 233 846 233 846 174 807 c 128,-1,53
 115 768 115 768 69.5 718.5 c 128,-1,54
 24 669 24 669 -7 617.5 c 128,-1,55
 -38 566 -38 566 -54 516 c 128,-1,56
 -70 466 -70 466 -70 427 c 0,57,58
 -70 387 -70 387 -52.5 362.5 c 128,-1,59
 -35 338 -35 338 0 338 c 0,60,61
 37 338 37 338 63.5 349 c 128,-1,62
 90 360 90 360 106.5 376.5 c 128,-1,63
 123 393 123 393 130.5 413 c 128,-1,64
 138 433 138 433 138 452 c 0,65,66
 138 474 138 474 129 489 c 0,67,68
 123 499 123 499 123 508 c 256,69,70
 123 517 123 517 129.5 521.5 c 128,-1,71
 136 526 136 526 144 526 c 0,72,73
 161 526 161 526 169 514 c 128,-1,74
 177 502 177 502 177 483 c 0,75,76
 177 460 177 460 165 432 c 128,-1,77
 153 404 153 404 129.5 379 c 128,-1,78
 106 354 106 354 71 337 c 128,-1,79
 36 320 36 320 -11 320 c 0,80,81
 -71 320 -71 320 -99 353 c 128,-1,82
 -127 386 -127 386 -127 438 c 0,83,84
 -127 481 -127 481 -108.5 532.5 c 128,-1,85
 -90 584 -90 584 -54.5 636.5 c 128,-1,86
 -19 689 -19 689 33 738.5 c 128,-1,87
 85 788 85 788 151.5 826 c 128,-1,88
 218 864 218 864 299 887 c 128,-1,89
 380 910 380 910 473 910 c 0,90,91
 579 910 579 910 656 882 c 128,-1,92
 733 854 733 854 783.5 806.5 c 128,-1,93
 834 759 834 759 858 696 c 128,-1,94
 882 633 882 633 882 563 c 0,95,96
 882 499 882 499 862.5 432 c 128,-1,97
 843 365 843 365 805 302.5 c 128,-1,98
 767 240 767 240 712 184.5 c 128,-1,99
 657 129 657 129 586 88 c 128,-1,100
 515 47 515 47 428.5 23 c 128,-1,101
 342 -1 342 -1 242 -1 c 0,102,103
 233 -1 233 -1 218.5 -0.5 c 128,-1,104
 204 0 204 0 186.5 0 c 128,-1,105
 169 0 169 0 151.5 0.5 c 128,-1,106
 134 1 134 1 121 1 c 0,107,108
 109 1 109 1 92 1 c 128,-1,109
 75 1 75 1 59 0.5 c 128,-1,110
 43 0 43 0 30.5 -0.5 c 128,-1,111
 18 -1 18 -1 15 -1 c 0,112,113
 9 -1 9 -1 9 2 c 128,-1,114
 9 5 9 5 8 8 c 0,115,116
 8 11 8 11 9.5 14.5 c 128,-1,117
 11 18 11 18 16 19 c 0,118,119
 36 19 36 19 49.5 23 c 128,-1,120
 63 27 63 27 72.5 34.5 c 128,-1,121
 82 42 82 42 89.5 54 c 128,-1,122
 97 66 97 66 105 83 c 0,123,124
 109 92 109 92 123.5 125 c 128,-1,125
 138 158 138 158 159.5 208 c 128,-1,126
 181 258 181 258 207.5 320 c 128,-1,127
 234 382 234 382 263 449.5 c 128,-1,128
 292 517 292 517 321 584.5 c 128,-1,129
 350 652 350 652 377 713 c 0,0,1
EndSplineSet
EndChar

StartChar: E
Encoding: 69 69 4
Width: 732
Flags: W
LayerCount: 2
Fore
SplineSet
610 724 m 0,0,1
 610 708 610 708 613 692 c 128,-1,2
 616 676 616 676 623 663 c 128,-1,3
 630 650 630 650 641.5 642 c 128,-1,4
 653 634 653 634 671 634 c 0,5,6
 693 634 693 634 713 645.5 c 128,-1,7
 733 657 733 657 748 676 c 128,-1,8
 763 695 763 695 771.5 719 c 128,-1,9
 780 743 780 743 780 768 c 0,10,11
 780 791 780 791 771.5 813 c 128,-1,12
 763 835 763 835 744 852 c 128,-1,13
 725 869 725 869 694.5 879.5 c 128,-1,14
 664 890 664 890 621 890 c 0,15,16
 554 890 554 890 501 869.5 c 128,-1,17
 448 849 448 849 411 817 c 128,-1,18
 374 785 374 785 354 746 c 128,-1,19
 334 707 334 707 334 669 c 0,20,21
 334 637 334 637 348.5 609.5 c 128,-1,22
 363 582 363 582 393 563 c 1,23,24
 465 586 465 586 542 586 c 0,25,26
 585 586 585 586 605.5 576.5 c 128,-1,27
 626 567 626 567 626 555 c 0,28,29
 626 541 626 541 597.5 527.5 c 128,-1,30
 569 514 569 514 512 514 c 0,31,32
 435 514 435 514 381 534 c 1,33,34
 323 506 323 506 275.5 462 c 128,-1,35
 228 418 228 418 193.5 367 c 128,-1,36
 159 316 159 316 140 262 c 128,-1,37
 121 208 121 208 121 159 c 0,38,39
 121 101 121 101 149.5 57 c 128,-1,40
 178 13 178 13 244 -4 c 1,41,42
 255 49 255 49 267.5 102 c 128,-1,43
 280 155 280 155 298.5 204 c 128,-1,44
 317 253 317 253 343 295.5 c 128,-1,45
 369 338 369 338 405 369 c 128,-1,46
 441 400 441 400 489.5 418 c 128,-1,47
 538 436 538 436 603 436 c 0,48,49
 682 436 682 436 718 402.5 c 128,-1,50
 754 369 754 369 754 319 c 0,51,52
 754 267 754 267 719.5 205.5 c 128,-1,53
 685 144 685 144 624.5 91 c 128,-1,54
 564 38 564 38 481 2.5 c 128,-1,55
 398 -33 398 -33 301 -33 c 2,56,-1
 299 -33 l 1,57,58
 283 -101 283 -101 263.5 -164 c 128,-1,59
 244 -227 244 -227 214.5 -275.5 c 128,-1,60
 185 -324 185 -324 142.5 -353 c 128,-1,61
 100 -382 100 -382 37 -382 c 0,62,63
 8 -382 8 -382 -18 -372.5 c 128,-1,64
 -44 -363 -44 -363 -63.5 -345 c 128,-1,65
 -83 -327 -83 -327 -94.5 -301 c 128,-1,66
 -106 -275 -106 -275 -106 -243 c 0,67,68
 -106 -208 -106 -208 -94 -183 c 128,-1,69
 -82 -158 -82 -158 -64 -158 c 0,70,71
 -47 -158 -47 -158 -40 -168 c 128,-1,72
 -33 -178 -33 -178 -33 -186 c 0,73,74
 -33 -191 -33 -191 -36.5 -201.5 c 128,-1,75
 -40 -212 -40 -212 -44 -226 c 128,-1,76
 -48 -240 -48 -240 -51.5 -257 c 128,-1,77
 -55 -274 -55 -274 -55 -290 c 0,78,79
 -55 -308 -55 -308 -47.5 -322 c 128,-1,80
 -40 -336 -40 -336 -27.5 -345.5 c 128,-1,81
 -15 -355 -15 -355 1 -360 c 128,-1,82
 17 -365 17 -365 35 -365 c 0,83,84
 86 -365 86 -365 119 -337.5 c 128,-1,85
 152 -310 152 -310 174.5 -263.5 c 128,-1,86
 197 -217 197 -217 211 -156 c 128,-1,87
 225 -95 225 -95 239 -29 c 1,88,89
 183 -23 183 -23 143.5 -6.5 c 128,-1,90
 104 10 104 10 78.5 34.5 c 128,-1,91
 53 59 53 59 41 90 c 128,-1,92
 29 121 29 121 29 156 c 0,93,94
 29 208 29 208 53 264.5 c 128,-1,95
 77 321 77 321 119.5 374.5 c 128,-1,96
 162 428 162 428 221 473 c 128,-1,97
 280 518 280 518 350 547 c 1,98,99
 308 569 308 569 287.5 602 c 128,-1,100
 267 635 267 635 267 673 c 0,101,102
 267 714 267 714 291 756 c 128,-1,103
 315 798 315 798 361.5 831.5 c 128,-1,104
 408 865 408 865 476 886.5 c 128,-1,105
 544 908 544 908 632 908 c 0,106,107
 686 908 686 908 725.5 896 c 128,-1,108
 765 884 765 884 790 864.5 c 128,-1,109
 815 845 815 845 827 820 c 128,-1,110
 839 795 839 795 839 769 c 0,111,112
 839 742 839 742 826.5 715.5 c 128,-1,113
 814 689 814 689 791 668 c 128,-1,114
 768 647 768 647 735 634 c 128,-1,115
 702 621 702 621 660 621 c 0,116,117
 635 621 635 621 616.5 629 c 128,-1,118
 598 637 598 637 586 650 c 128,-1,119
 574 663 574 663 568.5 678 c 128,-1,120
 563 693 563 693 563 707 c 0,121,122
 563 724 563 724 570.5 735 c 128,-1,123
 578 746 578 746 593 746 c 0,124,125
 597 746 597 746 601 743 c 0,126,127
 604 741 604 741 607 736.5 c 128,-1,128
 610 732 610 732 610 724 c 0,0,1
318 -13 m 2,129,130
 366 -13 366 -13 412.5 4 c 128,-1,131
 459 21 459 21 500.5 49 c 128,-1,132
 542 77 542 77 577 113 c 128,-1,133
 612 149 612 149 637.5 187.5 c 128,-1,134
 663 226 663 226 677 264 c 128,-1,135
 691 302 691 302 691 334 c 0,136,137
 691 373 691 373 668 397.5 c 128,-1,138
 645 422 645 422 591 422 c 0,139,140
 517 422 517 422 469 383.5 c 128,-1,141
 421 345 421 345 390.5 283.5 c 128,-1,142
 360 222 360 222 340.5 144 c 128,-1,143
 321 66 321 66 304 -13 c 1,144,-1
 318 -13 l 2,129,130
527 531 m 0,145,146
 550 531 550 531 566 539.5 c 128,-1,147
 582 548 582 548 582 557 c 0,148,149
 582 563 582 563 572 567.5 c 128,-1,150
 562 572 562 572 539 572 c 0,151,152
 507 572 507 572 477.5 566.5 c 128,-1,153
 448 561 448 561 419 550 c 1,154,155
 463 531 463 531 527 531 c 0,145,146
EndSplineSet
EndChar

StartChar: F
Encoding: 70 70 5
Width: 850
Flags: W
LayerCount: 2
Fore
SplineSet
323 893 m 0,0,1
 269 893 269 893 226.5 875 c 128,-1,2
 184 857 184 857 155 829.5 c 128,-1,3
 126 802 126 802 111 769 c 128,-1,4
 96 736 96 736 96 707 c 0,5,6
 96 675 96 675 115 652.5 c 128,-1,7
 134 630 134 630 175 630 c 0,8,9
 203 630 203 630 228.5 647.5 c 128,-1,10
 254 665 254 665 262 692 c 0,11,12
 266 706 266 706 272.5 711.5 c 128,-1,13
 279 717 279 717 287 717 c 256,14,15
 295 717 295 717 301.5 711 c 128,-1,16
 308 705 308 705 308 695 c 0,17,18
 308 678 308 678 296 663 c 128,-1,19
 284 648 284 648 264.5 637.5 c 128,-1,20
 245 627 245 627 220 621 c 128,-1,21
 195 615 195 615 170 615 c 0,22,23
 96 615 96 615 60.5 644 c 128,-1,24
 25 673 25 673 25 715 c 0,25,26
 25 747 25 747 46 782 c 128,-1,27
 67 817 67 817 108.5 845.5 c 128,-1,28
 150 874 150 874 210.5 892.5 c 128,-1,29
 271 911 271 911 351 911 c 0,30,31
 413 911 413 911 472.5 897.5 c 128,-1,32
 532 884 532 884 588 864.5 c 128,-1,33
 644 845 644 845 696 823 c 128,-1,34
 748 801 748 801 795 783 c 1,35,36
 846 829 846 829 902.5 856 c 128,-1,37
 959 883 959 883 1026 883 c 0,38,39
 1068 883 1068 883 1086.5 869.5 c 128,-1,40
 1105 856 1105 856 1105 836 c 0,41,42
 1105 819 1105 819 1092.5 801 c 128,-1,43
 1080 783 1080 783 1057 768 c 128,-1,44
 1034 753 1034 753 1000.5 743.5 c 128,-1,45
 967 734 967 734 925 734 c 0,46,47
 898 734 898 734 869.5 739.5 c 128,-1,48
 841 745 841 745 811 756 c 1,49,50
 765 699 765 699 724.5 623 c 128,-1,51
 684 547 684 547 642 462 c 1,52,53
 675 460 675 460 706 456.5 c 128,-1,54
 737 453 737 453 768 449 c 1,55,56
 801 472 801 472 836 484 c 128,-1,57
 871 496 871 496 900 496 c 0,58,59
 926 496 926 496 943 485.5 c 128,-1,60
 960 475 960 475 960 455 c 0,61,62
 960 441 960 441 943 429.5 c 128,-1,63
 926 418 926 418 896 418 c 0,64,65
 867 418 867 418 835 420 c 128,-1,66
 803 422 803 422 769 424 c 1,67,68
 750 404 750 404 738.5 374 c 128,-1,69
 727 344 727 344 727 303 c 0,70,71
 727 290 727 290 728.5 280.5 c 128,-1,72
 730 271 730 271 730 260 c 0,73,74
 730 245 730 245 720.5 237.5 c 128,-1,75
 711 230 711 230 699 230 c 256,76,77
 687 230 687 230 676.5 238 c 128,-1,78
 666 246 666 246 666 263 c 0,79,80
 666 316 666 316 686.5 357 c 128,-1,81
 707 398 707 398 739 427 c 1,82,83
 712 429 712 429 684.5 430.5 c 128,-1,84
 657 432 657 432 628 434 c 1,85,86
 583 347 583 347 530 262 c 128,-1,87
 477 177 477 177 408 110 c 128,-1,88
 339 43 339 43 249.5 2 c 128,-1,89
 160 -39 160 -39 42 -39 c 0,90,91
 -8 -39 -8 -39 -42 -29.5 c 128,-1,92
 -76 -20 -76 -20 -97.5 -5 c 128,-1,93
 -119 10 -119 10 -128.5 29 c 128,-1,94
 -138 48 -138 48 -138 67 c 0,95,96
 -138 96 -138 96 -118.5 118 c 128,-1,97
 -99 140 -99 140 -69 140 c 0,98,99
 -45 140 -45 140 -35.5 131 c 128,-1,100
 -26 122 -26 122 -26 111 c 256,101,102
 -26 100 -26 100 -33 90.5 c 128,-1,103
 -40 81 -40 81 -49 81 c 0,104,105
 -56 81 -56 81 -59.5 83 c 128,-1,106
 -63 85 -63 85 -74 85 c 0,107,108
 -107 85 -107 85 -107 60 c 0,109,110
 -107 49 -107 49 -97.5 35.5 c 128,-1,111
 -88 22 -88 22 -68.5 10.5 c 128,-1,112
 -49 -1 -49 -1 -18.5 -9 c 128,-1,113
 12 -17 12 -17 54 -17 c 0,114,115
 135 -17 135 -17 202 22 c 128,-1,116
 269 61 269 61 327.5 124.5 c 128,-1,117
 386 188 386 188 438.5 269 c 128,-1,118
 491 350 491 350 542 434 c 1,119,120
 464 432 464 432 385.5 416.5 c 128,-1,121
 307 401 307 401 231 361 c 0,122,123
 230 360 230 360 228 359 c 256,124,125
 226 358 226 358 220 358 c 0,126,127
 215 358 215 358 213 360 c 2,128,-1
 211 362 l 2,129,130
 209 364 209 364 209 366 c 0,131,132
 209 369 209 369 218 374 c 0,133,134
 314 425 314 425 398.5 443.5 c 128,-1,135
 483 462 483 462 559 464 c 1,136,137
 611 549 611 549 664.5 628.5 c 128,-1,138
 718 708 718 708 778 768 c 1,139,140
 732 785 732 785 681 807 c 128,-1,141
 630 829 630 829 573.5 848 c 128,-1,142
 517 867 517 867 454.5 880 c 128,-1,143
 392 893 392 893 323 893 c 0,0,1
933 751 m 0,144,145
 957 751 957 751 978.5 760 c 128,-1,146
 1000 769 1000 769 1016 782 c 128,-1,147
 1032 795 1032 795 1041 810 c 128,-1,148
 1050 825 1050 825 1050 838 c 256,149,150
 1050 851 1050 851 1040 859 c 128,-1,151
 1030 867 1030 867 1008 867 c 0,152,153
 952 867 952 867 907.5 842 c 128,-1,154
 863 817 863 817 825 773 c 1,155,156
 854 763 854 763 881 757 c 128,-1,157
 908 751 908 751 933 751 c 0,144,145
902 440 m 0,158,159
 912 440 912 440 917.5 443.5 c 128,-1,160
 923 447 923 447 923 452 c 0,161,162
 923 464 923 464 911 470.5 c 128,-1,163
 899 477 899 477 880 477 c 0,164,165
 860 477 860 477 837.5 470 c 128,-1,166
 815 463 815 463 793 447 c 1,167,168
 822 444 822 444 849 442 c 128,-1,169
 876 440 876 440 902 440 c 0,158,159
EndSplineSet
EndChar

StartChar: G
Encoding: 71 71 6
Width: 675
Flags: W
LayerCount: 2
Fore
SplineSet
1095 679 m 0,0,1
 1095 644 1095 644 1084 613 c 128,-1,2
 1073 582 1073 582 1053 558.5 c 128,-1,3
 1033 535 1033 535 1005 521 c 128,-1,4
 977 507 977 507 942 507 c 0,5,6
 917 507 917 507 898.5 515 c 128,-1,7
 880 523 880 523 868 536 c 128,-1,8
 856 549 856 549 850.5 564 c 128,-1,9
 845 579 845 579 845 593 c 0,10,11
 845 610 845 610 852.5 621 c 128,-1,12
 860 632 860 632 875 632 c 0,13,14
 879 632 879 632 883 629 c 0,15,16
 886 627 886 627 889 622.5 c 128,-1,17
 892 618 892 618 892 610 c 0,18,19
 892 594 892 594 895 578 c 128,-1,20
 898 562 898 562 905 549 c 128,-1,21
 912 536 912 536 923.5 528 c 128,-1,22
 935 520 935 520 953 520 c 256,23,24
 971 520 971 520 986.5 532 c 128,-1,25
 1002 544 1002 544 1014 564 c 128,-1,26
 1026 584 1026 584 1033 611.5 c 128,-1,27
 1040 639 1040 639 1040 669 c 0,28,29
 1040 736 1040 736 1013.5 785 c 128,-1,30
 987 834 987 834 941 865.5 c 128,-1,31
 895 897 895 897 834.5 912 c 128,-1,32
 774 927 774 927 706 927 c 0,33,34
 569 927 569 927 467 886 c 128,-1,35
 365 845 365 845 297.5 782.5 c 128,-1,36
 230 720 230 720 196.5 646.5 c 128,-1,37
 163 573 163 573 163 507 c 0,38,39
 163 471 163 471 173 439.5 c 128,-1,40
 183 408 183 408 203.5 384.5 c 128,-1,41
 224 361 224 361 254 348 c 128,-1,42
 284 335 284 335 324 335 c 0,43,44
 401 335 401 335 473.5 361.5 c 128,-1,45
 546 388 546 388 629 453 c 0,46,47
 663 479 663 479 689.5 516 c 128,-1,48
 716 553 716 553 747 595 c 0,49,50
 762 616 762 616 772.5 633.5 c 128,-1,51
 783 651 783 651 790 664 c 0,52,53
 798 679 798 679 802 692 c 0,54,55
 804 697 804 697 809 697 c 256,56,57
 814 697 814 697 817 692 c 128,-1,58
 820 687 820 687 820 680 c 0,59,60
 816 674 816 674 809 660 c 128,-1,61
 802 646 802 646 794.5 630.5 c 128,-1,62
 787 615 787 615 780 600.5 c 128,-1,63
 773 586 773 586 770 579 c 0,64,65
 740 505 740 505 717 445.5 c 128,-1,66
 694 386 694 386 674 336 c 128,-1,67
 654 286 654 286 636 241 c 128,-1,68
 618 196 618 196 598 150 c 0,69,70
 558 58 558 58 505.5 -7 c 128,-1,71
 453 -72 453 -72 394 -113.5 c 128,-1,72
 335 -155 335 -155 274 -174.5 c 128,-1,73
 213 -194 213 -194 157 -194 c 256,74,75
 101 -194 101 -194 58 -178 c 128,-1,76
 15 -162 15 -162 -13.5 -135.5 c 128,-1,77
 -42 -109 -42 -109 -56.5 -74.5 c 128,-1,78
 -71 -40 -71 -40 -71 -3 c 0,79,80
 -71 37 -71 37 -53.5 75.5 c 128,-1,81
 -36 114 -36 114 -1 145 c 128,-1,82
 34 176 34 176 88 195 c 128,-1,83
 142 214 142 214 214 214 c 0,84,85
 252 214 252 214 279.5 205.5 c 128,-1,86
 307 197 307 197 325 182.5 c 128,-1,87
 343 168 343 168 351.5 149.5 c 128,-1,88
 360 131 360 131 360 112 c 0,89,90
 360 90 360 90 349.5 68 c 128,-1,91
 339 46 339 46 319 29 c 128,-1,92
 299 12 299 12 270.5 1 c 128,-1,93
 242 -10 242 -10 205 -10 c 0,94,95
 190 -10 190 -10 180.5 -0.5 c 128,-1,96
 171 9 171 9 171 20 c 0,97,98
 171 28 171 28 177.5 34 c 128,-1,99
 184 40 184 40 199 40 c 0,100,101
 208 40 208 40 217 38.5 c 128,-1,102
 226 37 226 37 237 37 c 0,103,104
 256 37 256 37 271.5 43.5 c 128,-1,105
 287 50 287 50 298.5 61.5 c 128,-1,106
 310 73 310 73 316.5 87 c 128,-1,107
 323 101 323 101 323 116 c 256,108,109
 323 131 323 131 316 145 c 128,-1,110
 309 159 309 159 294 170 c 128,-1,111
 279 181 279 181 255.5 187.5 c 128,-1,112
 232 194 232 194 198 194 c 0,113,114
 148 194 148 194 111.5 177 c 128,-1,115
 75 160 75 160 50 133 c 128,-1,116
 25 106 25 106 13 71.5 c 128,-1,117
 1 37 1 37 1 1 c 0,118,119
 1 -32 1 -32 11.5 -62.5 c 128,-1,120
 22 -93 22 -93 42 -117 c 128,-1,121
 62 -141 62 -141 92.5 -155.5 c 128,-1,122
 123 -170 123 -170 164 -170 c 0,123,124
 206 -170 206 -170 251.5 -153 c 128,-1,125
 297 -136 297 -136 343 -98.5 c 128,-1,126
 389 -61 389 -61 432 -2 c 128,-1,127
 475 57 475 57 512 140 c 0,128,129
 541 207 541 207 569 275 c 128,-1,130
 597 343 597 343 623 405 c 0,131,132
 624 407 624 407 624.5 408 c 128,-1,133
 625 409 625 409 625 411 c 0,134,135
 625 416 625 416 620 416 c 0,136,137
 617 416 617 416 611 412 c 0,138,139
 520 350 520 350 430 325 c 128,-1,140
 340 300 340 300 250 300 c 0,141,142
 203 300 203 300 168.5 313.5 c 128,-1,143
 134 327 134 327 111 350 c 128,-1,144
 88 373 88 373 76.5 405 c 128,-1,145
 65 437 65 437 65 474 c 0,146,147
 65 522 65 522 83.5 576 c 128,-1,148
 102 630 102 630 139 682.5 c 128,-1,149
 176 735 176 735 231 783 c 128,-1,150
 286 831 286 831 358.5 867.5 c 128,-1,151
 431 904 431 904 520.5 926 c 128,-1,152
 610 948 610 948 717 948 c 0,153,154
 794 948 794 948 863 932 c 128,-1,155
 932 916 932 916 983.5 883 c 128,-1,156
 1035 850 1035 850 1065 799 c 128,-1,157
 1095 748 1095 748 1095 679 c 0,0,1
EndSplineSet
EndChar

StartChar: H
Encoding: 72 72 7
Width: 1139
Flags: W
LayerCount: 2
Fore
SplineSet
467 446 m 0,0,1
 482 446 482 446 486.5 439 c 128,-1,2
 491 432 491 432 491 412 c 0,3,4
 491 400 491 400 494 387 c 128,-1,5
 497 374 497 374 509.5 363.5 c 128,-1,6
 522 353 522 353 546 345.5 c 128,-1,7
 570 338 570 338 612 337 c 1,8,9
 634 412 634 412 666.5 485.5 c 128,-1,10
 699 559 699 559 741 625.5 c 128,-1,11
 783 692 783 692 833.5 749 c 128,-1,12
 884 806 884 806 942 848 c 128,-1,13
 1000 890 1000 890 1064 913.5 c 128,-1,14
 1128 937 1128 937 1198 937 c 0,15,16
 1261 937 1261 937 1289.5 912 c 128,-1,17
 1318 887 1318 887 1318 845 c 0,18,19
 1318 805 1318 805 1294 753.5 c 128,-1,20
 1270 702 1270 702 1227 647.5 c 128,-1,21
 1184 593 1184 593 1125 539.5 c 128,-1,22
 1066 486 1066 486 995.5 441 c 128,-1,23
 925 396 925 396 846.5 363.5 c 128,-1,24
 768 331 768 331 686 320 c 1,25,26
 662 242 662 242 648.5 167.5 c 128,-1,27
 635 93 635 93 635 27 c 0,28,29
 635 -30 635 -30 645.5 -77.5 c 128,-1,30
 656 -125 656 -125 679.5 -160 c 128,-1,31
 703 -195 703 -195 739 -214.5 c 128,-1,32
 775 -234 775 -234 826 -234 c 0,33,34
 878 -234 878 -234 916.5 -212 c 128,-1,35
 955 -190 955 -190 980.5 -155.5 c 128,-1,36
 1006 -121 1006 -121 1018.5 -79 c 128,-1,37
 1031 -37 1031 -37 1031 3 c 0,38,39
 1031 30 1031 30 1025 54.5 c 128,-1,40
 1019 79 1019 79 1007.5 97.5 c 128,-1,41
 996 116 996 116 979 127 c 128,-1,42
 962 138 962 138 939 138 c 0,43,44
 890 138 890 138 856.5 113.5 c 128,-1,45
 823 89 823 89 823 45 c 0,46,47
 823 17 823 17 837 -11 c 0,48,49
 842 -20 842 -20 842 -31 c 0,50,51
 842 -43 842 -43 835 -49.5 c 128,-1,52
 828 -56 828 -56 818 -56 c 0,53,54
 805 -56 805 -56 793.5 -44 c 128,-1,55
 782 -32 782 -32 782 -6 c 0,56,57
 782 19 782 19 792 47.5 c 128,-1,58
 802 76 802 76 822.5 100.5 c 128,-1,59
 843 125 843 125 875 141 c 128,-1,60
 907 157 907 157 952 157 c 0,61,62
 992 157 992 157 1020.5 146 c 128,-1,63
 1049 135 1049 135 1068 115.5 c 128,-1,64
 1087 96 1087 96 1096 70.5 c 128,-1,65
 1105 45 1105 45 1105 16 c 0,66,67
 1105 -29 1105 -29 1085 -76.5 c 128,-1,68
 1065 -124 1065 -124 1027.5 -164 c 128,-1,69
 990 -204 990 -204 937.5 -229.5 c 128,-1,70
 885 -255 885 -255 819 -255 c 0,71,72
 754 -255 754 -255 707.5 -229.5 c 128,-1,73
 661 -204 661 -204 631 -160 c 128,-1,74
 601 -116 601 -116 586.5 -55.5 c 128,-1,75
 572 5 572 5 572 75 c 0,76,77
 572 132 572 132 580.5 192 c 128,-1,78
 589 252 589 252 606 315 c 1,79,80
 561 315 561 315 529 325 c 128,-1,81
 497 335 497 335 477.5 350 c 128,-1,82
 458 365 458 365 449 382 c 128,-1,83
 440 399 440 399 440 414 c 0,84,85
 440 428 440 428 447 437 c 128,-1,86
 454 446 454 446 467 446 c 0,0,1
1237 865 m 0,87,88
 1237 890 1237 890 1224 904.5 c 128,-1,89
 1211 919 1211 919 1183 919 c 0,90,91
 1110 919 1110 919 1037.5 869.5 c 128,-1,92
 965 820 965 820 900.5 739 c 128,-1,93
 836 658 836 658 782.5 554.5 c 128,-1,94
 729 451 729 451 693 343 c 1,95,96
 762 355 762 355 829 389.5 c 128,-1,97
 896 424 896 424 956.5 470.5 c 128,-1,98
 1017 517 1017 517 1068.5 572 c 128,-1,99
 1120 627 1120 627 1157.5 681 c 128,-1,100
 1195 735 1195 735 1216 783 c 128,-1,101
 1237 831 1237 831 1237 865 c 0,87,88
-186 1013 m 0,102,103
 -163 1013 -163 1013 -152.5 1021 c 128,-1,104
 -142 1029 -142 1029 -139 1037 c 0,105,106
 -137 1043 -137 1043 -130 1046.5 c 128,-1,107
 -123 1050 -123 1050 -117 1050 c 0,108,109
 -95 1050 -95 1050 -95 1031 c 0,110,111
 -95 1018 -95 1018 -115.5 1004.5 c 128,-1,112
 -136 991 -136 991 -188 991 c 0,113,114
 -246 991 -246 991 -272.5 1015.5 c 128,-1,115
 -299 1040 -299 1040 -299 1074 c 0,116,117
 -299 1099 -299 1099 -285.5 1125 c 128,-1,118
 -272 1151 -272 1151 -247 1172 c 128,-1,119
 -222 1193 -222 1193 -185.5 1206.5 c 128,-1,120
 -149 1220 -149 1220 -102 1220 c 0,121,122
 -23 1220 -23 1220 42 1190.5 c 128,-1,123
 107 1161 107 1161 163 1117.5 c 128,-1,124
 219 1074 219 1074 267 1022.5 c 128,-1,125
 315 971 315 971 360.5 927.5 c 128,-1,126
 406 884 406 884 450.5 854.5 c 128,-1,127
 495 825 495 825 543 825 c 0,128,129
 570 825 570 825 591.5 833 c 128,-1,130
 613 841 613 841 634 852 c 0,131,132
 635 853 635 853 637 853 c 0,133,134
 640 853 640 853 640 849 c 0,135,136
 640 846 640 846 638 840 c 0,137,138
 637 837 637 837 636 835 c 0,139,140
 630 832 630 832 624 827 c 0,141,142
 619 822 619 822 612 815.5 c 128,-1,143
 605 809 605 809 597 801 c 0,144,145
 574 775 574 775 552.5 725.5 c 128,-1,146
 531 676 531 676 507.5 612 c 128,-1,147
 484 548 484 548 457 475 c 128,-1,148
 430 402 430 402 396 329.5 c 128,-1,149
 362 257 362 257 319.5 190.5 c 128,-1,150
 277 124 277 124 223.5 73 c 128,-1,151
 170 22 170 22 102.5 -8.5 c 128,-1,152
 35 -39 35 -39 -48 -39 c 0,153,154
 -80 -39 -80 -39 -102.5 -30.5 c 128,-1,155
 -125 -22 -125 -22 -139 -8.5 c 128,-1,156
 -153 5 -153 5 -159.5 22 c 128,-1,157
 -166 39 -166 39 -166 55 c 0,158,159
 -166 78 -166 78 -154 95 c 128,-1,160
 -142 112 -142 112 -122 112 c 0,161,162
 -109 112 -109 112 -104.5 108.5 c 128,-1,163
 -100 105 -100 105 -100 99 c 0,164,165
 -100 91 -100 91 -104 80 c 128,-1,166
 -108 69 -108 69 -108 58 c 0,167,168
 -108 23 -108 23 -87 0.5 c 128,-1,169
 -66 -22 -66 -22 -29 -22 c 0,170,171
 30 -22 30 -22 81.5 10 c 128,-1,172
 133 42 133 42 177.5 95 c 128,-1,173
 222 148 222 148 261 216.5 c 128,-1,174
 300 285 300 285 333 358.5 c 128,-1,175
 366 432 366 432 394 504 c 128,-1,176
 422 576 422 576 445.5 636.5 c 128,-1,177
 469 697 469 697 488.5 740 c 128,-1,178
 508 783 508 783 524 797 c 0,179,180
 528 800 528 800 528 802 c 0,181,182
 528 803 528 803 525 806 c 0,183,184
 523 807 523 807 522 807 c 0,185,186
 452 807 452 807 392.5 836.5 c 128,-1,187
 333 866 333 866 280.5 909.5 c 128,-1,188
 228 953 228 953 180 1004 c 128,-1,189
 132 1055 132 1055 84.5 1099 c 128,-1,190
 37 1143 37 1143 -11.5 1172 c 128,-1,191
 -60 1201 -60 1201 -114 1201 c 0,192,193
 -149 1201 -149 1201 -176.5 1189.5 c 128,-1,194
 -204 1178 -204 1178 -223 1160 c 128,-1,195
 -242 1142 -242 1142 -252 1120.5 c 128,-1,196
 -262 1099 -262 1099 -262 1079 c 0,197,198
 -262 1052 -262 1052 -243.5 1032.5 c 128,-1,199
 -225 1013 -225 1013 -186 1013 c 0,102,103
EndSplineSet
EndChar

StartChar: I
Encoding: 73 73 8
Width: 622
Flags: W
LayerCount: 2
Fore
SplineSet
802 904 m 0,0,1
 727 904 727 904 659 882 c 128,-1,2
 591 860 591 860 533.5 824.5 c 128,-1,3
 476 789 476 789 429 742.5 c 128,-1,4
 382 696 382 696 349.5 647.5 c 128,-1,5
 317 599 317 599 299 551.5 c 128,-1,6
 281 504 281 504 281 465 c 0,7,8
 281 421 281 421 305 394 c 128,-1,9
 329 367 329 367 382 367 c 0,10,11
 418 367 418 367 443 376.5 c 128,-1,12
 468 386 468 386 483 401.5 c 128,-1,13
 498 417 498 417 505 435.5 c 128,-1,14
 512 454 512 454 512 472 c 0,15,16
 512 496 512 496 502 514 c 0,17,18
 496 524 496 524 496 533 c 256,19,20
 496 542 496 542 502.5 546.5 c 128,-1,21
 509 551 509 551 517 551 c 0,22,23
 534 551 534 551 543 537.5 c 128,-1,24
 552 524 552 524 552 504 c 0,25,26
 552 481 552 481 540.5 453.5 c 128,-1,27
 529 426 529 426 505.5 402 c 128,-1,28
 482 378 482 378 445.5 361.5 c 128,-1,29
 409 345 409 345 359 345 c 0,30,31
 276 345 276 345 238.5 379.5 c 128,-1,32
 201 414 201 414 201 468 c 0,33,34
 201 510 201 510 222.5 560 c 128,-1,35
 244 610 244 610 283 660.5 c 128,-1,36
 322 711 322 711 377.5 758 c 128,-1,37
 433 805 433 805 501 841 c 128,-1,38
 569 877 569 877 648 899 c 128,-1,39
 727 921 727 921 813 921 c 0,40,41
 858 921 858 921 893.5 916.5 c 128,-1,42
 929 912 929 912 953.5 905 c 128,-1,43
 978 898 978 898 991 891 c 128,-1,44
 1004 884 1004 884 1004 878 c 256,45,46
 1004 872 1004 872 992 868 c 0,47,48
 934 849 934 849 891 806 c 128,-1,49
 848 763 848 763 812 704.5 c 128,-1,50
 776 646 776 646 744.5 575.5 c 128,-1,51
 713 505 713 505 679.5 432.5 c 128,-1,52
 646 360 646 360 607 288.5 c 128,-1,53
 568 217 568 217 517 157 c 0,54,55
 478 110 478 110 428 74 c 128,-1,56
 378 38 378 38 325 14 c 128,-1,57
 272 -10 272 -10 218 -22 c 128,-1,58
 164 -34 164 -34 116 -34 c 256,59,60
 68 -34 68 -34 33 -24 c 128,-1,61
 -2 -14 -2 -14 -24.5 2.5 c 128,-1,62
 -47 19 -47 19 -58 40.5 c 128,-1,63
 -69 62 -69 62 -69 84 c 256,64,65
 -69 106 -69 106 -58.5 127.5 c 128,-1,66
 -48 149 -48 149 -28 166 c 128,-1,67
 -8 183 -8 183 21 193 c 128,-1,68
 50 203 50 203 87 203 c 0,69,70
 111 203 111 203 128 196 c 128,-1,71
 145 189 145 189 156.5 179.5 c 128,-1,72
 168 170 168 170 173 159 c 128,-1,73
 178 148 178 148 178 140 c 0,74,75
 178 128 178 128 170 120 c 128,-1,76
 162 112 162 112 153 112 c 0,77,78
 147 112 147 112 142 117 c 128,-1,79
 137 122 137 122 137 133 c 0,80,81
 137 154 137 154 127 170 c 128,-1,82
 117 186 117 186 80 186 c 0,83,84
 59 186 59 186 42.5 178 c 128,-1,85
 26 170 26 170 14.5 157.5 c 128,-1,86
 3 145 3 145 -3 128.5 c 128,-1,87
 -9 112 -9 112 -9 94 c 0,88,89
 -9 74 -9 74 -1.5 55 c 128,-1,90
 6 36 6 36 22.5 21 c 128,-1,91
 39 6 39 6 64.5 -3 c 128,-1,92
 90 -12 90 -12 125 -12 c 0,93,94
 165 -12 165 -12 210 1 c 128,-1,95
 255 14 255 14 301 40.5 c 128,-1,96
 347 67 347 67 391 107.5 c 128,-1,97
 435 148 435 148 472 204 c 0,98,99
 511 262 511 262 546 328 c 128,-1,100
 581 394 581 394 616 461 c 128,-1,101
 651 528 651 528 687.5 593 c 128,-1,102
 724 658 724 658 766 713.5 c 128,-1,103
 808 769 808 769 857.5 812 c 128,-1,104
 907 855 907 855 968 879 c 0,105,106
 968 881 968 881 955 885 c 128,-1,107
 942 889 942 889 919.5 893.5 c 128,-1,108
 897 898 897 898 866.5 901 c 128,-1,109
 836 904 836 904 802 904 c 0,0,1
EndSplineSet
EndChar

StartChar: J
Encoding: 74 74 9
Width: 712
Flags: W
LayerCount: 2
Fore
SplineSet
384 345 m 0,0,1
 301 345 301 345 263.5 379.5 c 128,-1,2
 226 414 226 414 226 468 c 0,3,4
 226 510 226 510 247.5 560 c 128,-1,5
 269 610 269 610 308 660.5 c 128,-1,6
 347 711 347 711 402.5 758 c 128,-1,7
 458 805 458 805 526 841 c 128,-1,8
 594 877 594 877 673 899 c 128,-1,9
 752 921 752 921 838 921 c 0,10,11
 883 921 883 921 918.5 916.5 c 128,-1,12
 954 912 954 912 978.5 905 c 128,-1,13
 1003 898 1003 898 1016 891 c 128,-1,14
 1029 884 1029 884 1029 878 c 0,15,16
 1029 875 1029 875 1017 868 c 0,17,18
 944 827 944 827 881 750.5 c 128,-1,19
 818 674 818 674 759.5 576.5 c 128,-1,20
 701 479 701 479 643.5 367.5 c 128,-1,21
 586 256 586 256 525 146 c 1,22,23
 586 131 586 131 630.5 105.5 c 128,-1,24
 675 80 675 80 703.5 48 c 128,-1,25
 732 16 732 16 745.5 -20.5 c 128,-1,26
 759 -57 759 -57 759 -93 c 0,27,28
 759 -135 759 -135 742.5 -174 c 128,-1,29
 726 -213 726 -213 695 -243 c 128,-1,30
 664 -273 664 -273 619.5 -291 c 128,-1,31
 575 -309 575 -309 519 -309 c 0,32,33
 477 -309 477 -309 440 -300 c 128,-1,34
 403 -291 403 -291 375.5 -277.5 c 128,-1,35
 348 -264 348 -264 332.5 -247.5 c 128,-1,36
 317 -231 317 -231 317 -217 c 0,37,38
 317 -200 317 -200 324 -190.5 c 128,-1,39
 331 -181 331 -181 340 -181 c 0,40,41
 351 -181 351 -181 363 -197 c 0,42,43
 393 -242 393 -242 436.5 -265 c 128,-1,44
 480 -288 480 -288 525 -288 c 0,45,46
 558 -288 558 -288 588 -275.5 c 128,-1,47
 618 -263 618 -263 641.5 -237.5 c 128,-1,48
 665 -212 665 -212 679 -173 c 128,-1,49
 693 -134 693 -134 693 -81 c 0,50,51
 693 -50 693 -50 682.5 -19.5 c 128,-1,52
 672 11 672 11 650 38 c 128,-1,53
 628 65 628 65 593.5 86.5 c 128,-1,54
 559 108 559 108 511 122 c 1,55,56
 451 18 451 18 385 -76.5 c 128,-1,57
 319 -171 319 -171 241 -243 c 128,-1,58
 163 -315 163 -315 70.5 -357.5 c 128,-1,59
 -22 -400 -22 -400 -134 -400 c 0,60,61
 -226 -400 -226 -400 -269.5 -360.5 c 128,-1,62
 -313 -321 -313 -321 -313 -262 c 0,63,64
 -313 -220 -313 -220 -292.5 -172.5 c 128,-1,65
 -272 -125 -272 -125 -232 -77.5 c 128,-1,66
 -192 -30 -192 -30 -133.5 13.5 c 128,-1,67
 -75 57 -75 57 0.5 90.5 c 128,-1,68
 76 124 76 124 167.5 144 c 128,-1,69
 259 164 259 164 365 164 c 0,70,71
 387 164 387 164 407.5 162.5 c 128,-1,72
 428 161 428 161 447 159 c 1,73,74
 506 265 506 265 566.5 371 c 128,-1,75
 627 477 627 477 693 572 c 128,-1,76
 759 667 759 667 833 746.5 c 128,-1,77
 907 826 907 826 993 879 c 0,78,79
 993 881 993 881 980 885 c 128,-1,80
 967 889 967 889 944.5 893.5 c 128,-1,81
 922 898 922 898 891.5 901 c 128,-1,82
 861 904 861 904 827 904 c 0,83,84
 752 904 752 904 684 882 c 128,-1,85
 616 860 616 860 558.5 824.5 c 128,-1,86
 501 789 501 789 454 742.5 c 128,-1,87
 407 696 407 696 374.5 647.5 c 128,-1,88
 342 599 342 599 324 551.5 c 128,-1,89
 306 504 306 504 306 465 c 0,90,91
 306 421 306 421 330 394 c 128,-1,92
 354 367 354 367 407 367 c 0,93,94
 443 367 443 367 468 376.5 c 128,-1,95
 493 386 493 386 508 401.5 c 128,-1,96
 523 417 523 417 530 435.5 c 128,-1,97
 537 454 537 454 537 472 c 0,98,99
 537 496 537 496 527 514 c 0,100,101
 521 524 521 524 521 533 c 256,102,103
 521 542 521 542 527.5 546.5 c 128,-1,104
 534 551 534 551 542 551 c 0,105,106
 559 551 559 551 568 537.5 c 128,-1,107
 577 524 577 524 577 504 c 0,108,109
 577 481 577 481 565.5 453.5 c 128,-1,110
 554 426 554 426 530.5 402 c 128,-1,111
 507 378 507 378 470.5 361.5 c 128,-1,112
 434 345 434 345 384 345 c 0,0,1
350 142 m 0,113,114
 261 142 261 142 183.5 122 c 128,-1,115
 106 102 106 102 42 68.5 c 128,-1,116
 -22 35 -22 35 -72.5 -8 c 128,-1,117
 -123 -51 -123 -51 -158 -97 c 128,-1,118
 -193 -143 -193 -143 -211 -188.5 c 128,-1,119
 -229 -234 -229 -234 -229 -272 c 0,120,121
 -229 -320 -229 -320 -200 -350 c 128,-1,122
 -171 -380 -171 -380 -108 -380 c 0,123,124
 -24 -380 -24 -380 49 -338 c 128,-1,125
 122 -296 122 -296 187.5 -225 c 128,-1,126
 253 -154 253 -154 313.5 -60.5 c 128,-1,127
 374 33 374 33 434 137 c 1,128,129
 414 139 414 139 393.5 140.5 c 128,-1,130
 373 142 373 142 350 142 c 0,113,114
EndSplineSet
EndChar

StartChar: K
Encoding: 75 75 10
Width: 788
Flags: W
LayerCount: 2
Fore
SplineSet
333 465 m 0,0,1
 375 465 375 465 411 453 c 1,2,3
 468 485 468 485 533 541 c 128,-1,4
 598 597 598 597 670 661 c 128,-1,5
 742 725 742 725 820.5 791 c 128,-1,6
 899 857 899 857 984.5 910.5 c 128,-1,7
 1070 964 1070 964 1161.5 998 c 128,-1,8
 1253 1032 1253 1032 1351 1032 c 0,9,10
 1397 1032 1397 1032 1431.5 1023 c 128,-1,11
 1466 1014 1466 1014 1488.5 999 c 128,-1,12
 1511 984 1511 984 1522 964.5 c 128,-1,13
 1533 945 1533 945 1533 924 c 0,14,15
 1533 902 1533 902 1521 881 c 128,-1,16
 1509 860 1509 860 1485 843.5 c 128,-1,17
 1461 827 1461 827 1426 816.5 c 128,-1,18
 1391 806 1391 806 1345 806 c 0,19,20
 1296 806 1296 806 1276.5 823 c 128,-1,21
 1257 840 1257 840 1257 857 c 0,22,23
 1257 871 1257 871 1264 878.5 c 128,-1,24
 1271 886 1271 886 1279 886 c 0,25,26
 1284 886 1284 886 1289 882 c 128,-1,27
 1294 878 1294 878 1296 867 c 0,28,29
 1300 846 1300 846 1320.5 836 c 128,-1,30
 1341 826 1341 826 1363 826 c 0,31,32
 1423 826 1423 826 1452 852.5 c 128,-1,33
 1481 879 1481 879 1481 913 c 0,34,35
 1481 932 1481 932 1472 950 c 128,-1,36
 1463 968 1463 968 1445.5 982.5 c 128,-1,37
 1428 997 1428 997 1401.5 1006 c 128,-1,38
 1375 1015 1375 1015 1340 1015 c 0,39,40
 1264 1015 1264 1015 1190 981 c 128,-1,41
 1116 947 1116 947 1043 893.5 c 128,-1,42
 970 840 970 840 897.5 774 c 128,-1,43
 825 708 825 708 751.5 643.5 c 128,-1,44
 678 579 678 579 603 523.5 c 128,-1,45
 528 468 528 468 451 436 c 1,46,47
 504 408 504 408 546 357.5 c 128,-1,48
 588 307 588 307 624 243.5 c 128,-1,49
 660 180 660 180 693.5 108.5 c 128,-1,50
 727 37 727 37 762.5 -33.5 c 128,-1,51
 798 -104 798 -104 839 -168.5 c 128,-1,52
 880 -233 880 -233 931 -282 c 128,-1,53
 982 -331 982 -331 1046 -360.5 c 128,-1,54
 1110 -390 1110 -390 1193 -390 c 0,55,56
 1218 -390 1218 -390 1245 -383.5 c 128,-1,57
 1272 -377 1272 -377 1297.5 -364.5 c 128,-1,58
 1323 -352 1323 -352 1346 -333.5 c 128,-1,59
 1369 -315 1369 -315 1387 -291 c 0,60,61
 1414 -255 1414 -255 1436 -255 c 0,62,63
 1459 -255 1459 -255 1459 -289 c 0,64,65
 1459 -306 1459 -306 1443.5 -327 c 128,-1,66
 1428 -348 1428 -348 1395 -367 c 128,-1,67
 1362 -386 1362 -386 1310 -398.5 c 128,-1,68
 1258 -411 1258 -411 1185 -411 c 0,69,70
 1078 -411 1078 -411 997 -381.5 c 128,-1,71
 916 -352 916 -352 854.5 -302 c 128,-1,72
 793 -252 793 -252 747.5 -186.5 c 128,-1,73
 702 -121 702 -121 666.5 -50 c 128,-1,74
 631 21 631 21 602 93 c 128,-1,75
 573 165 573 165 544 228.5 c 128,-1,76
 515 292 515 292 483.5 342.5 c 128,-1,77
 452 393 452 393 411 420 c 1,78,79
 382 411 382 411 352.5 406 c 128,-1,80
 323 401 323 401 293 401 c 0,81,82
 274 401 274 401 262.5 407.5 c 128,-1,83
 251 414 251 414 249 423 c 1,84,85
 219 354 219 354 181.5 265 c 128,-1,86
 144 176 144 176 98 62 c 0,87,88
 96 57 96 57 95 53.5 c 128,-1,89
 94 50 94 50 94 46 c 0,90,91
 94 32 94 32 105.5 25 c 128,-1,92
 117 18 117 18 134 16 c 0,93,94
 140 15 140 15 145.5 15 c 128,-1,95
 151 15 151 15 161 15 c 0,96,97
 166 15 166 15 166 7 c 0,98,99
 166 3 166 3 163.5 -0.5 c 128,-1,100
 161 -4 161 -4 156 -4 c 0,101,102
 152 -4 152 -4 141 -3.5 c 128,-1,103
 130 -3 130 -3 115 -2 c 128,-1,104
 100 -1 100 -1 82.5 -0.5 c 128,-1,105
 65 0 65 0 49 0 c 0,106,107
 37 0 37 0 20 0 c 128,-1,108
 3 0 3 0 -13 -0.5 c 128,-1,109
 -29 -1 -29 -1 -41.5 -1.5 c 128,-1,110
 -54 -2 -54 -2 -57 -2 c 0,111,112
 -63 -2 -63 -2 -63 1 c 128,-1,113
 -63 4 -63 4 -64 7 c 0,114,115
 -64 10 -64 10 -62.5 13.5 c 128,-1,116
 -61 17 -61 17 -56 18 c 0,117,118
 -36 18 -36 18 -22.5 22 c 128,-1,119
 -9 26 -9 26 0.5 33.5 c 128,-1,120
 10 41 10 41 17.5 53 c 128,-1,121
 25 65 25 65 33 82 c 0,122,123
 38 92 38 92 55.5 132 c 128,-1,124
 73 172 73 172 99 231.5 c 128,-1,125
 125 291 125 291 156.5 364 c 128,-1,126
 188 437 188 437 221 513 c 0,127,128
 237 553 237 553 254 591 c 0,129,130
 268 623 268 623 285.5 657 c 128,-1,131
 303 691 303 691 320 712 c 0,132,133
 336 732 336 732 348.5 746.5 c 128,-1,134
 361 761 361 761 369 770 c 0,135,136
 379 781 379 781 386 786 c 1,137,138
 385 787 385 787 385 789 c 0,139,140
 384 790 384 790 384 791 c 128,-1,141
 384 792 384 792 382 792 c 0,142,143
 377 791 377 791 363 787.5 c 128,-1,144
 349 784 349 784 327 784 c 0,145,146
 285 784 285 784 252.5 797 c 128,-1,147
 220 810 220 810 189.5 825.5 c 128,-1,148
 159 841 159 841 127.5 854 c 128,-1,149
 96 867 96 867 58 867 c 0,150,151
 15 867 15 867 -27.5 851 c 128,-1,152
 -70 835 -70 835 -104 810.5 c 128,-1,153
 -138 786 -138 786 -159 756.5 c 128,-1,154
 -180 727 -180 727 -180 700 c 0,155,156
 -180 682 -180 682 -169.5 666.5 c 128,-1,157
 -159 651 -159 651 -135 640 c 0,158,159
 -118 631 -118 631 -118 617 c 0,160,161
 -118 609 -118 609 -124.5 602.5 c 128,-1,162
 -131 596 -131 596 -144 596 c 0,163,164
 -179 596 -179 596 -196 614 c 128,-1,165
 -213 632 -213 632 -213 660 c 0,166,167
 -213 693 -213 693 -191 735 c 128,-1,168
 -169 777 -169 777 -129 814 c 128,-1,169
 -89 851 -89 851 -32 876 c 128,-1,170
 25 901 25 901 94 901 c 0,171,172
 147 901 147 901 188.5 887 c 128,-1,173
 230 873 230 873 262.5 855.5 c 128,-1,174
 295 838 295 838 320 824 c 128,-1,175
 345 810 345 810 365 810 c 0,176,177
 381 810 381 810 397 816 c 128,-1,178
 413 822 413 822 428 830 c 128,-1,179
 443 838 443 838 457 846.5 c 128,-1,180
 471 855 471 855 483 861 c 0,181,182
 485 862 485 862 487 862 c 0,183,184
 495 862 495 862 495 852 c 0,185,186
 495 849 495 849 490 847 c 0,187,188
 466 835 466 835 443.5 807.5 c 128,-1,189
 421 780 421 780 401 747 c 128,-1,190
 381 714 381 714 364.5 680 c 128,-1,191
 348 646 348 646 337 620 c 0,192,193
 322 587 322 587 303 544.5 c 128,-1,194
 284 502 284 502 260 448 c 1,195,196
 280 465 280 465 333 465 c 0,0,1
321 448 m 0,197,198
 292 448 292 448 280 443.5 c 128,-1,199
 268 439 268 439 268 433 c 0,200,201
 268 428 268 428 278 423 c 128,-1,202
 288 418 288 418 303 418 c 0,203,204
 337 418 337 418 380 437 c 1,205,206
 352 448 352 448 321 448 c 0,197,198
EndSplineSet
EndChar

StartChar: L
Encoding: 76 76 11
Width: 531
Flags: W
LayerCount: 2
Fore
SplineSet
971 743 m 0,0,1
 985 743 985 743 990 733.5 c 128,-1,2
 995 724 995 724 998 712 c 0,3,4
 1005 683 1005 683 1022 670.5 c 128,-1,5
 1039 658 1039 658 1060 658 c 0,6,7
 1091 658 1091 658 1114.5 667.5 c 128,-1,8
 1138 677 1138 677 1154 693.5 c 128,-1,9
 1170 710 1170 710 1178 731.5 c 128,-1,10
 1186 753 1186 753 1186 776 c 0,11,12
 1186 803 1186 803 1174.5 830.5 c 128,-1,13
 1163 858 1163 858 1140 880 c 128,-1,14
 1117 902 1117 902 1082.5 915.5 c 128,-1,15
 1048 929 1048 929 1001 929 c 0,16,17
 969 929 969 929 936.5 922 c 128,-1,18
 904 915 904 915 873 901.5 c 128,-1,19
 842 888 842 888 813.5 869 c 128,-1,20
 785 850 785 850 763 825 c 0,21,22
 725 783 725 783 689 723 c 128,-1,23
 653 663 653 663 618 594 c 128,-1,24
 583 525 583 525 548 451 c 128,-1,25
 513 377 513 377 476 306.5 c 128,-1,26
 439 236 439 236 399.5 172.5 c 128,-1,27
 360 109 360 109 316 61 c 0,28,29
 308 52 308 52 301.5 45 c 128,-1,30
 295 38 295 38 288 31 c 1,31,32
 360 0 360 0 432.5 -40 c 128,-1,33
 505 -80 505 -80 578.5 -121.5 c 128,-1,34
 652 -163 652 -163 726.5 -201.5 c 128,-1,35
 801 -240 801 -240 878 -267 c 1,36,37
 900 -225 900 -225 934.5 -188 c 128,-1,38
 969 -151 969 -151 1015 -123 c 128,-1,39
 1061 -95 1061 -95 1119 -78.5 c 128,-1,40
 1177 -62 1177 -62 1248 -62 c 0,41,42
 1293 -62 1293 -62 1326.5 -71 c 128,-1,43
 1360 -80 1360 -80 1382.5 -95 c 128,-1,44
 1405 -110 1405 -110 1416.5 -130 c 128,-1,45
 1428 -150 1428 -150 1428 -172 c 0,46,47
 1428 -203 1428 -203 1405.5 -235.5 c 128,-1,48
 1383 -268 1383 -268 1338.5 -294.5 c 128,-1,49
 1294 -321 1294 -321 1226.5 -338 c 128,-1,50
 1159 -355 1159 -355 1069 -355 c 0,51,52
 1019 -355 1019 -355 973 -349.5 c 128,-1,53
 927 -344 927 -344 882 -333 c 1,54,55
 867 -381 867 -381 867 -427 c 0,56,57
 867 -485 867 -485 893.5 -524 c 128,-1,58
 920 -563 920 -563 973 -563 c 0,59,60
 983 -563 983 -563 989 -561.5 c 128,-1,61
 995 -560 995 -560 999.5 -558.5 c 128,-1,62
 1004 -557 1004 -557 1008.5 -555.5 c 128,-1,63
 1013 -554 1013 -554 1020 -554 c 0,64,65
 1029 -554 1029 -554 1033.5 -560 c 128,-1,66
 1038 -566 1038 -566 1038 -575 c 0,67,68
 1038 -591 1038 -591 1024 -607.5 c 128,-1,69
 1010 -624 1010 -624 984 -624 c 0,70,71
 947 -624 947 -624 918.5 -609 c 128,-1,72
 890 -594 890 -594 871 -569 c 128,-1,73
 852 -544 852 -544 842.5 -510 c 128,-1,74
 833 -476 833 -476 833 -438 c 0,75,76
 833 -411 833 -411 837.5 -382.5 c 128,-1,77
 842 -354 842 -354 852 -325 c 1,78,79
 763 -301 763 -301 681.5 -262.5 c 128,-1,80
 600 -224 600 -224 524.5 -180.5 c 128,-1,81
 449 -137 449 -137 378.5 -93 c 128,-1,82
 308 -49 308 -49 241 -14 c 1,83,84
 150 -92 150 -92 64 -123 c 128,-1,85
 -22 -154 -22 -154 -92 -154 c 0,86,87
 -184 -154 -184 -154 -225 -129.5 c 128,-1,88
 -266 -105 -266 -105 -266 -70 c 0,89,90
 -266 -43 -266 -43 -244 -14 c 128,-1,91
 -222 15 -222 15 -182.5 38.5 c 128,-1,92
 -143 62 -143 62 -89 77.5 c 128,-1,93
 -35 93 -35 93 29 93 c 0,94,95
 80 93 80 93 130.5 82 c 128,-1,96
 181 71 181 71 232 53 c 1,97,98
 239 61 239 61 245.5 69.5 c 128,-1,99
 252 78 252 78 260 87 c 0,100,101
 304 143 304 143 343.5 212 c 128,-1,102
 383 281 383 281 420 355 c 128,-1,103
 457 429 457 429 493.5 503.5 c 128,-1,104
 530 578 530 578 568 645 c 128,-1,105
 606 712 606 712 646.5 767 c 128,-1,106
 687 822 687 822 733 857 c 0,107,108
 763 880 763 880 798.5 898.5 c 128,-1,109
 834 917 834 917 872 929.5 c 128,-1,110
 910 942 910 942 949 949 c 128,-1,111
 988 956 988 956 1025 956 c 0,112,113
 1081 956 1081 956 1122.5 942 c 128,-1,114
 1164 928 1164 928 1192 905.5 c 128,-1,115
 1220 883 1220 883 1233.5 853.5 c 128,-1,116
 1247 824 1247 824 1247 794 c 256,117,118
 1247 764 1247 764 1234 736 c 128,-1,119
 1221 708 1221 708 1195.5 686 c 128,-1,120
 1170 664 1170 664 1132.5 650.5 c 128,-1,121
 1095 637 1095 637 1045 637 c 0,122,123
 1001 637 1001 637 969.5 655 c 128,-1,124
 938 673 938 673 938 707 c 0,125,126
 938 722 938 722 947 732.5 c 128,-1,127
 956 743 956 743 971 743 c 0,0,1
1119 -314 m 0,128,129
 1167 -314 1167 -314 1209 -298.5 c 128,-1,130
 1251 -283 1251 -283 1282 -259.5 c 128,-1,131
 1313 -236 1313 -236 1331 -208 c 128,-1,132
 1349 -180 1349 -180 1349 -154 c 0,133,134
 1349 -124 1349 -124 1321.5 -103 c 128,-1,135
 1294 -82 1294 -82 1231 -82 c 0,136,137
 1170 -82 1170 -82 1119 -98 c 128,-1,138
 1068 -114 1068 -114 1027.5 -141 c 128,-1,139
 987 -168 987 -168 956.5 -203 c 128,-1,140
 926 -238 926 -238 906 -277 c 1,141,142
 959 -294 959 -294 1011.5 -304 c 128,-1,143
 1064 -314 1064 -314 1119 -314 c 0,128,129
-12 61 m 0,144,145
 -57 61 -57 61 -90 51.5 c 128,-1,146
 -123 42 -123 42 -144 26.5 c 128,-1,147
 -165 11 -165 11 -175.5 -8.5 c 128,-1,148
 -186 -28 -186 -28 -186 -47 c 0,149,150
 -186 -79 -186 -79 -160 -103 c 128,-1,151
 -134 -127 -134 -127 -83 -127 c 0,152,153
 -27 -127 -27 -127 43 -96.5 c 128,-1,154
 113 -66 113 -66 191 10 c 1,155,156
 140 33 140 33 89.5 47 c 128,-1,157
 39 61 39 61 -12 61 c 0,144,145
EndSplineSet
EndChar

StartChar: M
Encoding: 77 77 12
Width: 824
Flags: W
LayerCount: 2
Fore
SplineSet
112 75 m 2,0,1
 109 67 109 67 109 60 c 0,2,3
 109 50 109 50 115 43 c 128,-1,4
 121 36 121 36 130 31.5 c 128,-1,5
 139 27 139 27 149.5 24 c 128,-1,6
 160 21 160 21 169 20 c 0,7,8
 175 19 175 19 180.5 19 c 128,-1,9
 186 19 186 19 196 19 c 0,10,11
 201 19 201 19 201 11 c 0,12,13
 201 7 201 7 198.5 3.5 c 128,-1,14
 196 0 196 0 191 0 c 0,15,16
 187 0 187 0 176 0.5 c 128,-1,17
 165 1 165 1 150 2 c 128,-1,18
 135 3 135 3 117.5 3.5 c 128,-1,19
 100 4 100 4 84 4 c 0,20,21
 72 4 72 4 55 4 c 128,-1,22
 38 4 38 4 22 3.5 c 128,-1,23
 6 3 6 3 -6.5 2.5 c 128,-1,24
 -19 2 -19 2 -22 2 c 0,25,26
 -28 2 -28 2 -28 5 c 128,-1,27
 -28 8 -28 8 -29 11 c 0,28,29
 -29 14 -29 14 -27.5 17.5 c 128,-1,30
 -26 21 -26 21 -21 22 c 0,31,32
 20 23 20 23 43 38 c 128,-1,33
 66 53 66 53 86 85 c 1,34,-1
 414 832 l 1,35,36
 369 913 369 913 306 964 c 128,-1,37
 243 1015 243 1015 163 1015 c 0,38,39
 104 1015 104 1015 61.5 995.5 c 128,-1,40
 19 976 19 976 -9 945 c 128,-1,41
 -37 914 -37 914 -50.5 875.5 c 128,-1,42
 -64 837 -64 837 -64 800 c 0,43,44
 -64 773 -64 773 -57 748 c 128,-1,45
 -50 723 -50 723 -35.5 704 c 128,-1,46
 -21 685 -21 685 -0.5 674 c 128,-1,47
 20 663 20 663 47 663 c 0,48,49
 84 663 84 663 110 674 c 128,-1,50
 136 685 136 685 152.5 701.5 c 128,-1,51
 169 718 169 718 176.5 738 c 128,-1,52
 184 758 184 758 184 777 c 0,53,54
 184 799 184 799 175 814 c 0,55,56
 169 824 169 824 169 833 c 256,57,58
 169 842 169 842 175.5 846.5 c 128,-1,59
 182 851 182 851 190 851 c 0,60,61
 207 851 207 851 215 839 c 128,-1,62
 223 827 223 827 223 808 c 0,63,64
 223 785 223 785 211 757 c 128,-1,65
 199 729 199 729 175.5 704 c 128,-1,66
 152 679 152 679 117 662 c 128,-1,67
 82 645 82 645 35 645 c 0,68,69
 -1 645 -1 645 -28.5 657.5 c 128,-1,70
 -56 670 -56 670 -74.5 691 c 128,-1,71
 -93 712 -93 712 -102.5 739.5 c 128,-1,72
 -112 767 -112 767 -112 797 c 0,73,74
 -112 837 -112 837 -95 879 c 128,-1,75
 -78 921 -78 921 -43.5 954.5 c 128,-1,76
 -9 988 -9 988 44 1009.5 c 128,-1,77
 97 1031 97 1031 168 1031 c 0,78,79
 248 1031 248 1031 313 996.5 c 128,-1,80
 378 962 378 962 428 904 c 128,-1,81
 478 846 478 846 513 770.5 c 128,-1,82
 548 695 548 695 568 613 c 1,83,84
 627 679 627 679 698.5 738.5 c 128,-1,85
 770 798 770 798 852.5 842.5 c 128,-1,86
 935 887 935 887 1028 913.5 c 128,-1,87
 1121 940 1121 940 1222 940 c 0,88,89
 1234 940 1234 940 1234 935 c 256,90,91
 1234 930 1234 930 1225.5 924.5 c 128,-1,92
 1217 919 1217 919 1206 919 c 0,93,94
 1137 907 1137 907 1074 865 c 128,-1,95
 1011 823 1011 823 958 760.5 c 128,-1,96
 905 698 905 698 862 619 c 128,-1,97
 819 540 819 540 789 453.5 c 128,-1,98
 759 367 759 367 743 277 c 128,-1,99
 727 187 727 187 727 102 c 0,100,101
 727 48 727 48 734 -1.5 c 128,-1,102
 741 -51 741 -51 755 -96 c 1,103,104
 786 -91 786 -91 819.5 -88.5 c 128,-1,105
 853 -86 853 -86 889 -86 c 0,106,107
 960 -86 960 -86 1020.5 -104 c 128,-1,108
 1081 -122 1081 -122 1125.5 -150 c 128,-1,109
 1170 -178 1170 -178 1195.5 -210.5 c 128,-1,110
 1221 -243 1221 -243 1221 -272 c 0,111,112
 1221 -304 1221 -304 1187 -325.5 c 128,-1,113
 1153 -347 1153 -347 1076 -347 c 0,114,115
 1006 -347 1006 -347 948.5 -333 c 128,-1,116
 891 -319 891 -319 845 -293 c 128,-1,117
 799 -267 799 -267 764 -231 c 128,-1,118
 729 -195 729 -195 705 -151 c 1,119,120
 650 -168 650 -168 594 -187.5 c 128,-1,121
 538 -207 538 -207 481 -223.5 c 128,-1,122
 424 -240 424 -240 367 -251.5 c 128,-1,123
 310 -263 310 -263 252 -263 c 0,124,125
 193 -263 193 -263 164.5 -241 c 128,-1,126
 136 -219 136 -219 136 -194 c 0,127,128
 136 -173 136 -173 156 -156.5 c 128,-1,129
 176 -140 176 -140 215 -140 c 0,130,131
 240 -140 240 -140 240 -156 c 0,132,133
 240 -164 240 -164 232.5 -172 c 128,-1,134
 225 -180 225 -180 213 -180 c 0,135,136
 200 -180 200 -180 196.5 -177 c 128,-1,137
 193 -174 193 -174 181 -174 c 0,138,139
 170 -174 170 -174 162 -181 c 128,-1,140
 154 -188 154 -188 154 -199 c 0,141,142
 154 -213 154 -213 173.5 -227 c 128,-1,143
 193 -241 193 -241 242 -241 c 0,144,145
 293 -241 293 -241 342 -226.5 c 128,-1,146
 391 -212 391 -212 444 -191.5 c 128,-1,147
 497 -171 497 -171 555.5 -148.5 c 128,-1,148
 614 -126 614 -126 684 -109 c 1,149,150
 662 -58 662 -58 652 -0.5 c 128,-1,151
 642 57 642 57 642 120 c 0,152,153
 642 199 642 199 658 281 c 128,-1,154
 674 363 674 363 704 442.5 c 128,-1,155
 734 522 734 522 777 596 c 128,-1,156
 820 670 820 670 874.5 731.5 c 128,-1,157
 929 793 929 793 993.5 839.5 c 128,-1,158
 1058 886 1058 886 1131 911 c 0,159,160
 1132 912 1132 912 1134 913 c 0,161,162
 1137 916 1137 916 1137 916 c 2,163,164
 1137 917 1137 917 1133 917 c 0,165,166
 1046 907 1046 907 966.5 876.5 c 128,-1,167
 887 846 887 846 817 801.5 c 128,-1,168
 747 757 747 757 686 701.5 c 128,-1,169
 625 646 625 646 575 586 c 1,170,171
 595 489 595 489 595 397 c 0,172,173
 595 327 595 327 583 265 c 128,-1,174
 571 203 571 203 547.5 156.5 c 128,-1,175
 524 110 524 110 488.5 83 c 128,-1,176
 453 56 453 56 406 56 c 0,177,178
 370 56 370 56 352.5 81 c 128,-1,179
 335 106 335 106 335 148 c 0,180,181
 335 183 335 183 346.5 228.5 c 128,-1,182
 358 274 358 274 380.5 325.5 c 128,-1,183
 403 377 403 377 435.5 432.5 c 128,-1,184
 468 488 468 488 510 543 c 1,185,186
 498 613 498 613 477 680.5 c 128,-1,187
 456 748 456 748 427 808 c 1,188,-1
 112 75 l 2,0,1
1042 -316 m 0,189,190
 1105 -316 1105 -316 1133.5 -296.5 c 128,-1,191
 1162 -277 1162 -277 1162 -250 c 0,192,193
 1162 -228 1162 -228 1144.5 -204 c 128,-1,194
 1127 -180 1127 -180 1095 -160 c 128,-1,195
 1063 -140 1063 -140 1016.5 -127 c 128,-1,196
 970 -114 970 -114 913 -114 c 0,197,198
 877 -114 877 -114 841 -119 c 128,-1,199
 805 -124 805 -124 768 -133 c 1,200,201
 803 -216 803 -216 870.5 -266 c 128,-1,202
 938 -316 938 -316 1042 -316 c 0,189,190
364 148 m 0,203,204
 364 114 364 114 376 95 c 128,-1,205
 388 76 388 76 414 76 c 0,206,207
 442 76 442 76 463.5 97.5 c 128,-1,208
 485 119 485 119 499.5 156 c 128,-1,209
 514 193 514 193 521 243.5 c 128,-1,210
 528 294 528 294 528 352 c 0,211,212
 528 429 528 429 516 510 c 1,213,214
 479 458 479 458 451 406.5 c 128,-1,215
 423 355 423 355 403.5 307.5 c 128,-1,216
 384 260 384 260 374 219.5 c 128,-1,217
 364 179 364 179 364 148 c 0,203,204
EndSplineSet
EndChar

StartChar: N
Encoding: 78 78 13
Width: 737
Flags: W
LayerCount: 2
Fore
SplineSet
-4 1168 m 0,0,1
 -42 1168 -42 1168 -79.5 1156.5 c 128,-1,2
 -117 1145 -117 1145 -147 1124.5 c 128,-1,3
 -177 1104 -177 1104 -196 1075 c 128,-1,4
 -215 1046 -215 1046 -215 1011 c 0,5,6
 -215 1003 -215 1003 -213 995 c 128,-1,7
 -211 987 -211 987 -211 979 c 256,8,9
 -211 971 -211 971 -216 966 c 128,-1,10
 -221 961 -221 961 -237 961 c 0,11,12
 -254 961 -254 961 -263 972 c 128,-1,13
 -272 983 -272 983 -272 1001 c 0,14,15
 -272 1025 -272 1025 -255.5 1056.5 c 128,-1,16
 -239 1088 -239 1088 -205 1116.5 c 128,-1,17
 -171 1145 -171 1145 -118.5 1164.5 c 128,-1,18
 -66 1184 -66 1184 5 1184 c 0,19,20
 107 1184 107 1184 182.5 1145.5 c 128,-1,21
 258 1107 258 1107 314.5 1040.5 c 128,-1,22
 371 974 371 974 412 884.5 c 128,-1,23
 453 795 453 795 484.5 693.5 c 128,-1,24
 516 592 516 592 541.5 483.5 c 128,-1,25
 567 375 567 375 594 270 c 1,26,27
 594 272 594 272 595 273 c 0,28,29
 626 341 626 341 665.5 422.5 c 128,-1,30
 705 504 705 504 752.5 586 c 128,-1,31
 800 668 800 668 857 744.5 c 128,-1,32
 914 821 914 821 981 880.5 c 128,-1,33
 1048 940 1048 940 1125.5 975.5 c 128,-1,34
 1203 1011 1203 1011 1292 1011 c 0,35,36
 1333 1011 1333 1011 1350 995 c 128,-1,37
 1367 979 1367 979 1367 962 c 0,38,39
 1367 950 1367 950 1359.5 941.5 c 128,-1,40
 1352 933 1352 933 1338 933 c 0,41,42
 1328 933 1328 933 1320 937 c 128,-1,43
 1312 941 1312 941 1301.5 945.5 c 128,-1,44
 1291 950 1291 950 1275.5 954 c 128,-1,45
 1260 958 1260 958 1236 958 c 0,46,47
 1165 958 1165 958 1099.5 925 c 128,-1,48
 1034 892 1034 892 974.5 836.5 c 128,-1,49
 915 781 915 781 861.5 707.5 c 128,-1,50
 808 634 808 634 761.5 553.5 c 128,-1,51
 715 473 715 473 675.5 389.5 c 128,-1,52
 636 306 636 306 604 230 c 1,53,54
 633 122 633 122 667.5 25.5 c 128,-1,55
 702 -71 702 -71 750.5 -143.5 c 128,-1,56
 799 -216 799 -216 864.5 -258.5 c 128,-1,57
 930 -301 930 -301 1022 -301 c 0,58,59
 1048 -301 1048 -301 1080.5 -297.5 c 128,-1,60
 1113 -294 1113 -294 1141.5 -280.5 c 128,-1,61
 1170 -267 1170 -267 1189 -239.5 c 128,-1,62
 1208 -212 1208 -212 1208 -164 c 0,63,64
 1208 -141 1208 -141 1219 -129.5 c 128,-1,65
 1230 -118 1230 -118 1243 -118 c 0,66,67
 1254 -118 1254 -118 1263 -127.5 c 128,-1,68
 1272 -137 1272 -137 1272 -157 c 0,69,70
 1272 -179 1272 -179 1258.5 -206.5 c 128,-1,71
 1245 -234 1245 -234 1216 -258.5 c 128,-1,72
 1187 -283 1187 -283 1141 -299.5 c 128,-1,73
 1095 -316 1095 -316 1030 -316 c 0,74,75
 910 -316 910 -316 824.5 -267.5 c 128,-1,76
 739 -219 739 -219 677.5 -136.5 c 128,-1,77
 616 -54 616 -54 574.5 54 c 128,-1,78
 533 162 533 162 501 281 c 128,-1,79
 469 400 469 400 441 521.5 c 128,-1,80
 413 643 413 643 380 753 c 1,81,-1
 88 75 l 2,82,83
 85 67 85 67 85 60 c 0,84,85
 85 50 85 50 91 43 c 128,-1,86
 97 36 97 36 106 31.5 c 128,-1,87
 115 27 115 27 125.5 24 c 128,-1,88
 136 21 136 21 145 20 c 0,89,90
 151 19 151 19 156.5 19 c 128,-1,91
 162 19 162 19 172 19 c 0,92,93
 177 19 177 19 177 11 c 0,94,95
 177 7 177 7 174.5 3.5 c 128,-1,96
 172 0 172 0 167 0 c 0,97,98
 163 0 163 0 152 0.5 c 128,-1,99
 141 1 141 1 126 2 c 128,-1,100
 111 3 111 3 93.5 3.5 c 128,-1,101
 76 4 76 4 60 4 c 0,102,103
 48 4 48 4 31 4 c 128,-1,104
 14 4 14 4 -2 3.5 c 128,-1,105
 -18 3 -18 3 -30.5 2.5 c 128,-1,106
 -43 2 -43 2 -46 2 c 0,107,108
 -52 2 -52 2 -52 5 c 128,-1,109
 -52 8 -52 8 -53 11 c 0,110,111
 -53 14 -53 14 -51.5 17.5 c 128,-1,112
 -50 21 -50 21 -45 22 c 0,113,114
 -4 23 -4 23 19 38 c 128,-1,115
 42 53 42 53 62 85 c 1,116,-1
 370 785 l 1,117,118
 343 867 343 867 310 937 c 128,-1,119
 277 1007 277 1007 232.5 1058.5 c 128,-1,120
 188 1110 188 1110 130 1139 c 128,-1,121
 72 1168 72 1168 -4 1168 c 0,0,1
EndSplineSet
EndChar

StartChar: O
Encoding: 79 79 14
Width: 695
Flags: W
LayerCount: 2
Fore
SplineSet
520 638 m 0,0,1
 520 618 520 618 523.5 594.5 c 128,-1,2
 527 571 527 571 530.5 547.5 c 128,-1,3
 534 524 534 524 537.5 502.5 c 128,-1,4
 541 481 541 481 541 465 c 0,5,6
 541 425 541 425 527.5 395 c 128,-1,7
 514 365 514 365 492 344.5 c 128,-1,8
 470 324 470 324 442.5 313.5 c 128,-1,9
 415 303 415 303 388 303 c 0,10,11
 366 303 366 303 345.5 310 c 128,-1,12
 325 317 325 317 309.5 331.5 c 128,-1,13
 294 346 294 346 284.5 367.5 c 128,-1,14
 275 389 275 389 275 419 c 0,15,16
 275 481 275 481 294 539.5 c 128,-1,17
 313 598 313 598 344.5 649.5 c 128,-1,18
 376 701 376 701 417.5 744 c 128,-1,19
 459 787 459 787 504 818 c 128,-1,20
 549 849 549 849 594.5 866.5 c 128,-1,21
 640 884 640 884 680 884 c 0,22,23
 721 884 721 884 750.5 871 c 128,-1,24
 780 858 780 858 799 834.5 c 128,-1,25
 818 811 818 811 827 778.5 c 128,-1,26
 836 746 836 746 836 707 c 0,27,28
 836 640 836 640 811.5 558.5 c 128,-1,29
 787 477 787 477 743.5 394 c 128,-1,30
 700 311 700 311 639.5 233 c 128,-1,31
 579 155 579 155 507 94 c 128,-1,32
 435 33 435 33 354 -3.5 c 128,-1,33
 273 -40 273 -40 188 -40 c 0,34,35
 146 -40 146 -40 110 -26.5 c 128,-1,36
 74 -13 74 -13 47.5 15 c 128,-1,37
 21 43 21 43 6.5 87 c 128,-1,38
 -8 131 -8 131 -8 191 c 0,39,40
 -8 258 -8 258 14 334 c 128,-1,41
 36 410 36 410 75.5 486.5 c 128,-1,42
 115 563 115 563 169.5 635 c 128,-1,43
 224 707 224 707 289.5 766 c 128,-1,44
 355 825 355 825 429.5 865.5 c 128,-1,45
 504 906 504 906 583 920 c 0,46,47
 591 920 591 920 591 914 c 256,48,49
 591 908 591 908 583 906 c 0,50,51
 504 884 504 884 437.5 839.5 c 128,-1,52
 371 795 371 795 317 736.5 c 128,-1,53
 263 678 263 678 221.5 609 c 128,-1,54
 180 540 180 540 152 468.5 c 128,-1,55
 124 397 124 397 110 326.5 c 128,-1,56
 96 256 96 256 96 196 c 0,57,58
 96 151 96 151 104 113 c 128,-1,59
 112 75 112 75 128 48 c 128,-1,60
 144 21 144 21 169 5.5 c 128,-1,61
 194 -10 194 -10 227 -10 c 0,62,63
 291 -10 291 -10 355 26.5 c 128,-1,64
 419 63 419 63 478 122.5 c 128,-1,65
 537 182 537 182 588.5 258 c 128,-1,66
 640 334 640 334 678 414 c 128,-1,67
 716 494 716 494 737.5 571.5 c 128,-1,68
 759 649 759 649 759 710 c 0,69,70
 759 774 759 774 732.5 813.5 c 128,-1,71
 706 853 706 853 646 853 c 0,72,73
 615 853 615 853 580 837 c 128,-1,74
 545 821 545 821 511 792 c 128,-1,75
 477 763 477 763 445 724 c 128,-1,76
 413 685 413 685 389 638.5 c 128,-1,77
 365 592 365 592 350.5 540.5 c 128,-1,78
 336 489 336 489 336 436 c 0,79,80
 336 381 336 381 361.5 352.5 c 128,-1,81
 387 324 387 324 417 324 c 0,82,83
 444 324 444 324 465.5 348.5 c 128,-1,84
 487 373 487 373 487 425 c 0,85,86
 487 460 487 460 479.5 506.5 c 128,-1,87
 472 553 472 553 472 596 c 0,88,89
 472 627 472 627 484 651.5 c 128,-1,90
 496 676 496 676 514 693 c 128,-1,91
 532 710 532 710 553.5 718.5 c 128,-1,92
 575 727 575 727 595 727 c 0,93,94
 617 727 617 727 632 715.5 c 128,-1,95
 647 704 647 704 647 681 c 0,96,97
 647 668 647 668 637.5 656 c 128,-1,98
 628 644 628 644 612 644 c 0,99,100
 604 644 604 644 598 648.5 c 128,-1,101
 592 653 592 653 592 661 c 0,102,103
 592 667 592 667 596 676.5 c 128,-1,104
 600 686 600 686 600 691 c 0,105,106
 600 710 600 710 580 710 c 0,107,108
 571 710 571 710 560.5 705 c 128,-1,109
 550 700 550 700 541 691 c 128,-1,110
 532 682 532 682 526 668.5 c 128,-1,111
 520 655 520 655 520 638 c 0,0,1
EndSplineSet
EndChar

StartChar: P
Encoding: 80 80 15
Width: 501
Flags: W
LayerCount: 2
Fore
SplineSet
359 723 m 0,0,1
 359 735 359 735 343 735 c 0,2,3
 337 735 337 735 333 734 c 0,4,5
 324 734 324 734 324 744 c 0,6,7
 324 752 324 752 332 753 c 0,8,9
 339 755 339 755 359.5 762 c 128,-1,10
 380 769 380 769 400 777 c 256,11,12
 420 785 420 785 443 797 c 128,-1,13
 466 809 466 809 480 820 c 0,14,15
 485 824 485 824 489 824 c 256,16,17
 493 824 493 824 494 821 c 128,-1,18
 495 818 495 818 495 815 c 0,19,20
 495 809 495 809 494 808 c 0,21,22
 484 800 484 800 475 791.5 c 128,-1,23
 466 783 466 783 455 760 c 0,24,25
 449 749 449 749 437 726 c 128,-1,26
 425 703 425 703 404 658.5 c 128,-1,27
 383 614 383 614 351 544.5 c 128,-1,28
 319 475 319 475 274 370 c 1,29,30
 303 361 303 361 331.5 357 c 128,-1,31
 360 353 360 353 386 353 c 0,32,33
 462 353 462 353 524.5 382.5 c 128,-1,34
 587 412 587 412 632 459 c 128,-1,35
 677 506 677 506 701.5 564 c 128,-1,36
 726 622 726 622 726 680 c 0,37,38
 726 726 726 726 708.5 769 c 128,-1,39
 691 812 691 812 654 844.5 c 128,-1,40
 617 877 617 877 558.5 896.5 c 128,-1,41
 500 916 500 916 418 916 c 0,42,43
 335 916 335 916 266.5 900.5 c 128,-1,44
 198 885 198 885 144 859.5 c 128,-1,45
 90 834 90 834 50.5 800.5 c 128,-1,46
 11 767 11 767 -15.5 731 c 128,-1,47
 -42 695 -42 695 -55 659 c 128,-1,48
 -68 623 -68 623 -68 593 c 0,49,50
 -68 552 -68 552 -46.5 526.5 c 128,-1,51
 -25 501 -25 501 18 501 c 0,52,53
 57 501 57 501 87.5 522 c 128,-1,54
 118 543 118 543 135 564 c 0,55,56
 147 579 147 579 163 579 c 0,57,58
 178 579 178 579 178 563 c 0,59,60
 178 545 178 545 162 530 c 128,-1,61
 146 515 146 515 123.5 504.5 c 128,-1,62
 101 494 101 494 76 488.5 c 128,-1,63
 51 483 51 483 33 483 c 0,64,65
 -51 483 -51 483 -90 515.5 c 128,-1,66
 -129 548 -129 548 -129 598 c 256,67,68
 -129 648 -129 648 -90.5 707 c 128,-1,69
 -52 766 -52 766 21.5 816.5 c 128,-1,70
 95 867 95 867 201 900.5 c 128,-1,71
 307 934 307 934 442 934 c 0,72,73
 538 934 538 934 606.5 913.5 c 128,-1,74
 675 893 675 893 718.5 859 c 128,-1,75
 762 825 762 825 782.5 780 c 128,-1,76
 803 735 803 735 803 686 c 0,77,78
 803 624 803 624 773 562 c 128,-1,79
 743 500 743 500 689 449.5 c 128,-1,80
 635 399 635 399 559 367.5 c 128,-1,81
 483 336 483 336 392 336 c 0,82,83
 332 336 332 336 266 351 c 1,84,85
 240 291 240 291 211.5 220.5 c 128,-1,86
 183 150 183 150 148 65 c 0,87,88
 146 60 146 60 145 56.5 c 128,-1,89
 144 53 144 53 144 49 c 0,90,91
 144 35 144 35 155.5 28 c 128,-1,92
 167 21 167 21 184 19 c 0,93,94
 190 18 190 18 195.5 18 c 128,-1,95
 201 18 201 18 211 18 c 0,96,97
 216 18 216 18 216 10 c 0,98,99
 216 6 216 6 213.5 2.5 c 128,-1,100
 211 -1 211 -1 206 -1 c 0,101,102
 202 -1 202 -1 191 -0.5 c 128,-1,103
 180 0 180 0 165 1 c 128,-1,104
 150 2 150 2 132.5 2.5 c 128,-1,105
 115 3 115 3 99 3 c 0,106,107
 87 3 87 3 70 3 c 128,-1,108
 53 3 53 3 37 2.5 c 128,-1,109
 21 2 21 2 8.5 1.5 c 128,-1,110
 -4 1 -4 1 -7 1 c 0,111,112
 -13 1 -13 1 -13 4 c 128,-1,113
 -13 7 -13 7 -14 10 c 0,114,115
 -14 13 -14 13 -12.5 16.5 c 128,-1,116
 -11 20 -11 20 -6 21 c 0,117,118
 14 21 14 21 27.5 25 c 128,-1,119
 41 29 41 29 50.5 36.5 c 128,-1,120
 60 44 60 44 67.5 56 c 128,-1,121
 75 68 75 68 83 85 c 0,122,123
 87 94 87 94 101.5 127 c 128,-1,124
 116 160 116 160 137.5 209.5 c 128,-1,125
 159 259 159 259 186 320.5 c 128,-1,126
 213 382 213 382 242 449 c 128,-1,127
 271 516 271 516 300 583.5 c 128,-1,128
 329 651 329 651 356 712 c 0,129,130
 356 714 356 714 357 716 c 0,131,132
 359 720 359 720 359 723 c 0,0,1
EndSplineSet
EndChar

StartChar: Q
Encoding: 81 81 16
Width: 833
Flags: W
LayerCount: 2
Fore
SplineSet
343 434 m 0,0,1
 343 487 343 487 364.5 530 c 128,-1,2
 386 573 386 573 419 603.5 c 128,-1,3
 452 634 452 634 492 650.5 c 128,-1,4
 532 667 532 667 568 667 c 0,5,6
 613 667 613 667 644.5 639.5 c 128,-1,7
 676 612 676 612 676 552 c 0,8,9
 676 466 676 466 640 399 c 128,-1,10
 604 332 604 332 548.5 286 c 128,-1,11
 493 240 493 240 426 215.5 c 128,-1,12
 359 191 359 191 297 191 c 0,13,14
 243 191 243 191 205 205.5 c 128,-1,15
 167 220 167 220 142.5 245.5 c 128,-1,16
 118 271 118 271 106.5 306 c 128,-1,17
 95 341 95 341 95 382 c 0,18,19
 95 434 95 434 112.5 492.5 c 128,-1,20
 130 551 130 551 162.5 608 c 128,-1,21
 195 665 195 665 240.5 717 c 128,-1,22
 286 769 286 769 341.5 809 c 128,-1,23
 397 849 397 849 460.5 872.5 c 128,-1,24
 524 896 524 896 594 896 c 0,25,26
 671 896 671 896 727 876 c 128,-1,27
 783 856 783 856 819 821.5 c 128,-1,28
 855 787 855 787 872.5 739.5 c 128,-1,29
 890 692 890 692 890 637 c 0,30,31
 890 559 890 559 857 472 c 128,-1,32
 824 385 824 385 762.5 302.5 c 128,-1,33
 701 220 701 220 612.5 148 c 128,-1,34
 524 76 524 76 413 30 c 1,35,36
 475 14 475 14 533.5 2 c 128,-1,37
 592 -10 592 -10 643 -10 c 0,38,39
 677 -10 677 -10 700 -4.5 c 128,-1,40
 723 1 723 1 752 15 c 0,41,42
 765 21 765 21 778 21 c 0,43,44
 792 21 792 21 800 14 c 128,-1,45
 808 7 808 7 808 -3 c 0,46,47
 808 -19 808 -19 781.5 -35 c 128,-1,48
 755 -51 755 -51 690 -51 c 0,49,50
 615 -51 615 -51 536.5 -30.5 c 128,-1,51
 458 -10 458 -10 378 16 c 1,52,53
 311 -8 311 -8 238 -21.5 c 128,-1,54
 165 -35 165 -35 86 -35 c 0,55,56
 -13 -35 -13 -35 -57.5 -18.5 c 128,-1,57
 -102 -2 -102 -2 -102 20 c 0,58,59
 -102 33 -102 33 -87.5 46 c 128,-1,60
 -73 59 -73 59 -45.5 69.5 c 128,-1,61
 -18 80 -18 80 21 86.5 c 128,-1,62
 60 93 60 93 108 93 c 0,63,64
 165 93 165 93 237.5 75.5 c 128,-1,65
 310 58 310 58 386 37 c 1,66,67
 487 80 487 80 564.5 148 c 128,-1,68
 642 216 642 216 694.5 295.5 c 128,-1,69
 747 375 747 375 774 459.5 c 128,-1,70
 801 544 801 544 801 620 c 0,71,72
 801 674 801 674 787 720.5 c 128,-1,73
 773 767 773 767 745 801.5 c 128,-1,74
 717 836 717 836 674.5 855.5 c 128,-1,75
 632 875 632 875 574 875 c 0,76,77
 520 875 520 875 470 852 c 128,-1,78
 420 829 420 829 375.5 790.5 c 128,-1,79
 331 752 331 752 294.5 702 c 128,-1,80
 258 652 258 652 232 597 c 128,-1,81
 206 542 206 542 191.5 486.5 c 128,-1,82
 177 431 177 431 177 382 c 0,83,84
 177 346 177 346 185.5 315 c 128,-1,85
 194 284 194 284 212 261.5 c 128,-1,86
 230 239 230 239 258.5 226.5 c 128,-1,87
 287 214 287 214 326 214 c 0,88,89
 374 214 374 214 425.5 236.5 c 128,-1,90
 477 259 477 259 519.5 300.5 c 128,-1,91
 562 342 562 342 589.5 400.5 c 128,-1,92
 617 459 617 459 617 532 c 0,93,94
 617 591 617 591 593 615.5 c 128,-1,95
 569 640 569 640 537 640 c 0,96,97
 513 640 513 640 487 628.5 c 128,-1,98
 461 617 461 617 440 597 c 128,-1,99
 419 577 419 577 405.5 551 c 128,-1,100
 392 525 392 525 392 496 c 0,101,102
 392 485 392 485 394.5 473.5 c 128,-1,103
 397 462 397 462 404 451 c 0,104,105
 416 430 416 430 416 414 c 256,106,107
 416 398 416 398 406.5 389.5 c 128,-1,108
 397 381 397 381 384 381 c 0,109,110
 369 381 369 381 356 394 c 128,-1,111
 343 407 343 407 343 434 c 0,0,1
96 75 m 0,112,113
 73 75 73 75 51.5 70 c 128,-1,114
 30 65 30 65 13.5 57 c 128,-1,115
 -3 49 -3 49 -13 39.5 c 128,-1,116
 -23 30 -23 30 -23 20 c 0,117,118
 -23 5 -23 5 6 -6.5 c 128,-1,119
 35 -18 35 -18 104 -18 c 256,120,121
 173 -18 173 -18 234.5 -7 c 128,-1,122
 296 4 296 4 353 24 c 1,123,124
 287 44 287 44 222.5 59.5 c 128,-1,125
 158 75 158 75 96 75 c 0,112,113
EndSplineSet
EndChar

StartChar: R
Encoding: 82 82 17
Width: 725
Flags: W
LayerCount: 2
Fore
SplineSet
1249 -97 m 0,0,1
 1214 -97 1214 -97 1185 -112 c 128,-1,2
 1156 -127 1156 -127 1135.5 -150 c 128,-1,3
 1115 -173 1115 -173 1103.5 -201 c 128,-1,4
 1092 -229 1092 -229 1092 -256 c 0,5,6
 1092 -292 1092 -292 1114.5 -318 c 128,-1,7
 1137 -344 1137 -344 1188 -344 c 0,8,9
 1227 -344 1227 -344 1251.5 -326.5 c 128,-1,10
 1276 -309 1276 -309 1286 -281 c 0,11,12
 1289 -273 1289 -273 1296 -269 c 128,-1,13
 1303 -265 1303 -265 1310 -265 c 0,14,15
 1318 -265 1318 -265 1323.5 -269.5 c 128,-1,16
 1329 -274 1329 -274 1329 -282 c 0,17,18
 1329 -300 1329 -300 1316 -315 c 128,-1,19
 1303 -330 1303 -330 1284 -340.5 c 128,-1,20
 1265 -351 1265 -351 1243 -356.5 c 128,-1,21
 1221 -362 1221 -362 1203 -362 c 0,22,23
 1159 -362 1159 -362 1127.5 -351.5 c 128,-1,24
 1096 -341 1096 -341 1075 -324 c 128,-1,25
 1054 -307 1054 -307 1044 -284.5 c 128,-1,26
 1034 -262 1034 -262 1034 -238 c 0,27,28
 1034 -210 1034 -210 1047.5 -181.5 c 128,-1,29
 1061 -153 1061 -153 1087.5 -130.5 c 128,-1,30
 1114 -108 1114 -108 1152.5 -94 c 128,-1,31
 1191 -80 1191 -80 1241 -80 c 0,32,33
 1304 -80 1304 -80 1351.5 -97 c 128,-1,34
 1399 -114 1399 -114 1431 -142.5 c 128,-1,35
 1463 -171 1463 -171 1479 -207.5 c 128,-1,36
 1495 -244 1495 -244 1495 -283 c 0,37,38
 1495 -326 1495 -326 1475 -368.5 c 128,-1,39
 1455 -411 1455 -411 1415.5 -444.5 c 128,-1,40
 1376 -478 1376 -478 1316 -498.5 c 128,-1,41
 1256 -519 1256 -519 1175 -519 c 0,42,43
 1060 -519 1060 -519 972.5 -486 c 128,-1,44
 885 -453 885 -453 818.5 -398 c 128,-1,45
 752 -343 752 -343 704 -270 c 128,-1,46
 656 -197 656 -197 622 -116.5 c 128,-1,47
 588 -36 588 -36 564 47 c 128,-1,48
 540 130 540 130 521.5 205 c 128,-1,49
 503 280 503 280 487.5 342.5 c 128,-1,50
 472 405 472 405 453 444 c 1,51,-1
 437 444 l 2,52,53
 388 444 388 444 365.5 460.5 c 128,-1,54
 343 477 343 477 343 494 c 0,55,56
 343 507 343 507 354 516 c 128,-1,57
 365 525 365 525 387 525 c 0,58,59
 410 525 410 525 429.5 509.5 c 128,-1,60
 449 494 449 494 468 466 c 1,61,62
 530 468 530 468 579 488 c 128,-1,63
 628 508 628 508 661.5 539 c 128,-1,64
 695 570 695 570 713 608.5 c 128,-1,65
 731 647 731 647 731 688 c 0,66,67
 731 730 731 730 711 770.5 c 128,-1,68
 691 811 691 811 648.5 842.5 c 128,-1,69
 606 874 606 874 541 893.5 c 128,-1,70
 476 913 476 913 386 913 c 0,71,72
 257 913 257 913 164 881 c 128,-1,73
 71 849 71 849 11 801 c 128,-1,74
 -49 753 -49 753 -77.5 698 c 128,-1,75
 -106 643 -106 643 -106 597 c 0,76,77
 -106 554 -106 554 -82.5 526 c 128,-1,78
 -59 498 -59 498 -14 498 c 0,79,80
 25 498 25 498 55.5 519 c 128,-1,81
 86 540 86 540 103 561 c 0,82,83
 115 576 115 576 131 576 c 0,84,85
 146 576 146 576 146 560 c 0,86,87
 146 542 146 542 130 527 c 128,-1,88
 114 512 114 512 91.5 501.5 c 128,-1,89
 69 491 69 491 44 485.5 c 128,-1,90
 19 480 19 480 1 480 c 0,91,92
 -77 480 -77 480 -114 514 c 128,-1,93
 -151 548 -151 548 -151 599 c 0,94,95
 -151 649 -151 649 -115.5 707 c 128,-1,96
 -80 765 -80 765 -9.5 814.5 c 128,-1,97
 61 864 61 864 164.5 897 c 128,-1,98
 268 930 268 930 405 930 c 0,99,100
 515 930 515 930 593.5 911 c 128,-1,101
 672 892 672 892 722.5 860.5 c 128,-1,102
 773 829 773 829 796.5 788.5 c 128,-1,103
 820 748 820 748 820 705 c 0,104,105
 820 660 820 660 796.5 616 c 128,-1,106
 773 572 773 572 729 536 c 128,-1,107
 685 500 685 500 622.5 475.5 c 128,-1,108
 560 451 560 451 482 445 c 1,109,110
 508 400 508 400 533.5 335.5 c 128,-1,111
 559 271 559 271 586 196.5 c 128,-1,112
 613 122 613 122 643 41.5 c 128,-1,113
 673 -39 673 -39 710 -116 c 128,-1,114
 747 -193 747 -193 791.5 -262 c 128,-1,115
 836 -331 836 -331 891 -383.5 c 128,-1,116
 946 -436 946 -436 1013 -466.5 c 128,-1,117
 1080 -497 1080 -497 1163 -497 c 0,118,119
 1233 -497 1233 -497 1284 -477.5 c 128,-1,120
 1335 -458 1335 -458 1368 -427 c 128,-1,121
 1401 -396 1401 -396 1417 -357 c 128,-1,122
 1433 -318 1433 -318 1433 -278 c 0,123,124
 1433 -243 1433 -243 1421 -210.5 c 128,-1,125
 1409 -178 1409 -178 1385.5 -152.5 c 128,-1,126
 1362 -127 1362 -127 1328 -112 c 128,-1,127
 1294 -97 1294 -97 1249 -97 c 0,0,1
336 709 m 0,128,129
 339 715 339 715 339 720 c 0,130,131
 339 732 339 732 323 732 c 0,132,133
 317 732 317 732 313 731 c 0,134,135
 304 731 304 731 304 741 c 0,136,137
 304 749 304 749 312 750 c 0,138,139
 319 752 319 752 339.5 759 c 128,-1,140
 360 766 360 766 380 774 c 256,141,142
 400 782 400 782 423 794 c 128,-1,143
 446 806 446 806 460 817 c 0,144,145
 465 821 465 821 469 821 c 256,146,147
 473 821 473 821 474 818 c 128,-1,148
 475 815 475 815 475 812 c 0,149,150
 475 806 475 806 474 805 c 0,151,152
 464 797 464 797 455 788.5 c 128,-1,153
 446 780 446 780 435 757 c 0,154,155
 430 747 430 747 420.5 729 c 128,-1,156
 411 711 411 711 395 678 c 128,-1,157
 379 645 379 645 355.5 595 c 128,-1,158
 332 545 332 545 299.5 471 c 128,-1,159
 267 397 267 397 224.5 296 c 128,-1,160
 182 195 182 195 128 62 c 0,161,162
 126 57 126 57 125 53.5 c 128,-1,163
 124 50 124 50 124 46 c 0,164,165
 124 32 124 32 135.5 25 c 128,-1,166
 147 18 147 18 164 16 c 0,167,168
 170 15 170 15 175.5 15 c 128,-1,169
 181 15 181 15 191 15 c 0,170,171
 196 15 196 15 196 7 c 0,172,173
 196 3 196 3 193.5 -0.5 c 128,-1,174
 191 -4 191 -4 186 -4 c 0,175,176
 182 -4 182 -4 171 -3.5 c 128,-1,177
 160 -3 160 -3 145 -2 c 128,-1,178
 130 -1 130 -1 112.5 -0.5 c 128,-1,179
 95 0 95 0 79 0 c 0,180,181
 67 0 67 0 50 0 c 128,-1,182
 33 0 33 0 17 -0.5 c 128,-1,183
 1 -1 1 -1 -11.5 -1.5 c 128,-1,184
 -24 -2 -24 -2 -27 -2 c 0,185,186
 -33 -2 -33 -2 -33 1 c 128,-1,187
 -33 4 -33 4 -34 7 c 0,188,189
 -34 10 -34 10 -32.5 13.5 c 128,-1,190
 -31 17 -31 17 -26 18 c 0,191,192
 -6 18 -6 18 7.5 22 c 128,-1,193
 21 26 21 26 30.5 33.5 c 128,-1,194
 40 41 40 41 47.5 53 c 128,-1,195
 55 65 55 65 63 82 c 0,196,197
 67 91 67 91 81.5 124 c 128,-1,198
 96 157 96 157 117.5 206.5 c 128,-1,199
 139 256 139 256 166 317.5 c 128,-1,200
 193 379 193 379 222 446 c 128,-1,201
 251 513 251 513 280 580.5 c 128,-1,202
 309 648 309 648 336 709 c 0,128,129
395 498 m 0,203,204
 366 498 366 498 366 488 c 0,205,206
 366 481 366 481 384.5 474 c 128,-1,207
 403 467 403 467 441 466 c 1,208,209
 420 498 420 498 395 498 c 0,203,204
EndSplineSet
EndChar

StartChar: S
Encoding: 83 83 18
Width: 305
Flags: W
LayerCount: 2
Fore
SplineSet
-669 -174 m 0,0,1
 -669 -144 -669 -144 -658.5 -128.5 c 128,-1,2
 -648 -113 -648 -113 -631 -113 c 256,3,4
 -614 -113 -614 -113 -610 -119.5 c 128,-1,5
 -606 -126 -606 -126 -606 -134 c 0,6,7
 -606 -143 -606 -143 -615.5 -167.5 c 128,-1,8
 -625 -192 -625 -192 -625 -225 c 0,9,10
 -625 -243 -625 -243 -618 -256.5 c 128,-1,11
 -611 -270 -611 -270 -599 -279 c 128,-1,12
 -587 -288 -587 -288 -572 -293 c 128,-1,13
 -557 -298 -557 -298 -541 -298 c 0,14,15
 -493 -298 -493 -298 -470.5 -271 c 128,-1,16
 -448 -244 -448 -244 -448 -207 c 0,17,18
 -448 -182 -448 -182 -458 -156.5 c 128,-1,19
 -468 -131 -468 -131 -488 -110 c 128,-1,20
 -508 -89 -508 -89 -537.5 -75.5 c 128,-1,21
 -567 -62 -567 -62 -605 -62 c 0,22,23
 -649 -62 -649 -62 -682 -76 c 128,-1,24
 -715 -90 -715 -90 -738 -113.5 c 128,-1,25
 -761 -137 -761 -137 -772.5 -167 c 128,-1,26
 -784 -197 -784 -197 -784 -229 c 0,27,28
 -784 -279 -784 -279 -767.5 -316.5 c 128,-1,29
 -751 -354 -751 -354 -722.5 -379 c 128,-1,30
 -694 -404 -694 -404 -655 -416 c 128,-1,31
 -616 -428 -616 -428 -571 -428 c 0,32,33
 -508 -428 -508 -428 -437 -405 c 128,-1,34
 -366 -382 -366 -382 -297 -336 c 0,35,36
 -216 -282 -216 -282 -151.5 -214 c 128,-1,37
 -87 -146 -87 -146 -34 -68.5 c 128,-1,38
 19 9 19 9 62.5 92 c 128,-1,39
 106 175 106 175 146.5 259.5 c 128,-1,40
 187 344 187 344 226 426.5 c 128,-1,41
 265 509 265 509 308 584.5 c 128,-1,42
 351 660 351 660 400.5 725.5 c 128,-1,43
 450 791 450 791 512 842 c 256,44,45
 574 893 574 893 645.5 921.5 c 128,-1,46
 717 950 717 950 803 950 c 0,47,48
 854 950 854 950 888.5 938 c 128,-1,49
 923 926 923 926 944.5 908 c 128,-1,50
 966 890 966 890 975 869.5 c 128,-1,51
 984 849 984 849 984 832 c 256,52,53
 984 815 984 815 977 804.5 c 128,-1,54
 970 794 970 794 959 794 c 0,55,56
 945 794 945 794 935.5 808 c 128,-1,57
 926 822 926 822 924 833 c 0,58,59
 919 852 919 852 909 869.5 c 128,-1,60
 899 887 899 887 882.5 900.5 c 128,-1,61
 866 914 866 914 842.5 922.5 c 128,-1,62
 819 931 819 931 786 931 c 0,63,64
 709 931 709 931 648.5 900.5 c 128,-1,65
 588 870 588 870 536 816 c 0,66,67
 488 765 488 765 449.5 700 c 128,-1,68
 411 635 411 635 376 560.5 c 128,-1,69
 341 486 341 486 307 404 c 128,-1,70
 273 322 273 322 233.5 238 c 128,-1,71
 194 154 194 154 146.5 69.5 c 128,-1,72
 99 -15 99 -15 36.5 -94 c 128,-1,73
 -26 -173 -26 -173 -105.5 -245.5 c 128,-1,74
 -185 -318 -185 -318 -288 -378 c 0,75,76
 -355 -417 -355 -417 -431.5 -438 c 128,-1,77
 -508 -459 -508 -459 -580 -459 c 0,78,79
 -633 -459 -633 -459 -680 -447 c 128,-1,80
 -727 -435 -727 -435 -762 -409 c 128,-1,81
 -797 -383 -797 -383 -817.5 -343 c 128,-1,82
 -838 -303 -838 -303 -838 -247 c 0,83,84
 -838 -209 -838 -209 -822.5 -172 c 128,-1,85
 -807 -135 -807 -135 -776 -106.5 c 128,-1,86
 -745 -78 -745 -78 -699 -60.5 c 128,-1,87
 -653 -43 -653 -43 -592 -43 c 0,88,89
 -544 -43 -544 -43 -509 -55.5 c 128,-1,90
 -474 -68 -474 -68 -451 -88.5 c 128,-1,91
 -428 -109 -428 -109 -416.5 -135 c 128,-1,92
 -405 -161 -405 -161 -405 -188 c 0,93,94
 -405 -212 -405 -212 -414 -234.5 c 128,-1,95
 -423 -257 -423 -257 -441 -274.5 c 128,-1,96
 -459 -292 -459 -292 -485.5 -302.5 c 128,-1,97
 -512 -313 -512 -313 -547 -313 c 0,98,99
 -570 -313 -570 -313 -592 -305 c 128,-1,100
 -614 -297 -614 -297 -631 -280.5 c 128,-1,101
 -648 -264 -648 -264 -658.5 -237.5 c 128,-1,102
 -669 -211 -669 -211 -669 -174 c 0,0,1
EndSplineSet
EndChar

StartChar: T
Encoding: 84 84 19
Width: 302
Flags: W
LayerCount: 2
Fore
SplineSet
103 659 m 0,0,1
 103 681 103 681 94 696 c 0,2,3
 88 706 88 706 88 715 c 256,4,5
 88 724 88 724 94.5 728.5 c 128,-1,6
 101 733 101 733 109 733 c 0,7,8
 127 733 127 733 136.5 718 c 128,-1,9
 146 703 146 703 146 678 c 0,10,11
 146 652 146 652 135.5 617.5 c 128,-1,12
 125 583 125 583 103.5 547 c 128,-1,13
 82 511 82 511 50 476 c 128,-1,14
 18 441 18 441 -25 414 c 128,-1,15
 -68 387 -68 387 -122.5 370 c 128,-1,16
 -177 353 -177 353 -242 353 c 0,17,18
 -285 353 -285 353 -316.5 364 c 128,-1,19
 -348 375 -348 375 -369 394.5 c 128,-1,20
 -390 414 -390 414 -400 440.5 c 128,-1,21
 -410 467 -410 467 -410 498 c 0,22,23
 -410 541 -410 541 -391 591 c 128,-1,24
 -372 641 -372 641 -335 690 c 128,-1,25
 -298 739 -298 739 -244 784 c 128,-1,26
 -190 829 -190 829 -119.5 863.5 c 128,-1,27
 -49 898 -49 898 37 918.5 c 128,-1,28
 123 939 123 939 223 939 c 0,29,30
 305 939 305 939 381.5 927.5 c 128,-1,31
 458 916 458 916 536 902 c 128,-1,32
 614 888 614 888 698 876.5 c 128,-1,33
 782 865 782 865 880 865 c 0,34,35
 916 865 916 865 947 867 c 128,-1,36
 978 869 978 869 1000.5 875 c 128,-1,37
 1023 881 1023 881 1037.5 892 c 128,-1,38
 1052 903 1052 903 1055 920 c 0,39,40
 1057 931 1057 931 1063 936 c 128,-1,41
 1069 941 1069 941 1076 941 c 0,42,43
 1084 941 1084 941 1090 935.5 c 128,-1,44
 1096 930 1096 930 1096 919 c 0,45,46
 1096 907 1096 907 1080 891 c 128,-1,47
 1064 875 1064 875 1021 861 c 128,-1,48
 978 847 978 847 904 837.5 c 128,-1,49
 830 828 830 828 715 828 c 0,50,51
 673 828 673 828 611.5 832.5 c 128,-1,52
 550 837 550 837 479 844 c 1,53,54
 441 764 441 764 353.5 571 c 128,-1,55
 266 378 266 378 139 62 c 0,56,57
 137 57 137 57 136 53.5 c 128,-1,58
 135 50 135 50 135 46 c 0,59,60
 135 32 135 32 146.5 25 c 128,-1,61
 158 18 158 18 175 16 c 0,62,63
 181 15 181 15 186.5 15 c 128,-1,64
 192 15 192 15 202 15 c 0,65,66
 207 15 207 15 207 7 c 0,67,68
 207 3 207 3 204.5 -0.5 c 128,-1,69
 202 -4 202 -4 197 -4 c 0,70,71
 193 -4 193 -4 182 -3.5 c 128,-1,72
 171 -3 171 -3 156 -2 c 128,-1,73
 141 -1 141 -1 123.5 -0.5 c 128,-1,74
 106 0 106 0 90 0 c 0,75,76
 78 0 78 0 61 0 c 128,-1,77
 44 0 44 0 28 -0.5 c 128,-1,78
 12 -1 12 -1 -0.5 -1.5 c 128,-1,79
 -13 -2 -13 -2 -16 -2 c 0,80,81
 -22 -2 -22 -2 -22 1 c 128,-1,82
 -22 4 -22 4 -23 7 c 0,83,84
 -23 10 -23 10 -21.5 13.5 c 128,-1,85
 -20 17 -20 17 -15 18 c 0,86,87
 5 18 5 18 18.5 22 c 128,-1,88
 32 26 32 26 41.5 33.5 c 128,-1,89
 51 41 51 41 58.5 53 c 128,-1,90
 66 65 66 65 74 82 c 0,91,92
 78 90 78 90 97 133.5 c 128,-1,93
 116 177 116 177 144 241.5 c 128,-1,94
 172 306 172 306 207 386 c 128,-1,95
 242 466 242 466 278 549 c 128,-1,96
 314 632 314 632 348 710.5 c 128,-1,97
 382 789 382 789 409 851 c 1,98,99
 324 859 324 859 243.5 866 c 128,-1,100
 163 873 163 873 102 873 c 0,101,102
 27 873 27 873 -35 857 c 128,-1,103
 -97 841 -97 841 -146.5 814 c 128,-1,104
 -196 787 -196 787 -233 751.5 c 128,-1,105
 -270 716 -270 716 -294.5 676.5 c 128,-1,106
 -319 637 -319 637 -331 597 c 128,-1,107
 -343 557 -343 557 -343 520 c 0,108,109
 -343 489 -343 489 -334.5 462.5 c 128,-1,110
 -326 436 -326 436 -309.5 416.5 c 128,-1,111
 -293 397 -293 397 -267.5 386 c 128,-1,112
 -242 375 -242 375 -209 375 c 0,113,114
 -159 375 -159 375 -104 396.5 c 128,-1,115
 -49 418 -49 418 -3 456 c 128,-1,116
 43 494 43 494 73 546 c 128,-1,117
 103 598 103 598 103 659 c 0,0,1
EndSplineSet
EndChar

StartChar: U
Encoding: 85 85 20
Width: 648
Flags: W
LayerCount: 2
Fore
SplineSet
742 724 m 0,0,1
 742 736 742 736 726 736 c 0,2,3
 720 736 720 736 716 735 c 0,4,5
 707 735 707 735 707 745 c 0,6,7
 707 753 707 753 715 754 c 0,8,9
 722 756 722 756 742.5 763 c 128,-1,10
 763 770 763 770 783 778 c 256,11,12
 803 786 803 786 826 798 c 128,-1,13
 849 810 849 810 863 821 c 0,14,15
 868 825 868 825 872 825 c 256,16,17
 876 825 876 825 877 822 c 128,-1,18
 878 819 878 819 878 816 c 0,19,20
 878 810 878 810 877 809 c 0,21,22
 867 801 867 801 858 792.5 c 128,-1,23
 849 784 849 784 838 761 c 0,24,25
 832 748 832 748 817.5 719 c 128,-1,26
 803 690 803 690 776 631 c 128,-1,27
 749 572 749 572 706.5 476.5 c 128,-1,28
 664 381 664 381 601 236 c 0,29,30
 591 213 591 213 573.5 177 c 128,-1,31
 556 141 556 141 538.5 97 c 128,-1,32
 521 53 521 53 508 5 c 128,-1,33
 495 -43 495 -43 495 -90 c 0,34,35
 495 -117 495 -117 505 -138.5 c 128,-1,36
 515 -160 515 -160 530.5 -174 c 128,-1,37
 546 -188 546 -188 565.5 -195.5 c 128,-1,38
 585 -203 585 -203 604 -203 c 0,39,40
 627 -203 627 -203 646 -191.5 c 128,-1,41
 665 -180 665 -180 673 -157 c 0,42,43
 678 -143 678 -143 686.5 -137 c 128,-1,44
 695 -131 695 -131 703 -131 c 256,45,46
 711 -131 711 -131 716 -136 c 128,-1,47
 721 -141 721 -141 721 -149 c 0,48,49
 721 -164 721 -164 712 -177 c 128,-1,50
 703 -190 703 -190 687.5 -199.5 c 128,-1,51
 672 -209 672 -209 652 -214 c 128,-1,52
 632 -219 632 -219 610 -219 c 0,53,54
 582 -219 582 -219 554 -209.5 c 128,-1,55
 526 -200 526 -200 503 -178 c 128,-1,56
 480 -156 480 -156 465.5 -121.5 c 128,-1,57
 451 -87 451 -87 451 -36 c 0,58,59
 451 2 451 2 461 48.5 c 128,-1,60
 471 95 471 95 494 152 c 1,61,62
 488 152 488 152 485 148 c 0,63,64
 456 112 456 112 420 81 c 128,-1,65
 384 50 384 50 345 26.5 c 128,-1,66
 306 3 306 3 266.5 -10 c 128,-1,67
 227 -23 227 -23 193 -23 c 0,68,69
 167 -23 167 -23 145.5 -15 c 128,-1,70
 124 -7 124 -7 108 10.5 c 128,-1,71
 92 28 92 28 83 56 c 128,-1,72
 74 84 74 84 74 124 c 0,73,74
 74 155 74 155 87.5 198 c 128,-1,75
 101 241 101 241 123 291.5 c 128,-1,76
 145 342 145 342 173.5 396.5 c 128,-1,77
 202 451 202 451 231 505.5 c 128,-1,78
 260 560 260 560 288.5 611.5 c 128,-1,79
 317 663 317 663 339 707 c 128,-1,80
 361 751 361 751 374.5 784.5 c 128,-1,81
 388 818 388 818 388 837 c 0,82,83
 388 879 388 879 359.5 899.5 c 128,-1,84
 331 920 331 920 286 920 c 0,85,86
 239 920 239 920 182 897.5 c 128,-1,87
 125 875 125 875 76 831.5 c 128,-1,88
 27 788 27 788 -6 725.5 c 128,-1,89
 -39 663 -39 663 -39 582 c 0,90,91
 -39 534 -39 534 -20 512.5 c 128,-1,92
 -1 491 -1 491 25 491 c 0,93,94
 42 491 42 491 60 500 c 128,-1,95
 78 509 78 509 92.5 525 c 128,-1,96
 107 541 107 541 116.5 563.5 c 128,-1,97
 126 586 126 586 126 613 c 0,98,99
 126 628 126 628 135 637.5 c 128,-1,100
 144 647 144 647 154 647 c 0,101,102
 161 647 161 647 166 641.5 c 128,-1,103
 171 636 171 636 171 623 c 0,104,105
 171 588 171 588 154.5 559 c 128,-1,106
 138 530 138 530 112 509.5 c 128,-1,107
 86 489 86 489 54.5 478 c 128,-1,108
 23 467 23 467 -7 467 c 0,109,110
 -48 467 -48 467 -77.5 490 c 128,-1,111
 -107 513 -107 513 -107 564 c 0,112,113
 -107 621 -107 621 -87.5 671 c 128,-1,114
 -68 721 -68 721 -35 763.5 c 128,-1,115
 -2 806 -2 806 40.5 839 c 128,-1,116
 83 872 83 872 129.5 895.5 c 128,-1,117
 176 919 176 919 223 931 c 128,-1,118
 270 943 270 943 311 943 c 0,119,120
 370 943 370 943 408.5 916.5 c 128,-1,121
 447 890 447 890 447 833 c 0,122,123
 447 787 447 787 425.5 728.5 c 128,-1,124
 404 670 404 670 372 606 c 128,-1,125
 340 542 340 542 302.5 475 c 128,-1,126
 265 408 265 408 233 344.5 c 128,-1,127
 201 281 201 281 179.5 224 c 128,-1,128
 158 167 158 167 158 123 c 0,129,130
 158 72 158 72 182 48.5 c 128,-1,131
 206 25 206 25 244 25 c 0,132,133
 276 25 276 25 315.5 41 c 128,-1,134
 355 57 355 57 395.5 88 c 128,-1,135
 436 119 436 119 475 164 c 128,-1,136
 514 209 514 209 545 266 c 1,137,138
 566 315 566 315 590 371 c 128,-1,139
 614 427 614 427 639.5 485.5 c 128,-1,140
 665 544 665 544 690.5 602 c 128,-1,141
 716 660 716 660 739 713 c 0,142,143
 739 715 739 715 740 717 c 0,144,145
 742 721 742 721 742 724 c 0,0,1
EndSplineSet
EndChar

StartChar: V
Encoding: 86 86 21
Width: 460
Flags: W
LayerCount: 2
Fore
SplineSet
-69 910 m 0,0,1
 -134 910 -134 910 -181.5 886.5 c 128,-1,2
 -229 863 -229 863 -260.5 826 c 128,-1,3
 -292 789 -292 789 -307 742.5 c 128,-1,4
 -322 696 -322 696 -322 651 c 0,5,6
 -322 616 -322 616 -313 584 c 128,-1,7
 -304 552 -304 552 -286.5 527.5 c 128,-1,8
 -269 503 -269 503 -243 488.5 c 128,-1,9
 -217 474 -217 474 -183 474 c 0,10,11
 -146 474 -146 474 -120 485 c 128,-1,12
 -94 496 -94 496 -77.5 512.5 c 128,-1,13
 -61 529 -61 529 -53.5 549 c 128,-1,14
 -46 569 -46 569 -46 588 c 0,15,16
 -46 610 -46 610 -55 625 c 0,17,18
 -61 635 -61 635 -61 644 c 256,19,20
 -61 653 -61 653 -54.5 657.5 c 128,-1,21
 -48 662 -48 662 -40 662 c 0,22,23
 -23 662 -23 662 -15 650 c 128,-1,24
 -7 638 -7 638 -7 619 c 0,25,26
 -7 596 -7 596 -19 568 c 128,-1,27
 -31 540 -31 540 -54.5 515 c 128,-1,28
 -78 490 -78 490 -113 473 c 128,-1,29
 -148 456 -148 456 -195 456 c 0,30,31
 -243 456 -243 456 -278.5 471.5 c 128,-1,32
 -314 487 -314 487 -338 513 c 128,-1,33
 -362 539 -362 539 -374 573 c 128,-1,34
 -386 607 -386 607 -386 645 c 0,35,36
 -386 694 -386 694 -365.5 744.5 c 128,-1,37
 -345 795 -345 795 -303.5 835.5 c 128,-1,38
 -262 876 -262 876 -200.5 902 c 128,-1,39
 -139 928 -139 928 -56 928 c 0,40,41
 35 928 35 928 92.5 892 c 128,-1,42
 150 856 150 856 181.5 795 c 128,-1,43
 213 734 213 734 224.5 653 c 128,-1,44
 236 572 236 572 236 482 c 0,45,46
 236 377 236 377 227.5 269 c 128,-1,47
 219 161 219 161 216 63 c 0,48,49
 216 61 216 61 217 59 c 0,50,51
 219 55 219 55 222 55 c 0,52,53
 322 200 322 200 421.5 335.5 c 128,-1,54
 521 471 521 471 620 589 c 128,-1,55
 719 707 719 707 819 804.5 c 128,-1,56
 919 902 919 902 1020.5 971.5 c 128,-1,57
 1122 1041 1122 1041 1225.5 1079.5 c 128,-1,58
 1329 1118 1329 1118 1436 1118 c 0,59,60
 1471 1118 1471 1118 1497.5 1108.5 c 128,-1,61
 1524 1099 1524 1099 1542 1083 c 128,-1,62
 1560 1067 1560 1067 1569.5 1047.5 c 128,-1,63
 1579 1028 1579 1028 1579 1007 c 0,64,65
 1579 975 1579 975 1566 952 c 128,-1,66
 1553 929 1553 929 1532 913 c 128,-1,67
 1511 897 1511 897 1485 889.5 c 128,-1,68
 1459 882 1459 882 1434 882 c 0,69,70
 1396 882 1396 882 1367.5 899 c 128,-1,71
 1339 916 1339 916 1339 950 c 0,72,73
 1339 961 1339 961 1345.5 968 c 128,-1,74
 1352 975 1352 975 1365 975 c 0,75,76
 1372 975 1372 975 1378.5 971.5 c 128,-1,77
 1385 968 1385 968 1387 960 c 0,78,79
 1396 929 1396 929 1414.5 914.5 c 128,-1,80
 1433 900 1433 900 1454 900 c 0,81,82
 1469 900 1469 900 1483 907 c 128,-1,83
 1497 914 1497 914 1508.5 927 c 128,-1,84
 1520 940 1520 940 1527 958.5 c 128,-1,85
 1534 977 1534 977 1534 1001 c 0,86,87
 1534 1019 1534 1019 1527 1036 c 128,-1,88
 1520 1053 1520 1053 1505 1066.5 c 128,-1,89
 1490 1080 1490 1080 1467.5 1088.5 c 128,-1,90
 1445 1097 1445 1097 1415 1097 c 0,91,92
 1363 1097 1363 1097 1297 1080 c 128,-1,93
 1231 1063 1231 1063 1148.5 1017 c 128,-1,94
 1066 971 1066 971 965.5 890 c 128,-1,95
 865 809 865 809 744.5 681 c 128,-1,96
 624 553 624 553 481.5 372 c 128,-1,97
 339 191 339 191 172 -55 c 0,98,99
 169 -59 169 -59 159 -64 c 128,-1,100
 149 -69 149 -69 141 -69 c 0,101,102
 129 -69 129 -69 129 -57 c 0,103,104
 129 -54 129 -54 131 -46 c 0,105,106
 134 -34 134 -34 137.5 -3 c 128,-1,107
 141 28 141 28 143 69 c 0,108,109
 144 102 144 102 147 144.5 c 128,-1,110
 150 187 150 187 153 235.5 c 128,-1,111
 156 284 156 284 158.5 336 c 128,-1,112
 161 388 161 388 161 441 c 0,113,114
 161 529 161 529 152 613 c 128,-1,115
 143 697 143 697 117.5 763 c 128,-1,116
 92 829 92 829 47.5 869.5 c 128,-1,117
 3 910 3 910 -69 910 c 0,0,1
EndSplineSet
EndChar

StartChar: W
Encoding: 87 87 22
Width: 857
Flags: W
LayerCount: 2
Fore
SplineSet
1434 892 m 0,0,1
 1365 892 1365 892 1299.5 877.5 c 128,-1,2
 1234 863 1234 863 1173.5 837.5 c 128,-1,3
 1113 812 1113 812 1057.5 776.5 c 128,-1,4
 1002 741 1002 741 952 699 c 1,5,6
 952 691 952 691 952.5 682 c 128,-1,7
 953 673 953 673 953 669 c 0,8,9
 953 602 953 602 937 523 c 128,-1,10
 921 444 921 444 892.5 364.5 c 128,-1,11
 864 285 864 285 825.5 211 c 128,-1,12
 787 137 787 137 742.5 80 c 128,-1,13
 698 23 698 23 649.5 -11 c 128,-1,14
 601 -45 601 -45 553 -45 c 0,15,16
 516 -45 516 -45 499 -22 c 128,-1,17
 482 1 482 1 482 42 c 0,18,19
 482 95 482 95 510 171.5 c 128,-1,20
 538 248 538 248 589.5 333.5 c 128,-1,21
 641 419 641 419 713.5 507 c 128,-1,22
 786 595 786 595 876 672 c 1,23,24
 874 749 874 749 852.5 797 c 128,-1,25
 831 845 831 845 785 845 c 0,26,27
 724 845 724 845 658 808 c 128,-1,28
 592 771 592 771 526 711 c 1,29,30
 529 693 529 693 531 674 c 128,-1,31
 533 655 533 655 533 635 c 0,32,33
 533 565 533 565 515.5 487.5 c 128,-1,34
 498 410 498 410 467 335 c 128,-1,35
 436 260 436 260 395.5 192.5 c 128,-1,36
 355 125 355 125 308 74 c 128,-1,37
 261 23 261 23 211.5 -7.5 c 128,-1,38
 162 -38 162 -38 114 -38 c 0,39,40
 81 -38 81 -38 66 -19 c 128,-1,41
 51 0 51 0 51 34 c 0,42,43
 51 85 51 85 83 163.5 c 128,-1,44
 115 242 115 242 169 330.5 c 128,-1,45
 223 419 223 419 295.5 509.5 c 128,-1,46
 368 600 368 600 449 675 c 1,47,48
 445 723 445 723 432 764 c 128,-1,49
 419 805 419 805 396 835 c 128,-1,50
 373 865 373 865 339.5 882 c 128,-1,51
 306 899 306 899 261 899 c 0,52,53
 188 899 188 899 130.5 867 c 128,-1,54
 73 835 73 835 33 786.5 c 128,-1,55
 -7 738 -7 738 -28 681 c 128,-1,56
 -49 624 -49 624 -49 574 c 0,57,58
 -49 547 -49 547 -42.5 523 c 128,-1,59
 -36 499 -36 499 -22.5 481.5 c 128,-1,60
 -9 464 -9 464 11 454 c 128,-1,61
 31 444 31 444 59 444 c 0,62,63
 83 444 83 444 105.5 453.5 c 128,-1,64
 128 463 128 463 146 481 c 128,-1,65
 164 499 164 499 175 524.5 c 128,-1,66
 186 550 186 550 187 582 c 0,67,68
 188 598 188 598 196.5 606 c 128,-1,69
 205 614 205 614 215 614 c 0,70,71
 223 614 223 614 228.5 609 c 128,-1,72
 234 604 234 604 235 593 c 0,73,74
 235 559 235 559 216.5 528 c 128,-1,75
 198 497 198 497 168.5 473 c 128,-1,76
 139 449 139 449 102 434.5 c 128,-1,77
 65 420 65 420 28 420 c 0,78,79
 -4 420 -4 420 -28 432 c 128,-1,80
 -52 444 -52 444 -68 464.5 c 128,-1,81
 -84 485 -84 485 -92 513 c 128,-1,82
 -100 541 -100 541 -100 573 c 0,83,84
 -100 628 -100 628 -76.5 689 c 128,-1,85
 -53 750 -53 750 -7 801 c 128,-1,86
 39 852 39 852 108 885.5 c 128,-1,87
 177 919 177 919 268 919 c 0,88,89
 324 919 324 919 366.5 905.5 c 128,-1,90
 409 892 409 892 440 868 c 128,-1,91
 471 844 471 844 491 810.5 c 128,-1,92
 511 777 511 777 521 737 c 1,93,94
 596 797 596 797 672 832.5 c 128,-1,95
 748 868 748 868 819 868 c 0,96,97
 877 868 877 868 908 830.5 c 128,-1,98
 939 793 939 793 949 730 c 1,99,100
 1057 809 1057 809 1180 858.5 c 128,-1,101
 1303 908 1303 908 1438 908 c 0,102,103
 1505 908 1505 908 1550.5 895.5 c 128,-1,104
 1596 883 1596 883 1623.5 862.5 c 128,-1,105
 1651 842 1651 842 1663 817 c 128,-1,106
 1675 792 1675 792 1675 768 c 0,107,108
 1675 749 1675 749 1668.5 731.5 c 128,-1,109
 1662 714 1662 714 1651.5 700.5 c 128,-1,110
 1641 687 1641 687 1627.5 679 c 128,-1,111
 1614 671 1614 671 1599 671 c 0,112,113
 1585 671 1585 671 1578 678 c 128,-1,114
 1571 685 1571 685 1571 694 c 256,115,116
 1571 703 1571 703 1577.5 710.5 c 128,-1,117
 1584 718 1584 718 1598 720 c 0,118,119
 1624 722 1624 722 1638.5 737 c 128,-1,120
 1653 752 1653 752 1653 773 c 0,121,122
 1653 792 1653 792 1640.5 813 c 128,-1,123
 1628 834 1628 834 1601 851.5 c 128,-1,124
 1574 869 1574 869 1532.5 880.5 c 128,-1,125
 1491 892 1491 892 1434 892 c 0,0,1
109 27 m 256,126,127
 109 -13 109 -13 138 -13 c 0,128,129
 176 -13 176 -13 214 15.5 c 128,-1,130
 252 44 252 44 287 92.5 c 128,-1,131
 322 141 322 141 352 205 c 128,-1,132
 382 269 382 269 404 339.5 c 128,-1,133
 426 410 426 410 438.5 483.5 c 128,-1,134
 451 557 451 557 451 624 c 2,135,-1
 451 635 l 1,136,137
 381 558 381 558 319 468.5 c 128,-1,138
 257 379 257 379 210.5 294 c 128,-1,139
 164 209 164 209 136.5 138 c 128,-1,140
 109 67 109 67 109 27 c 256,126,127
544 30 m 0,141,142
 544 -20 544 -20 574 -20 c 0,143,144
 611 -20 611 -20 647 10 c 128,-1,145
 683 40 683 40 715.5 91 c 128,-1,146
 748 142 748 142 776 208 c 128,-1,147
 804 274 804 274 825 346 c 128,-1,148
 846 418 846 418 859 491 c 128,-1,149
 872 564 872 564 875 628 c 1,150,151
 797 549 797 549 735.5 461.5 c 128,-1,152
 674 374 674 374 631.5 292 c 128,-1,153
 589 210 589 210 566.5 141 c 128,-1,154
 544 72 544 72 544 30 c 0,141,142
EndSplineSet
EndChar

StartChar: X
Encoding: 88 88 23
Width: 1158
Flags: W
LayerCount: 2
Fore
SplineSet
1411 1050 m 0,0,1
 1485 1050 1485 1050 1517 1026 c 128,-1,2
 1549 1002 1549 1002 1549 968 c 0,3,4
 1549 928 1549 928 1524 891.5 c 128,-1,5
 1499 855 1499 855 1461 827 c 128,-1,6
 1423 799 1423 799 1379 782.5 c 128,-1,7
 1335 766 1335 766 1297 766 c 256,8,9
 1259 766 1259 766 1233 785.5 c 128,-1,10
 1207 805 1207 805 1207 850 c 0,11,12
 1207 863 1207 863 1211 877.5 c 128,-1,13
 1215 892 1215 892 1222 904 c 128,-1,14
 1229 916 1229 916 1239 924 c 128,-1,15
 1249 932 1249 932 1262 932 c 256,16,17
 1275 932 1275 932 1279.5 928.5 c 128,-1,18
 1284 925 1284 925 1284 919 c 0,19,20
 1284 911 1284 911 1280.5 902.5 c 128,-1,21
 1277 894 1277 894 1272.5 884 c 128,-1,22
 1268 874 1268 874 1264.5 862 c 128,-1,23
 1261 850 1261 850 1261 836 c 0,24,25
 1261 809 1261 809 1275.5 797 c 128,-1,26
 1290 785 1290 785 1313 785 c 0,27,28
 1338 785 1338 785 1368 798 c 128,-1,29
 1398 811 1398 811 1424 834 c 128,-1,30
 1450 857 1450 857 1467.5 888.5 c 128,-1,31
 1485 920 1485 920 1485 956 c 0,32,33
 1485 987 1485 987 1465 1008 c 128,-1,34
 1445 1029 1445 1029 1398 1029 c 0,35,36
 1331 1029 1331 1029 1268.5 1006.5 c 128,-1,37
 1206 984 1206 984 1149.5 945 c 128,-1,38
 1093 906 1093 906 1043 852.5 c 128,-1,39
 993 799 993 799 951 737.5 c 128,-1,40
 909 676 909 676 875.5 609 c 128,-1,41
 842 542 842 542 819 475 c 1,42,-1
 885 475 l 2,43,44
 892 475 892 475 897.5 469 c 128,-1,45
 903 463 903 463 903 456 c 0,46,47
 903 444 903 444 885 444 c 2,48,-1
 809 444 l 1,49,50
 790 385 790 385 780.5 329 c 128,-1,51
 771 273 771 273 771 224 c 0,52,53
 771 178 771 178 780 139.5 c 128,-1,54
 789 101 789 101 807.5 73 c 128,-1,55
 826 45 826 45 855 29.5 c 128,-1,56
 884 14 884 14 924 14 c 0,57,58
 971 14 971 14 1006 30 c 128,-1,59
 1041 46 1041 46 1064.5 70 c 128,-1,60
 1088 94 1088 94 1099.5 122 c 128,-1,61
 1111 150 1111 150 1111 173 c 0,62,63
 1111 195 1111 195 1100.5 209.5 c 128,-1,64
 1090 224 1090 224 1069 224 c 0,65,66
 1058 224 1058 224 1046 220.5 c 128,-1,67
 1034 217 1034 217 1020 206 c 0,68,69
 999 189 999 189 984 189 c 0,70,71
 974 189 974 189 969 195 c 128,-1,72
 964 201 964 201 964 209 c 0,73,74
 964 224 964 224 981.5 240.5 c 128,-1,75
 999 257 999 257 1037 257 c 0,76,77
 1085 257 1085 257 1107 231.5 c 128,-1,78
 1129 206 1129 206 1129 169 c 0,79,80
 1129 137 1129 137 1113 101 c 128,-1,81
 1097 65 1097 65 1066.5 34.5 c 128,-1,82
 1036 4 1036 4 992.5 -16 c 128,-1,83
 949 -36 949 -36 894 -36 c 0,84,85
 842 -36 842 -36 804.5 -19 c 128,-1,86
 767 -2 767 -2 743 28 c 128,-1,87
 719 58 719 58 708 99.5 c 128,-1,88
 697 141 697 141 697 191 c 0,89,90
 697 237 697 237 706 290 c 1,91,92
 665 223 665 223 612 164 c 128,-1,93
 559 105 559 105 495.5 60.5 c 128,-1,94
 432 16 432 16 359 -10 c 128,-1,95
 286 -36 286 -36 205 -36 c 0,96,97
 146 -36 146 -36 103 -20.5 c 128,-1,98
 60 -5 60 -5 31 20.5 c 128,-1,99
 2 46 2 46 -12 79.5 c 128,-1,100
 -26 113 -26 113 -26 149 c 0,101,102
 -26 191 -26 191 -7.5 232.5 c 128,-1,103
 11 274 11 274 48 307 c 128,-1,104
 85 340 85 340 139 360.5 c 128,-1,105
 193 381 193 381 265 381 c 0,106,107
 308 381 308 381 339 370.5 c 128,-1,108
 370 360 370 360 390.5 342 c 128,-1,109
 411 324 411 324 420.5 301 c 128,-1,110
 430 278 430 278 430 254 c 0,111,112
 430 227 430 227 419 200.5 c 128,-1,113
 408 174 408 174 387 153.5 c 128,-1,114
 366 133 366 133 335.5 120 c 128,-1,115
 305 107 305 107 266 107 c 0,116,117
 228 107 228 107 202 126.5 c 128,-1,118
 176 146 176 146 176 191 c 0,119,120
 176 204 176 204 180 218.5 c 128,-1,121
 184 233 184 233 191 245 c 128,-1,122
 198 257 198 257 208 265 c 128,-1,123
 218 273 218 273 231 273 c 256,124,125
 244 273 244 273 248.5 269.5 c 128,-1,126
 253 266 253 266 253 260 c 0,127,128
 253 252 253 252 249.5 243.5 c 128,-1,129
 246 235 246 235 241.5 225 c 128,-1,130
 237 215 237 215 233.5 203 c 128,-1,131
 230 191 230 191 230 177 c 0,132,133
 230 150 230 150 244.5 138 c 128,-1,134
 259 126 259 126 282 126 c 0,135,136
 308 126 308 126 328 135.5 c 128,-1,137
 348 145 348 145 361.5 160 c 128,-1,138
 375 175 375 175 382 195 c 128,-1,139
 389 215 389 215 389 236 c 0,140,141
 389 259 389 259 380.5 281.5 c 128,-1,142
 372 304 372 304 355 322 c 128,-1,143
 338 340 338 340 312.5 351 c 128,-1,144
 287 362 287 362 252 362 c 0,145,146
 197 362 197 362 155.5 344.5 c 128,-1,147
 114 327 114 327 86 299 c 128,-1,148
 58 271 58 271 44 235 c 128,-1,149
 30 199 30 199 30 163 c 0,150,151
 30 130 30 130 41.5 99 c 128,-1,152
 53 68 53 68 76.5 44.5 c 128,-1,153
 100 21 100 21 135 6.5 c 128,-1,154
 170 -8 170 -8 218 -8 c 0,155,156
 297 -8 297 -8 370.5 31.5 c 128,-1,157
 444 71 444 71 507 135 c 128,-1,158
 570 199 570 199 620.5 280.5 c 128,-1,159
 671 362 671 362 704 446 c 1,160,-1
 628 446 l 2,161,162
 619 447 619 447 613 453 c 128,-1,163
 607 459 607 459 607 466 c 0,164,165
 607 471 607 471 611 474.5 c 128,-1,166
 615 478 615 478 626 478 c 0,167,168
 632 478 632 478 658.5 477.5 c 128,-1,169
 685 477 685 477 715 476 c 1,170,171
 734 532 734 532 744.5 584.5 c 128,-1,172
 755 637 755 637 755 685 c 0,173,174
 755 728 755 728 746 763.5 c 128,-1,175
 737 799 737 799 718 825 c 128,-1,176
 699 851 699 851 669.5 865.5 c 128,-1,177
 640 880 640 880 598 880 c 0,178,179
 549 880 549 880 506.5 865 c 128,-1,180
 464 850 464 850 428.5 824.5 c 128,-1,181
 393 799 393 799 365 766 c 128,-1,182
 337 733 337 733 318 697.5 c 128,-1,183
 299 662 299 662 289 626.5 c 128,-1,184
 279 591 279 591 279 561 c 0,185,186
 279 521 279 521 297.5 495 c 128,-1,187
 316 469 316 469 355 469 c 0,188,189
 379 469 379 469 399.5 480.5 c 128,-1,190
 420 492 420 492 434.5 509.5 c 128,-1,191
 449 527 449 527 457.5 547.5 c 128,-1,192
 466 568 466 568 468 586 c 0,193,194
 471 620 471 620 482.5 634 c 128,-1,195
 494 648 494 648 506 648 c 0,196,197
 517 648 517 648 524.5 639.5 c 128,-1,198
 532 631 532 631 532 616 c 0,199,200
 532 595 532 595 516 567 c 128,-1,201
 500 539 500 539 472.5 513 c 128,-1,202
 445 487 445 487 409 469 c 128,-1,203
 373 451 373 451 333 451 c 0,204,205
 267 451 267 451 237.5 479.5 c 128,-1,206
 208 508 208 508 208 553 c 0,207,208
 208 586 208 586 222.5 624.5 c 128,-1,209
 237 663 237 663 263.5 701 c 128,-1,210
 290 739 290 739 327 774.5 c 128,-1,211
 364 810 364 810 409 837 c 128,-1,212
 454 864 454 864 505 880.5 c 128,-1,213
 556 897 556 897 611 897 c 256,214,215
 666 897 666 897 705.5 878.5 c 128,-1,216
 745 860 745 860 770.5 827.5 c 128,-1,217
 796 795 796 795 808.5 751 c 128,-1,218
 821 707 821 707 821 655 c 0,219,220
 821 639 821 639 820 623.5 c 128,-1,221
 819 608 819 608 817 591 c 1,222,223
 866 681 866 681 931 764 c 128,-1,224
 996 847 996 847 1072.5 910.5 c 128,-1,225
 1149 974 1149 974 1235 1012 c 128,-1,226
 1321 1050 1321 1050 1411 1050 c 0,0,1
EndSplineSet
EndChar

StartChar: Y
Encoding: 89 89 24
Width: 991
Flags: W
LayerCount: 2
Fore
SplineSet
995 528 m 0,0,1
 998 534 998 534 998 539 c 0,2,3
 998 551 998 551 982 551 c 0,4,5
 976 551 976 551 972 550 c 0,6,7
 963 550 963 550 963 560 c 0,8,9
 963 568 963 568 971 569 c 0,10,11
 978 571 978 571 998.5 578 c 128,-1,12
 1019 585 1019 585 1039 593 c 256,13,14
 1059 601 1059 601 1082 613 c 128,-1,15
 1105 625 1105 625 1119 636 c 0,16,17
 1124 640 1124 640 1128 640 c 256,18,19
 1132 640 1132 640 1133 637 c 128,-1,20
 1134 634 1134 634 1134 631 c 0,21,22
 1134 625 1134 625 1133 624 c 0,23,24
 1123 616 1123 616 1114 607.5 c 128,-1,25
 1105 599 1105 599 1094 576 c 0,26,27
 1044 475 1044 475 995 357 c 128,-1,28
 946 239 946 239 890.5 121 c 128,-1,29
 835 3 835 3 771 -106 c 128,-1,30
 707 -215 707 -215 627.5 -299.5 c 128,-1,31
 548 -384 548 -384 450 -434.5 c 128,-1,32
 352 -485 352 -485 229 -485 c 0,33,34
 173 -485 173 -485 125 -472 c 128,-1,35
 77 -459 77 -459 42 -436.5 c 128,-1,36
 7 -414 7 -414 -12.5 -384 c 128,-1,37
 -32 -354 -32 -354 -32 -321 c 0,38,39
 -32 -290 -32 -290 -15.5 -259 c 128,-1,40
 1 -228 1 -228 34.5 -204 c 128,-1,41
 68 -180 68 -180 119.5 -165 c 128,-1,42
 171 -150 171 -150 242 -150 c 0,43,44
 284 -150 284 -150 321 -159 c 128,-1,45
 358 -168 358 -168 385.5 -181.5 c 128,-1,46
 413 -195 413 -195 428.5 -211.5 c 128,-1,47
 444 -228 444 -228 444 -242 c 0,48,49
 444 -259 444 -259 436 -269.5 c 128,-1,50
 428 -280 428 -280 418 -280 c 0,51,52
 404 -280 404 -280 398 -262 c 0,53,54
 390 -239 390 -239 373 -222 c 128,-1,55
 356 -205 356 -205 333.5 -193.5 c 128,-1,56
 311 -182 311 -182 284.5 -176 c 128,-1,57
 258 -170 258 -170 231 -170 c 0,58,59
 182 -170 182 -170 148 -182.5 c 128,-1,60
 114 -195 114 -195 92.5 -215 c 128,-1,61
 71 -235 71 -235 61 -262 c 128,-1,62
 51 -289 51 -289 51 -317 c 0,63,64
 51 -346 51 -346 65.5 -372 c 128,-1,65
 80 -398 80 -398 106 -417 c 128,-1,66
 132 -436 132 -436 168 -447 c 128,-1,67
 204 -458 204 -458 247 -458 c 0,68,69
 326 -458 326 -458 395 -427 c 128,-1,70
 464 -396 464 -396 522.5 -345 c 128,-1,71
 581 -294 581 -294 629.5 -229 c 128,-1,72
 678 -164 678 -164 716.5 -96 c 128,-1,73
 755 -28 755 -28 783.5 36.5 c 128,-1,74
 812 101 812 101 831 152 c 1,75,76
 825 152 825 152 822 148 c 0,77,78
 793 112 793 112 757 81 c 128,-1,79
 721 50 721 50 682 26.5 c 128,-1,80
 643 3 643 3 603.5 -10 c 128,-1,81
 564 -23 564 -23 530 -23 c 0,82,83
 504 -23 504 -23 482.5 -15 c 128,-1,84
 461 -7 461 -7 445 10.5 c 128,-1,85
 429 28 429 28 420 56 c 128,-1,86
 411 84 411 84 411 124 c 0,87,88
 411 165 411 165 431.5 222 c 128,-1,89
 452 279 452 279 482 342.5 c 128,-1,90
 512 406 512 406 548 471 c 128,-1,91
 584 536 584 536 614 593.5 c 128,-1,92
 644 651 644 651 664.5 696.5 c 128,-1,93
 685 742 685 742 685 767 c 0,94,95
 685 837 685 837 643 864 c 128,-1,96
 601 891 601 891 526 891 c 0,97,98
 460 891 460 891 400.5 863.5 c 128,-1,99
 341 836 341 836 290 790.5 c 128,-1,100
 239 745 239 745 198.5 686 c 128,-1,101
 158 627 158 627 129 564.5 c 128,-1,102
 100 502 100 502 84.5 441 c 128,-1,103
 69 380 69 380 69 329 c 0,104,105
 69 269 69 269 92 231.5 c 128,-1,106
 115 194 115 194 165 194 c 0,107,108
 206 194 206 194 241 214 c 128,-1,109
 276 234 276 234 304.5 266.5 c 128,-1,110
 333 299 333 299 354.5 341 c 128,-1,111
 376 383 376 383 390.5 427 c 128,-1,112
 405 471 405 471 412.5 513.5 c 128,-1,113
 420 556 420 556 420 591 c 0,114,115
 420 599 420 599 420.5 608.5 c 128,-1,116
 421 618 421 618 423 626.5 c 128,-1,117
 425 635 425 635 430.5 640.5 c 128,-1,118
 436 646 436 646 445 646 c 0,119,120
 458 646 458 646 464.5 639.5 c 128,-1,121
 471 633 471 633 473.5 622.5 c 128,-1,122
 476 612 476 612 476.5 598 c 128,-1,123
 477 584 477 584 477 569 c 0,124,125
 475 533 475 533 462.5 489.5 c 128,-1,126
 450 446 450 446 428.5 402 c 128,-1,127
 407 358 407 358 377.5 317 c 128,-1,128
 348 276 348 276 312 244 c 128,-1,129
 276 212 276 212 234.5 192.5 c 128,-1,130
 193 173 193 173 147 173 c 0,131,132
 107 173 107 173 78 186.5 c 128,-1,133
 49 200 49 200 30 223.5 c 128,-1,134
 11 247 11 247 2 279 c 128,-1,135
 -7 311 -7 311 -7 349 c 0,136,137
 -7 403 -7 403 11 466 c 128,-1,138
 29 529 29 529 62.5 591 c 128,-1,139
 96 653 96 653 144 710.5 c 128,-1,140
 192 768 192 768 253 812 c 128,-1,141
 314 856 314 856 386.5 882.5 c 128,-1,142
 459 909 459 909 541 909 c 0,143,144
 564 909 564 909 598.5 902 c 128,-1,145
 633 895 633 895 665.5 878 c 128,-1,146
 698 861 698 861 721 833 c 128,-1,147
 744 805 744 805 744 763 c 0,148,149
 744 717 744 717 725.5 664 c 128,-1,150
 707 611 707 611 679.5 554.5 c 128,-1,151
 652 498 652 498 619.5 440 c 128,-1,152
 587 382 587 382 559.5 326 c 128,-1,153
 532 270 532 270 513.5 218.5 c 128,-1,154
 495 167 495 167 495 123 c 0,155,156
 495 72 495 72 519 48.5 c 128,-1,157
 543 25 543 25 581 25 c 0,158,159
 613 25 613 25 652.5 41 c 128,-1,160
 692 57 692 57 732.5 88 c 128,-1,161
 773 119 773 119 812 164 c 128,-1,162
 851 209 851 209 882 266 c 0,163,164
 896 298 896 298 905.5 320.5 c 128,-1,165
 915 343 915 343 922.5 360.5 c 128,-1,166
 930 378 930 378 936.5 393 c 128,-1,167
 943 408 943 408 950.5 426.5 c 128,-1,168
 958 445 958 445 968.5 469 c 128,-1,169
 979 493 979 493 995 528 c 0,0,1
EndSplineSet
EndChar

StartChar: Z
Encoding: 90 90 25
Width: 432
Flags: W
LayerCount: 2
Fore
SplineSet
206 316 m 0,0,1
 199 316 199 316 199 325 c 0,2,3
 199 330 199 330 201.5 335.5 c 128,-1,4
 204 341 204 341 209 342 c 0,5,6
 226 340 226 340 258 339.5 c 128,-1,7
 290 339 290 339 328 339 c 1,8,9
 343 359 343 359 357.5 378 c 128,-1,10
 372 397 372 397 386 417 c 0,11,12
 461 522 461 522 535 606 c 128,-1,13
 609 690 609 690 682 753 c 1,14,15
 621 766 621 766 568.5 785 c 128,-1,16
 516 804 516 804 464 821 c 128,-1,17
 412 838 412 838 357 850.5 c 128,-1,18
 302 863 302 863 237 863 c 0,19,20
 153 863 153 863 89.5 840 c 128,-1,21
 26 817 26 817 -16.5 781 c 128,-1,22
 -59 745 -59 745 -81 701.5 c 128,-1,23
 -103 658 -103 658 -103 618 c 0,24,25
 -103 591 -103 591 -93.5 567.5 c 128,-1,26
 -84 544 -84 544 -65 526.5 c 128,-1,27
 -46 509 -46 509 -17.5 498.5 c 128,-1,28
 11 488 11 488 50 488 c 0,29,30
 74 488 74 488 97.5 496 c 128,-1,31
 121 504 121 504 139.5 518.5 c 128,-1,32
 158 533 158 533 169.5 553 c 128,-1,33
 181 573 181 573 181 598 c 0,34,35
 181 619 181 619 177.5 629.5 c 128,-1,36
 174 640 174 640 169.5 646.5 c 128,-1,37
 165 653 165 653 161.5 658.5 c 128,-1,38
 158 664 158 664 158 673 c 0,39,40
 158 681 158 681 166 689.5 c 128,-1,41
 174 698 174 698 187 698 c 0,42,43
 210 698 210 698 222 681 c 128,-1,44
 234 664 234 664 234 638 c 256,45,46
 234 612 234 612 221 581.5 c 128,-1,47
 208 551 208 551 181 525 c 128,-1,48
 154 499 154 499 113 481.5 c 128,-1,49
 72 464 72 464 15 464 c 0,50,51
 -26 464 -26 464 -56.5 474.5 c 128,-1,52
 -87 485 -87 485 -107 503 c 128,-1,53
 -127 521 -127 521 -137 545 c 128,-1,54
 -147 569 -147 569 -147 597 c 0,55,56
 -147 645 -147 645 -118 698 c 128,-1,57
 -89 751 -89 751 -32 796 c 128,-1,58
 25 841 25 841 109 870 c 128,-1,59
 193 899 193 899 303 899 c 0,60,61
 360 899 360 899 415 888.5 c 128,-1,62
 470 878 470 878 524.5 863 c 128,-1,63
 579 848 579 848 632.5 831 c 128,-1,64
 686 814 686 814 740 800 c 1,65,66
 825 865 825 865 904.5 898 c 128,-1,67
 984 931 984 931 1059 931 c 0,68,69
 1111 931 1111 931 1135 917 c 128,-1,70
 1159 903 1159 903 1159 882 c 0,71,72
 1159 860 1159 860 1136 834.5 c 128,-1,73
 1113 809 1113 809 1072 787 c 128,-1,74
 1031 765 1031 765 974.5 750 c 128,-1,75
 918 735 918 735 850 735 c 0,76,77
 821 735 821 735 794 737 c 128,-1,78
 767 739 767 739 741 742 c 1,79,80
 677 677 677 677 610.5 596.5 c 128,-1,81
 544 516 544 516 475 425 c 0,82,83
 458 403 458 403 441.5 381.5 c 128,-1,84
 425 360 425 360 408 339 c 1,85,86
 427 340 427 340 442.5 340 c 128,-1,87
 458 340 458 340 470 341 c 0,88,89
 483 341 483 341 483 335 c 0,90,91
 483 330 483 330 476.5 325 c 128,-1,92
 470 320 470 320 466 319 c 0,93,94
 455 320 455 320 441 320 c 128,-1,95
 427 320 427 320 411 320 c 2,96,-1
 392 320 l 1,97,98
 327 239 327 239 259 166.5 c 128,-1,99
 191 94 191 94 116 33 c 1,100,101
 246 9 246 9 394.5 -26 c 128,-1,102
 543 -61 543 -61 703 -103 c 128,-1,103
 863 -145 863 -145 1031.5 -190 c 128,-1,104
 1200 -235 1200 -235 1369.5 -278.5 c 128,-1,105
 1539 -322 1539 -322 1707 -361.5 c 128,-1,106
 1875 -401 1875 -401 2033.5 -430.5 c 128,-1,107
 2192 -460 2192 -460 2338.5 -477.5 c 128,-1,108
 2485 -495 2485 -495 2612 -495 c 0,109,110
 2722 -495 2722 -495 2799.5 -478 c 128,-1,111
 2877 -461 2877 -461 2925.5 -433.5 c 128,-1,112
 2974 -406 2974 -406 2996 -371.5 c 128,-1,113
 3018 -337 3018 -337 3018 -302 c 0,114,115
 3018 -270 3018 -270 3001.5 -240 c 128,-1,116
 2985 -210 2985 -210 2955 -187 c 128,-1,117
 2925 -164 2925 -164 2883.5 -150 c 128,-1,118
 2842 -136 2842 -136 2792 -136 c 0,119,120
 2763 -136 2763 -136 2733.5 -141.5 c 128,-1,121
 2704 -147 2704 -147 2679 -160.5 c 128,-1,122
 2654 -174 2654 -174 2636 -196.5 c 128,-1,123
 2618 -219 2618 -219 2612 -252 c 0,124,125
 2610 -267 2610 -267 2598 -274.5 c 128,-1,126
 2586 -282 2586 -282 2574 -282 c 0,127,128
 2564 -282 2564 -282 2556.5 -276.5 c 128,-1,129
 2549 -271 2549 -271 2549 -260 c 0,130,131
 2549 -221 2549 -221 2573.5 -193 c 128,-1,132
 2598 -165 2598 -165 2635.5 -147.5 c 128,-1,133
 2673 -130 2673 -130 2718 -122 c 128,-1,134
 2763 -114 2763 -114 2804 -114 c 0,135,136
 2874 -114 2874 -114 2932 -130 c 128,-1,137
 2990 -146 2990 -146 3031.5 -173 c 128,-1,138
 3073 -200 3073 -200 3095.5 -234.5 c 128,-1,139
 3118 -269 3118 -269 3118 -306 c 0,140,141
 3118 -345 3118 -345 3089 -383.5 c 128,-1,142
 3060 -422 3060 -422 2998 -452.5 c 128,-1,143
 2936 -483 2936 -483 2837 -502 c 128,-1,144
 2738 -521 2738 -521 2599 -521 c 0,145,146
 2359 -521 2359 -521 2120.5 -491.5 c 128,-1,147
 1882 -462 1882 -462 1652 -415 c 128,-1,148
 1422 -368 1422 -368 1203.5 -309 c 128,-1,149
 985 -250 985 -250 785 -191.5 c 128,-1,150
 585 -133 585 -133 406.5 -81.5 c 128,-1,151
 228 -30 228 -30 79 4 c 1,152,153
 -23 -71 -23 -71 -138.5 -115.5 c 128,-1,154
 -254 -160 -254 -160 -392 -160 c 0,155,156
 -483 -160 -483 -160 -526 -135.5 c 128,-1,157
 -569 -111 -569 -111 -569 -77 c 0,158,159
 -569 -52 -569 -52 -546.5 -25.5 c 128,-1,160
 -524 1 -524 1 -480 22.5 c 128,-1,161
 -436 44 -436 44 -371.5 58 c 128,-1,162
 -307 72 -307 72 -223 72 c 0,163,164
 -163 72 -163 72 -92 64.5 c 128,-1,165
 -21 57 -21 57 60 43 c 1,166,167
 131 103 131 103 193.5 173.5 c 128,-1,168
 256 244 256 244 313 319 c 1,169,170
 291 318 291 318 272 318 c 128,-1,171
 253 318 253 318 238 317 c 0,172,173
 220 316 220 316 206 316 c 0,0,1
-244 50 m 0,174,175
 -303 50 -303 50 -346 39 c 128,-1,176
 -389 28 -389 28 -417 10.5 c 128,-1,177
 -445 -7 -445 -7 -459 -28 c 128,-1,178
 -473 -49 -473 -49 -473 -69 c 0,179,180
 -473 -98 -473 -98 -446.5 -118 c 128,-1,181
 -420 -138 -420 -138 -368 -138 c 0,182,183
 -257 -138 -257 -138 -159 -95.5 c 128,-1,184
 -61 -53 -61 -53 27 16 c 1,185,186
 -51 33 -51 33 -118.5 41.5 c 128,-1,187
 -186 50 -186 50 -244 50 c 0,174,175
925 774 m 0,188,189
 968 774 968 774 999 782.5 c 128,-1,190
 1030 791 1030 791 1050.5 804.5 c 128,-1,191
 1071 818 1071 818 1080.5 834 c 128,-1,192
 1090 850 1090 850 1090 865 c 0,193,194
 1090 884 1090 884 1075 897.5 c 128,-1,195
 1060 911 1060 911 1032 911 c 0,196,197
 974 911 974 911 913.5 878.5 c 128,-1,198
 853 846 853 846 790 789 c 1,199,200
 823 782 823 782 856.5 778 c 128,-1,201
 890 774 890 774 925 774 c 0,188,189
EndSplineSet
EndChar

StartChar: a
Encoding: 97 97 26
Width: 494
Flags: W
LayerCount: 2
Fore
SplineSet
451 419 m 2,0,1
 454 423 454 423 458 426.5 c 128,-1,2
 462 430 462 430 469.5 431.5 c 128,-1,3
 477 433 477 433 490 434 c 128,-1,4
 503 435 503 435 524 435 c 0,5,6
 539 435 539 435 539 430 c 0,7,8
 539 427 539 427 534 422 c 128,-1,9
 529 417 529 417 524 410 c 0,10,11
 516 400 516 400 500 377 c 128,-1,12
 484 354 484 354 465 324.5 c 128,-1,13
 446 295 446 295 426 261.5 c 128,-1,14
 406 228 406 228 390 195.5 c 128,-1,15
 374 163 374 163 363.5 135 c 128,-1,16
 353 107 353 107 353 89 c 0,17,18
 353 64 353 64 375 64 c 0,19,20
 392 64 392 64 417 83 c 128,-1,21
 442 102 442 102 469 138 c 0,22,23
 472 142 472 142 476 142 c 0,24,25
 486 142 486 142 486 131 c 0,26,27
 486 130 486 130 485.5 130 c 128,-1,28
 485 130 485 130 485 129 c 2,29,-1
 485 128 l 1,30,31
 479 117 479 117 460 93.5 c 128,-1,32
 441 70 441 70 415.5 46 c 128,-1,33
 390 22 390 22 361 3.5 c 128,-1,34
 332 -15 332 -15 306 -16 c 0,35,36
 283 -16 283 -16 274 0 c 128,-1,37
 265 16 265 16 265 40 c 256,38,39
 265 64 265 64 272 92.5 c 128,-1,40
 279 121 279 121 289 145 c 0,41,42
 289 146 289 146 288 147 c 0,43,44
 285 150 285 150 285 150 c 2,45,46
 284 150 284 150 281 147 c 0,47,48
 273 137 273 137 250 111.5 c 128,-1,49
 227 86 227 86 195 59 c 128,-1,50
 163 32 163 32 126 11.5 c 128,-1,51
 89 -9 89 -9 54 -9 c 256,52,53
 19 -9 19 -9 3.5 7.5 c 128,-1,54
 -12 24 -12 24 -12 53 c 0,55,56
 -12 84 -12 84 4 124.5 c 128,-1,57
 20 165 20 165 47.5 207.5 c 128,-1,58
 75 250 75 250 111.5 291 c 128,-1,59
 148 332 148 332 188.5 364.5 c 128,-1,60
 229 397 229 397 272 417 c 128,-1,61
 315 437 315 437 355 437 c 0,62,63
 380 437 380 437 394.5 431.5 c 128,-1,64
 409 426 409 426 416.5 418.5 c 128,-1,65
 424 411 424 411 426.5 403 c 128,-1,66
 429 395 429 395 430 390 c 1,67,-1
 451 419 l 2,0,1
115 59 m 0,68,69
 144 59 144 59 176 79 c 128,-1,70
 208 99 208 99 239 128.5 c 128,-1,71
 270 158 270 158 297 192 c 128,-1,72
 324 226 324 226 342 253 c 0,73,74
 371 296 371 296 385 328 c 128,-1,75
 399 360 399 360 399 381 c 0,76,77
 399 419 399 419 358 419 c 0,78,79
 330 419 330 419 298.5 401.5 c 128,-1,80
 267 384 267 384 236.5 355.5 c 128,-1,81
 206 327 206 327 178 291 c 128,-1,82
 150 255 150 255 129 219 c 128,-1,83
 108 183 108 183 95.5 150.5 c 128,-1,84
 83 118 83 118 83 95 c 0,85,86
 83 78 83 78 90.5 68.5 c 128,-1,87
 98 59 98 59 115 59 c 0,68,69
EndSplineSet
EndChar

StartChar: b
Encoding: 98 98 27
Width: 404
Flags: W
LayerCount: 2
Fore
SplineSet
395 440 m 0,0,1
 429 440 429 440 444 424 c 128,-1,2
 459 408 459 408 459 381 c 0,3,4
 459 350 459 350 441.5 309 c 128,-1,5
 424 268 424 268 395 223.5 c 128,-1,6
 366 179 366 179 327.5 136 c 128,-1,7
 289 93 289 93 247 59.5 c 128,-1,8
 205 26 205 26 162.5 5 c 128,-1,9
 120 -16 120 -16 83 -16 c 0,10,11
 49 -16 49 -16 28 6 c 128,-1,12
 7 28 7 28 7 79 c 0,13,14
 7 135 7 135 32.5 212 c 128,-1,15
 58 289 58 289 101.5 373 c 128,-1,16
 145 457 145 457 203 540 c 128,-1,17
 261 623 261 623 327 691 c 1,18,19
 254 717 254 717 216 755 c 128,-1,20
 178 793 178 793 178 828 c 0,21,22
 178 862 178 862 215 885 c 128,-1,23
 252 908 252 908 330 908 c 0,24,25
 359 908 359 908 389 903 c 128,-1,26
 419 898 419 898 446.5 889.5 c 128,-1,27
 474 881 474 881 497 868.5 c 128,-1,28
 520 856 520 856 535 841 c 1,29,30
 581 858 581 858 623 858 c 0,31,32
 704 858 704 858 744.5 832 c 128,-1,33
 785 806 785 806 785 772 c 0,34,35
 785 752 785 752 770 731.5 c 128,-1,36
 755 711 755 711 725 694.5 c 128,-1,37
 695 678 695 678 650 668 c 128,-1,38
 605 658 605 658 545 658 c 0,39,40
 497 658 497 658 454.5 663 c 128,-1,41
 412 668 412 668 376 677 c 1,42,43
 314 601 314 601 261 508 c 128,-1,44
 208 415 208 415 168 324 c 1,45,46
 187 340 187 340 213 360.5 c 128,-1,47
 239 381 239 381 269.5 398.5 c 128,-1,48
 300 416 300 416 332 428 c 128,-1,49
 364 440 364 440 395 440 c 0,0,1
109 9 m 0,50,51
 135 9 135 9 164 28 c 128,-1,52
 193 47 193 47 221.5 77.5 c 128,-1,53
 250 108 250 108 275.5 146 c 128,-1,54
 301 184 301 184 321 223 c 128,-1,55
 341 262 341 262 352.5 297.5 c 128,-1,56
 364 333 364 333 364 358 c 0,57,58
 364 377 364 377 356.5 388 c 128,-1,59
 349 399 349 399 332 399 c 256,60,61
 315 399 315 399 291.5 387.5 c 128,-1,62
 268 376 268 376 242.5 358.5 c 128,-1,63
 217 341 217 341 192.5 320 c 128,-1,64
 168 299 168 299 149 280 c 1,65,66
 117 202 117 202 99.5 138.5 c 128,-1,67
 82 75 82 75 82 38 c 0,68,69
 82 21 82 21 90 15 c 128,-1,70
 98 9 98 9 109 9 c 0,50,51
558 794 m 0,71,72
 558 782 558 782 540 782 c 0,73,74
 533 782 533 782 530 785 c 0,75,76
 528 787 528 787 527 789 c 0,77,78
 525 794 525 794 523.5 799 c 128,-1,79
 522 804 522 804 520 809 c 1,80,81
 486 789 486 789 453 759 c 128,-1,82
 420 729 420 729 388 691 c 1,83,84
 418 684 418 684 454 680 c 128,-1,85
 490 676 490 676 532 676 c 0,86,87
 578 676 578 676 612 686 c 128,-1,88
 646 696 646 696 668 711.5 c 128,-1,89
 690 727 690 727 700.5 746 c 128,-1,90
 711 765 711 765 711 783 c 0,91,92
 711 809 711 809 691 827 c 128,-1,93
 671 845 671 845 633 845 c 0,94,95
 612 845 612 845 590.5 839.5 c 128,-1,96
 569 834 569 834 548 824 c 1,97,98
 558 809 558 809 558 794 c 0,71,72
507 829 m 1,99,100
 481 861 481 861 434.5 876.5 c 128,-1,101
 388 892 388 892 341 892 c 0,102,103
 286 892 286 892 257.5 870.5 c 128,-1,104
 229 849 229 849 229 819 c 0,105,106
 229 790 229 790 256.5 759 c 128,-1,107
 284 728 284 728 341 706 c 1,108,109
 382 746 382 746 423.5 777.5 c 128,-1,110
 465 809 465 809 507 829 c 1,99,100
EndSplineSet
EndChar

StartChar: c
Encoding: 99 99 28
Width: 347
Flags: W
LayerCount: 2
Fore
SplineSet
314 439 m 0,0,1
 354 439 354 439 372 417.5 c 128,-1,2
 390 396 390 396 390 368 c 0,3,4
 390 337 390 337 369 310.5 c 128,-1,5
 348 284 348 284 310 283 c 0,6,7
 294 283 294 283 285 292.5 c 128,-1,8
 276 302 276 302 276 315 c 0,9,10
 276 329 276 329 288.5 341 c 128,-1,11
 301 353 301 353 328 353 c 0,12,13
 343 353 343 353 350.5 361.5 c 128,-1,14
 358 370 358 370 358 381 c 0,15,16
 358 395 358 395 346 407.5 c 128,-1,17
 334 420 334 420 311 420 c 0,18,19
 290 420 290 420 266 404 c 128,-1,20
 242 388 242 388 218 361.5 c 128,-1,21
 194 335 194 335 171.5 301.5 c 128,-1,22
 149 268 149 268 132 233 c 128,-1,23
 115 198 115 198 105 165 c 128,-1,24
 95 132 95 132 95 106 c 256,25,26
 95 80 95 80 106 65 c 128,-1,27
 117 50 117 50 143 50 c 0,28,29
 170 50 170 50 197 63.5 c 128,-1,30
 224 77 224 77 247.5 97.5 c 128,-1,31
 271 118 271 118 290 142.5 c 128,-1,32
 309 167 309 167 320 189 c 0,33,34
 323 195 323 195 329 195 c 0,35,36
 339 195 339 195 339 185 c 0,37,38
 339 184 339 184 337 178 c 0,39,40
 327 153 327 153 300.5 119.5 c 128,-1,41
 274 86 274 86 238 56 c 128,-1,42
 202 26 202 26 160.5 5 c 128,-1,43
 119 -16 119 -16 79 -16 c 0,44,45
 37 -16 37 -16 18.5 7.5 c 128,-1,46
 0 31 0 31 0 69 c 0,47,48
 0 102 0 102 12.5 142 c 128,-1,49
 25 182 25 182 47 223.5 c 128,-1,50
 69 265 69 265 99 303.5 c 128,-1,51
 129 342 129 342 164 372.5 c 128,-1,52
 199 403 199 403 237 421 c 128,-1,53
 275 439 275 439 314 439 c 0,0,1
EndSplineSet
EndChar

StartChar: d
Encoding: 100 100 29
Width: 505
Flags: W
LayerCount: 2
Fore
SplineSet
365 83 m 0,0,1
 365 64 365 64 382 64 c 256,2,3
 399 64 399 64 426 83 c 128,-1,4
 453 102 453 102 479 137 c 0,5,6
 483 141 483 141 486 141 c 0,7,8
 496 141 496 141 496 131 c 0,9,10
 496 128 496 128 495 127 c 0,11,12
 489 116 489 116 470 92.5 c 128,-1,13
 451 69 451 69 425 45.5 c 128,-1,14
 399 22 399 22 370 4.5 c 128,-1,15
 341 -13 341 -13 315 -13 c 0,16,17
 292 -13 292 -13 283.5 5.5 c 128,-1,18
 275 24 275 24 275 50 c 0,19,20
 275 74 275 74 280 101 c 128,-1,21
 285 128 285 128 293 148 c 1,22,-1
 291 146 l 2,23,24
 283 136 283 136 259 110.5 c 128,-1,25
 235 85 235 85 202 58 c 128,-1,26
 169 31 169 31 131 10.5 c 128,-1,27
 93 -10 93 -10 58 -10 c 0,28,29
 21 -10 21 -10 4.5 9 c 128,-1,30
 -12 28 -12 28 -12 60 c 0,31,32
 -12 88 -12 88 -0.5 123.5 c 128,-1,33
 11 159 11 159 31.5 196.5 c 128,-1,34
 52 234 52 234 80 271.5 c 128,-1,35
 108 309 108 309 141 341 c 0,36,37
 161 361 161 361 185 379 c 128,-1,38
 209 397 209 397 235.5 411 c 128,-1,39
 262 425 262 425 288.5 433 c 128,-1,40
 315 441 315 441 341 441 c 0,41,42
 363 441 363 441 384.5 435 c 128,-1,43
 406 429 406 429 419 408 c 1,44,45
 524 597 524 597 634 713 c 1,46,47
 565 739 565 739 529.5 775.5 c 128,-1,48
 494 812 494 812 494 846 c 256,49,50
 494 880 494 880 531 903 c 128,-1,51
 568 926 568 926 646 926 c 0,52,53
 675 926 675 926 704.5 921.5 c 128,-1,54
 734 917 734 917 761 908.5 c 128,-1,55
 788 900 788 900 811 888 c 128,-1,56
 834 876 834 876 849 861 c 1,57,58
 896 875 896 875 937 875 c 0,59,60
 1019 875 1019 875 1060 849 c 128,-1,61
 1101 823 1101 823 1101 789 c 0,62,63
 1101 769 1101 769 1086 748.5 c 128,-1,64
 1071 728 1071 728 1041 712 c 128,-1,65
 1011 696 1011 696 966 686 c 128,-1,66
 921 676 921 676 861 676 c 0,67,68
 810 676 810 676 767 681.5 c 128,-1,69
 724 687 724 687 687 696 c 1,70,71
 642 644 642 644 600 582.5 c 128,-1,72
 558 521 558 521 522.5 457.5 c 128,-1,73
 487 394 487 394 458 333.5 c 128,-1,74
 429 273 429 273 408 222 c 128,-1,75
 387 171 387 171 376 134.5 c 128,-1,76
 365 98 365 98 365 83 c 0,0,1
401 375 m 2,77,78
 401 399 401 399 387.5 410.5 c 128,-1,79
 374 422 374 422 352 422 c 0,80,81
 334 422 334 422 312 415 c 128,-1,82
 290 408 290 408 267.5 394.5 c 128,-1,83
 245 381 245 381 223 362.5 c 128,-1,84
 201 344 201 344 182 320 c 0,85,86
 161 293 161 293 143 263.5 c 128,-1,87
 125 234 125 234 112 205 c 128,-1,88
 99 176 99 176 91.5 149.5 c 128,-1,89
 84 123 84 123 84 103 c 256,90,91
 84 83 84 83 92 70.5 c 128,-1,92
 100 58 100 58 119 58 c 0,93,94
 143 58 143 58 169.5 72 c 128,-1,95
 196 86 196 86 223 108 c 128,-1,96
 250 130 250 130 275 157 c 128,-1,97
 300 184 300 184 321 210 c 1,98,99
 341 254 341 254 361 295 c 128,-1,100
 381 336 381 336 401 374 c 1,101,-1
 401 375 l 2,77,78
951 858 m 0,102,103
 910 858 910 858 866 839 c 1,104,105
 874 826 874 826 874 812 c 0,106,107
 874 800 874 800 856 800 c 0,108,109
 849 800 849 800 846 803 c 0,110,111
 844 805 844 805 843 807 c 2,112,-1
 837 825 l 1,113,114
 802 805 802 805 767.5 776 c 128,-1,115
 733 747 733 747 700 710 c 1,116,117
 731 702 731 702 767.5 698 c 128,-1,118
 804 694 804 694 848 694 c 0,119,120
 894 694 894 694 928 703.5 c 128,-1,121
 962 713 962 713 984.5 728 c 128,-1,122
 1007 743 1007 743 1017.5 761.5 c 128,-1,123
 1028 780 1028 780 1028 798 c 0,124,125
 1028 822 1028 822 1008.5 840 c 128,-1,126
 989 858 989 858 951 858 c 0,102,103
821 850 m 1,127,128
 808 865 808 865 789 876 c 128,-1,129
 770 887 770 887 748.5 894.5 c 128,-1,130
 727 902 727 902 703.5 906 c 128,-1,131
 680 910 680 910 657 910 c 0,132,133
 602 910 602 910 573.5 888.5 c 128,-1,134
 545 867 545 867 545 837 c 0,135,136
 545 809 545 809 570 779 c 128,-1,137
 595 749 595 749 648 727 c 1,138,139
 735 814 735 814 821 850 c 1,127,128
EndSplineSet
EndChar

StartChar: e
Encoding: 101 101 30
Width: 362
Flags: W
LayerCount: 2
Fore
SplineSet
332 438 m 0,0,1
 374 438 374 438 393 424.5 c 128,-1,2
 412 411 412 411 412 389 c 0,3,4
 412 361 412 361 385.5 325 c 128,-1,5
 359 289 359 289 316.5 257 c 128,-1,6
 274 225 274 225 220 203 c 128,-1,7
 166 181 166 181 111 181 c 0,8,9
 104 181 104 181 99 182 c 1,10,11
 94 165 94 165 91.5 149.5 c 128,-1,12
 89 134 89 134 89 120 c 0,13,14
 89 88 89 88 104 68.5 c 128,-1,15
 119 49 119 49 154 49 c 0,16,17
 181 49 181 49 207 60 c 128,-1,18
 233 71 233 71 257.5 89.5 c 128,-1,19
 282 108 282 108 304.5 133 c 128,-1,20
 327 158 327 158 346 186 c 0,21,22
 349 190 349 190 352 190 c 0,23,24
 356 190 356 190 359 186.5 c 128,-1,25
 362 183 362 183 362 178 c 0,26,27
 362 174 362 174 360 171 c 0,28,29
 339 140 339 140 309.5 108 c 128,-1,30
 280 76 280 76 244 50.5 c 128,-1,31
 208 25 208 25 167 8.5 c 128,-1,32
 126 -8 126 -8 81 -8 c 0,33,34
 32 -8 32 -8 11 14 c 128,-1,35
 -10 36 -10 36 -10 72 c 0,36,37
 -10 104 -10 104 5 143.5 c 128,-1,38
 20 183 20 183 45.5 223.5 c 128,-1,39
 71 264 71 264 105 303 c 128,-1,40
 139 342 139 342 177 372 c 128,-1,41
 215 402 215 402 254.5 420 c 128,-1,42
 294 438 294 438 332 438 c 0,0,1
316 415 m 0,43,44
 285 415 285 415 253 395.5 c 128,-1,45
 221 376 221 376 192.5 344.5 c 128,-1,46
 164 313 164 313 140.5 274 c 128,-1,47
 117 235 117 235 104 197 c 1,48,49
 107 196 107 196 115 196 c 0,50,51
 160 196 160 196 200.5 218.5 c 128,-1,52
 241 241 241 241 271 272.5 c 128,-1,53
 301 304 301 304 319 337.5 c 128,-1,54
 337 371 337 371 337 392 c 0,55,56
 337 415 337 415 316 415 c 0,43,44
EndSplineSet
EndChar

StartChar: eight
Encoding: 56 56 31
Width: 555
Flags: W
LayerCount: 2
Fore
SplineSet
277 544 m 0,0,1
 277 516 277 516 294 504 c 128,-1,2
 311 492 311 492 333 492 c 0,3,4
 341 492 341 492 346 486 c 128,-1,5
 351 480 351 480 351 472 c 0,6,7
 351 461 351 461 338.5 451.5 c 128,-1,8
 326 442 326 442 294 442 c 0,9,10
 247 442 247 442 224.5 467.5 c 128,-1,11
 202 493 202 493 202 529 c 0,12,13
 202 575 202 575 225.5 610 c 128,-1,14
 249 645 249 645 285.5 668.5 c 128,-1,15
 322 692 322 692 367 704 c 128,-1,16
 412 716 412 716 455 716 c 0,17,18
 485 716 485 716 511.5 710 c 128,-1,19
 538 704 538 704 558.5 692 c 128,-1,20
 579 680 579 680 590.5 662 c 128,-1,21
 602 644 602 644 602 619 c 0,22,23
 602 568 602 568 561.5 528 c 128,-1,24
 521 488 521 488 460 453.5 c 128,-1,25
 399 419 399 419 328 387 c 128,-1,26
 257 355 257 355 196 319.5 c 128,-1,27
 135 284 135 284 94.5 243 c 128,-1,28
 54 202 54 202 54 150 c 0,29,30
 54 111 54 111 65 83.5 c 128,-1,31
 76 56 76 56 94.5 38.5 c 128,-1,32
 113 21 113 21 138 13 c 128,-1,33
 163 5 163 5 191 5 c 0,34,35
 244 5 244 5 291 27 c 128,-1,36
 338 49 338 49 373.5 81.5 c 128,-1,37
 409 114 409 114 429.5 152 c 128,-1,38
 450 190 450 190 450 222 c 0,39,40
 450 252 450 252 429 272 c 128,-1,41
 408 292 408 292 360 292 c 0,42,43
 337 292 337 292 326.5 300.5 c 128,-1,44
 316 309 316 309 316 320 c 0,45,46
 316 336 316 336 334.5 351.5 c 128,-1,47
 353 367 353 367 385 367 c 0,48,49
 456 367 456 367 489.5 333.5 c 128,-1,50
 523 300 523 300 523 252 c 0,51,52
 523 209 523 209 498 160.5 c 128,-1,53
 473 112 473 112 425.5 71.5 c 128,-1,54
 378 31 378 31 310.5 4 c 128,-1,55
 243 -23 243 -23 158 -23 c 0,56,57
 118 -23 118 -23 82 -14.5 c 128,-1,58
 46 -6 46 -6 19 11 c 128,-1,59
 -8 28 -8 28 -24 52.5 c 128,-1,60
 -40 77 -40 77 -40 110 c 0,61,62
 -40 157 -40 157 -16 195 c 128,-1,63
 8 233 8 233 47 264.5 c 128,-1,64
 86 296 86 296 136 323 c 128,-1,65
 186 350 186 350 238 374 c 128,-1,66
 290 398 290 398 340 421.5 c 128,-1,67
 390 445 390 445 429 470 c 128,-1,68
 468 495 468 495 492 523.5 c 128,-1,69
 516 552 516 552 516 586 c 0,70,71
 516 645 516 645 491.5 670 c 128,-1,72
 467 695 467 695 432 695 c 0,73,74
 406 695 406 695 378.5 683 c 128,-1,75
 351 671 351 671 328.5 650.5 c 128,-1,76
 306 630 306 630 291.5 602.5 c 128,-1,77
 277 575 277 575 277 544 c 0,0,1
EndSplineSet
EndChar

StartChar: equal
Encoding: 61 61 32
Width: 526
Flags: W
LayerCount: 2
Fore
SplineSet
512 347 m 0,0,1
 512 333 512 333 495 333 c 2,2,-1
 100 333 l 2,3,4
 95 333 95 333 93 337 c 128,-1,5
 91 341 91 341 91 346 c 0,6,7
 91 356 91 356 96 356 c 0,8,9
 105 356 105 356 127 356 c 128,-1,10
 149 356 149 356 179.5 356 c 128,-1,11
 210 356 210 356 245.5 356.5 c 128,-1,12
 281 357 281 357 317 357 c 0,13,14
 401 357 401 357 502 358 c 0,15,16
 505 358 505 358 508.5 355 c 128,-1,17
 512 352 512 352 512 347 c 0,0,1
476 251 m 0,18,19
 476 237 476 237 459 237 c 2,20,-1
 64 237 l 2,21,22
 59 237 59 237 57 241 c 128,-1,23
 55 245 55 245 55 250 c 0,24,25
 55 260 55 260 60 260 c 0,26,27
 69 260 69 260 91 260 c 128,-1,28
 113 260 113 260 143.5 260 c 128,-1,29
 174 260 174 260 209.5 260.5 c 128,-1,30
 245 261 245 261 281 261 c 0,31,32
 365 261 365 261 466 262 c 0,33,34
 469 262 469 262 472.5 259 c 128,-1,35
 476 256 476 256 476 251 c 0,18,19
EndSplineSet
EndChar

StartChar: f
Encoding: 102 102 33
Width: 209
Flags: W
LayerCount: 2
Fore
SplineSet
624 883 m 0,0,1
 661 883 661 883 677 863.5 c 128,-1,2
 693 844 693 844 693 818 c 0,3,4
 693 801 693 801 686.5 784 c 128,-1,5
 680 767 680 767 668.5 753 c 128,-1,6
 657 739 657 739 640.5 730 c 128,-1,7
 624 721 624 721 604 721 c 0,8,9
 588 721 588 721 579 730.5 c 128,-1,10
 570 740 570 740 570 753 c 0,11,12
 570 767 570 767 582.5 779 c 128,-1,13
 595 791 595 791 622 791 c 0,14,15
 639 791 639 791 650.5 802 c 128,-1,16
 662 813 662 813 662 826 c 256,17,18
 662 839 662 839 649.5 849 c 128,-1,19
 637 859 637 859 605 859 c 0,20,21
 562 859 562 859 523 839 c 128,-1,22
 484 819 484 819 450 786.5 c 128,-1,23
 416 754 416 754 387.5 714 c 128,-1,24
 359 674 359 674 336 633.5 c 128,-1,25
 313 593 313 593 296 556 c 128,-1,26
 279 519 279 519 269 494 c 0,27,28
 264 481 264 481 258 466.5 c 128,-1,29
 252 452 252 452 246 437 c 1,30,31
 271 437 271 437 293 437.5 c 128,-1,32
 315 438 315 438 332 439 c 0,33,34
 345 439 345 439 345 433 c 0,35,36
 345 428 345 428 338.5 423 c 128,-1,37
 332 418 332 418 328 417 c 0,38,39
 317 418 317 418 303.5 418 c 128,-1,40
 290 418 290 418 275 418 c 2,41,-1
 238 418 l 1,42,43
 214 361 214 361 184 294 c 128,-1,44
 154 227 154 227 117 156.5 c 128,-1,45
 80 86 80 86 38 16.5 c 128,-1,46
 -4 -53 -4 -53 -52 -114 c 1,47,48
 -3 -130 -3 -130 18.5 -159.5 c 128,-1,49
 40 -189 40 -189 40 -211 c 0,50,51
 40 -234 40 -234 29 -244 c 128,-1,52
 18 -254 18 -254 7 -254 c 0,53,54
 -2 -254 -2 -254 -9 -248.5 c 128,-1,55
 -16 -243 -16 -243 -16 -233 c 0,56,57
 -16 -224 -16 -224 -15.5 -218 c 128,-1,58
 -15 -212 -15 -212 -14 -207 c 128,-1,59
 -13 -202 -13 -202 -12.5 -195.5 c 128,-1,60
 -12 -189 -12 -189 -12 -179 c 0,61,62
 -12 -159 -12 -159 -24.5 -145.5 c 128,-1,63
 -37 -132 -37 -132 -60 -125 c 1,64,65
 -96 -170 -96 -170 -135.5 -208.5 c 128,-1,66
 -175 -247 -175 -247 -217 -275 c 128,-1,67
 -259 -303 -259 -303 -304 -318.5 c 128,-1,68
 -349 -334 -349 -334 -396 -334 c 0,69,70
 -447 -334 -447 -334 -470.5 -317.5 c 128,-1,71
 -494 -301 -494 -301 -494 -275 c 0,72,73
 -494 -250 -494 -250 -470 -220 c 128,-1,74
 -446 -190 -446 -190 -399.5 -164 c 128,-1,75
 -353 -138 -353 -138 -284 -121 c 128,-1,76
 -215 -104 -215 -104 -126 -104 c 2,77,-1
 -110 -104 l 1,78,79
 -68 -43 -68 -43 -29.5 26 c 128,-1,80
 9 95 9 95 43.5 164 c 128,-1,81
 78 233 78 233 107.5 298 c 128,-1,82
 137 363 137 363 161 416 c 1,83,84
 145 415 145 415 132 415 c 128,-1,85
 119 415 119 415 109 415 c 0,86,87
 98 415 98 415 88 414 c 0,88,89
 81 414 81 414 81 423 c 0,90,91
 81 428 81 428 83.5 433.5 c 128,-1,92
 86 439 86 439 91 440 c 0,93,94
 104 438 104 438 124.5 437.5 c 128,-1,95
 145 437 145 437 171 437 c 0,96,97
 172 440 172 440 176 448 c 0,98,99
 199 493 199 493 223 536 c 0,100,101
 243 573 243 573 267 612.5 c 128,-1,102
 291 652 291 652 311 679 c 0,103,104
 338 715 338 715 372.5 751 c 128,-1,105
 407 787 407 787 447.5 816.5 c 128,-1,106
 488 846 488 846 532.5 864.5 c 128,-1,107
 577 883 577 883 624 883 c 0,0,1
-436 -282 m 0,108,109
 -436 -298 -436 -298 -423 -308 c 128,-1,110
 -410 -318 -410 -318 -384 -318 c 0,111,112
 -349 -318 -349 -318 -314.5 -303 c 128,-1,113
 -280 -288 -280 -288 -246.5 -261 c 128,-1,114
 -213 -234 -213 -234 -181 -197.5 c 128,-1,115
 -149 -161 -149 -161 -118 -117 c 1,116,-1
 -120 -117 l 2,117,118
 -193 -117 -193 -117 -251.5 -134.5 c 128,-1,119
 -310 -152 -310 -152 -351 -177.5 c 128,-1,120
 -392 -203 -392 -203 -414 -231.5 c 128,-1,121
 -436 -260 -436 -260 -436 -282 c 0,108,109
EndSplineSet
EndChar

StartChar: five
Encoding: 53 53 34
Width: 504
Flags: W
LayerCount: 2
Fore
SplineSet
307 456 m 0,0,1
 399 456 399 456 441 415 c 128,-1,2
 483 374 483 374 483 311 c 0,3,4
 483 266 483 266 462.5 213 c 128,-1,5
 442 160 442 160 404.5 107.5 c 128,-1,6
 367 55 367 55 313.5 6.5 c 128,-1,7
 260 -42 260 -42 193.5 -79 c 128,-1,8
 127 -116 127 -116 49.5 -138.5 c 128,-1,9
 -28 -161 -28 -161 -114 -161 c 0,10,11
 -172 -161 -172 -161 -201 -146 c 128,-1,12
 -230 -131 -230 -131 -230 -118 c 256,13,14
 -230 -105 -230 -105 -206 -105 c 0,15,16
 -197 -105 -197 -105 -193 -110 c 0,17,18
 -186 -118 -186 -118 -175 -123 c 0,19,20
 -165 -128 -165 -128 -150.5 -132 c 128,-1,21
 -136 -136 -136 -136 -113 -136 c 0,22,23
 -44 -136 -44 -136 20.5 -112 c 128,-1,24
 85 -88 85 -88 142 -49 c 128,-1,25
 199 -10 199 -10 246 40 c 128,-1,26
 293 90 293 90 327 143 c 128,-1,27
 361 196 361 196 379.5 247 c 128,-1,28
 398 298 398 298 398 339 c 0,29,30
 398 384 398 384 374.5 410.5 c 128,-1,31
 351 437 351 437 299 437 c 0,32,33
 282 437 282 437 255.5 436 c 128,-1,34
 229 435 229 435 199 428 c 128,-1,35
 169 421 169 421 137 406 c 128,-1,36
 105 391 105 391 78 364 c 0,37,38
 76 362 76 362 72.5 360.5 c 128,-1,39
 69 359 69 359 66 359 c 0,40,41
 60 359 60 359 60 365 c 0,42,43
 60 366 60 366 60.5 368.5 c 128,-1,44
 61 371 61 371 65 381 c 128,-1,45
 69 391 69 391 78 411 c 128,-1,46
 87 431 87 431 103 467 c 128,-1,47
 119 503 119 503 144 558.5 c 128,-1,48
 169 614 169 614 205 694 c 0,49,50
 209 704 209 704 220 704 c 0,51,52
 229 704 229 704 229 698 c 0,53,54
 226 692 226 692 223 683.5 c 128,-1,55
 220 675 220 675 220 670 c 0,56,57
 220 663 220 663 226 663 c 0,58,59
 280 679 280 679 324 685.5 c 128,-1,60
 368 692 368 692 403 692 c 0,61,62
 447 692 447 692 477.5 683 c 128,-1,63
 508 674 508 674 526.5 661 c 128,-1,64
 545 648 545 648 553 633 c 128,-1,65
 561 618 561 618 561 606 c 0,66,67
 561 595 561 595 555.5 587.5 c 128,-1,68
 550 580 550 580 539 580 c 0,69,70
 525 580 525 580 525 593 c 0,71,72
 525 605 525 605 537 608 c 0,73,74
 542 610 542 610 542 616 c 0,75,76
 542 624 542 624 533.5 630.5 c 128,-1,77
 525 637 525 637 511.5 642 c 128,-1,78
 498 647 498 647 481 650 c 128,-1,79
 464 653 464 653 448 653 c 0,80,81
 421 653 421 653 378.5 642.5 c 128,-1,82
 336 632 336 632 293.5 617.5 c 128,-1,83
 251 603 251 603 215.5 587.5 c 128,-1,84
 180 572 180 572 167 561 c 1,85,-1
 95 408 l 1,86,-1
 96 406 l 1,87,88
 142 432 142 432 198.5 444 c 128,-1,89
 255 456 255 456 307 456 c 0,0,1
EndSplineSet
EndChar

StartChar: four
Encoding: 52 52 35
Width: 390
Flags: W
LayerCount: 2
Fore
SplineSet
345 143 m 0,0,1
 369 143 369 143 398.5 152 c 128,-1,2
 428 161 428 161 470 183 c 0,3,4
 476 186 476 186 480 186 c 0,5,6
 488 186 488 186 488 179 c 0,7,8
 488 173 488 173 480 168 c 0,9,10
 438 143 438 143 401 133 c 128,-1,11
 364 123 364 123 329 123 c 0,12,13
 316 123 316 123 303.5 124 c 128,-1,14
 291 125 291 125 279 127 c 1,15,16
 272 110 272 110 266 93.5 c 128,-1,17
 260 77 260 77 252 59 c 0,18,19
 250 54 250 54 249 50.5 c 128,-1,20
 248 47 248 47 248 43 c 0,21,22
 248 29 248 29 259.5 22 c 128,-1,23
 271 15 271 15 288 13 c 0,24,25
 294 12 294 12 299.5 12 c 128,-1,26
 305 12 305 12 315 12 c 0,27,28
 320 12 320 12 320 4 c 0,29,30
 320 0 320 0 317.5 -3.5 c 128,-1,31
 315 -7 315 -7 310 -7 c 0,32,33
 306 -7 306 -7 295 -6.5 c 128,-1,34
 284 -6 284 -6 269 -5 c 128,-1,35
 254 -4 254 -4 236.5 -3.5 c 128,-1,36
 219 -3 219 -3 203 -3 c 0,37,38
 191 -3 191 -3 174 -3 c 128,-1,39
 157 -3 157 -3 141 -3.5 c 128,-1,40
 125 -4 125 -4 112.5 -4.5 c 128,-1,41
 100 -5 100 -5 97 -5 c 0,42,43
 91 -5 91 -5 91 -2 c 128,-1,44
 91 1 91 1 90 4 c 0,45,46
 90 7 90 7 91.5 10.5 c 128,-1,47
 93 14 93 14 98 15 c 0,48,49
 118 15 118 15 131.5 19 c 128,-1,50
 145 23 145 23 154.5 30.5 c 128,-1,51
 164 38 164 38 171.5 50 c 128,-1,52
 179 62 179 62 187 79 c 0,53,54
 190 85 190 85 197 101.5 c 128,-1,55
 204 118 204 118 215 142 c 1,56,57
 164 157 164 157 111.5 173.5 c 128,-1,58
 59 190 59 190 -1 190 c 0,59,60
 -26 190 -26 190 -53 186 c 128,-1,61
 -80 182 -80 182 -109 173 c 0,62,63
 -117 173 -117 173 -122.5 176 c 128,-1,64
 -128 179 -128 179 -128 184 c 0,65,66
 -128 192 -128 192 -115 197 c 0,67,68
 -64 220 -64 220 -20.5 245.5 c 128,-1,69
 23 271 23 271 65 302.5 c 128,-1,70
 107 334 107 334 150.5 372.5 c 128,-1,71
 194 411 194 411 244.5 460 c 128,-1,72
 295 509 295 509 355.5 569.5 c 128,-1,73
 416 630 416 630 493 705 c 0,74,75
 503 713 503 713 513 716 c 128,-1,76
 523 719 523 719 529 719 c 0,77,78
 536 719 536 719 536 716 c 0,79,80
 536 712 536 712 532 707 c 0,81,82
 521 691 521 691 512 675.5 c 128,-1,83
 503 660 503 660 491.5 637.5 c 128,-1,84
 480 615 480 615 465 580 c 128,-1,85
 450 545 450 545 426.5 489 c 128,-1,86
 403 433 403 433 370 351.5 c 128,-1,87
 337 270 337 270 290 154 c 1,88,89
 317 143 317 143 345 143 c 0,0,1
397 578 m 0,90,91
 397 582 397 582 394 582 c 256,92,93
 391 582 391 582 387 578 c 0,94,95
 385 576 385 576 383 575 c 0,96,97
 332 522 332 522 279.5 469 c 128,-1,98
 227 416 227 416 175.5 368.5 c 128,-1,99
 124 321 124 321 75 283 c 128,-1,100
 26 245 26 245 -18 222 c 1,101,-1
 -16 221 l 1,102,103
 5 224 5 224 24 225 c 128,-1,104
 43 226 43 226 60 226 c 0,105,106
 122 226 122 226 162 212.5 c 128,-1,107
 202 199 202 199 232 183 c 1,108,109
 247 219 247 219 266 264 c 128,-1,110
 285 309 285 309 306 360 c 128,-1,111
 327 411 327 411 350 466 c 128,-1,112
 373 521 373 521 397 578 c 0,90,91
EndSplineSet
EndChar

StartChar: g
Encoding: 103 103 36
Width: 436
Flags: W
LayerCount: 2
Fore
SplineSet
296 -211 m 0,0,1
 296 -234 296 -234 285 -244 c 128,-1,2
 274 -254 274 -254 263 -254 c 0,3,4
 254 -254 254 -254 247 -248.5 c 128,-1,5
 240 -243 240 -243 240 -233 c 0,6,7
 240 -224 240 -224 240.5 -218 c 128,-1,8
 241 -212 241 -212 242 -207 c 128,-1,9
 243 -202 243 -202 243.5 -195.5 c 128,-1,10
 244 -189 244 -189 244 -179 c 0,11,12
 244 -145 244 -145 206 -129 c 1,13,14
 174 -172 174 -172 138 -209.5 c 128,-1,15
 102 -247 102 -247 59 -274.5 c 128,-1,16
 16 -302 16 -302 -33.5 -318 c 128,-1,17
 -83 -334 -83 -334 -140 -334 c 0,18,19
 -191 -334 -191 -334 -214.5 -317.5 c 128,-1,20
 -238 -301 -238 -301 -238 -275 c 0,21,22
 -238 -250 -238 -250 -214 -220 c 128,-1,23
 -190 -190 -190 -190 -143.5 -164 c 128,-1,24
 -97 -138 -97 -138 -28 -121 c 128,-1,25
 41 -104 41 -104 130 -104 c 0,26,27
 136 -104 136 -104 142 -104 c 128,-1,28
 148 -104 148 -104 154 -105 c 1,29,30
 199 -38 199 -38 233.5 29 c 128,-1,31
 268 96 268 96 289 144 c 0,32,33
 289 145 289 145 288 146 c 0,34,35
 285 149 285 149 285 149 c 2,36,37
 284 149 284 149 281 146 c 0,38,39
 273 136 273 136 250 110.5 c 128,-1,40
 227 85 227 85 195 58 c 128,-1,41
 163 31 163 31 126 10.5 c 128,-1,42
 89 -10 89 -10 54 -10 c 0,43,44
 18 -10 18 -10 1.5 8.5 c 128,-1,45
 -15 27 -15 27 -15 58 c 256,46,47
 -15 89 -15 89 0 129.5 c 128,-1,48
 15 170 15 170 40.5 212 c 128,-1,49
 66 254 66 254 100.5 294 c 128,-1,50
 135 334 135 334 174 365.5 c 128,-1,51
 213 397 213 397 254 416.5 c 128,-1,52
 295 436 295 436 335 436 c 0,53,54
 360 436 360 436 376.5 431.5 c 128,-1,55
 393 427 393 427 403 420 c 128,-1,56
 413 413 413 413 417 406 c 128,-1,57
 421 399 421 399 422 394 c 1,58,-1
 435 421 l 2,59,60
 438 426 438 426 441.5 429.5 c 128,-1,61
 445 433 445 433 452.5 434.5 c 128,-1,62
 460 436 460 436 473.5 436.5 c 128,-1,63
 487 437 487 437 508 437 c 0,64,65
 523 437 523 437 523 432 c 0,66,67
 523 429 523 429 518 424 c 128,-1,68
 513 419 513 419 508 412 c 0,69,70
 499 401 499 401 486 376.5 c 128,-1,71
 473 352 473 352 457 319.5 c 128,-1,72
 441 287 441 287 422.5 251 c 128,-1,73
 404 215 404 215 386 182 c 0,74,75
 350 116 350 116 309 36.5 c 128,-1,76
 268 -43 268 -43 214 -118 c 1,77,78
 259 -135 259 -135 277.5 -162.5 c 128,-1,79
 296 -190 296 -190 296 -211 c 0,0,1
115 58 m 0,80,81
 144 58 144 58 176 78 c 128,-1,82
 208 98 208 98 239 127.5 c 128,-1,83
 270 157 270 157 297 191 c 128,-1,84
 324 225 324 225 342 252 c 0,85,86
 370 294 370 294 385 325 c 128,-1,87
 400 356 400 356 400 377 c 0,88,89
 400 418 400 418 338 418 c 0,90,91
 310 418 310 418 280.5 401 c 128,-1,92
 251 384 251 384 222 356.5 c 128,-1,93
 193 329 193 329 167.5 294 c 128,-1,94
 142 259 142 259 123 223.5 c 128,-1,95
 104 188 104 188 92.5 155 c 128,-1,96
 81 122 81 122 81 99 c 0,97,98
 81 80 81 80 89 69 c 128,-1,99
 97 58 97 58 115 58 c 0,80,81
-128 -318 m 0,100,101
 -89 -318 -89 -318 -52 -302 c 128,-1,102
 -15 -286 -15 -286 19.5 -258 c 128,-1,103
 54 -230 54 -230 85.5 -194 c 128,-1,104
 117 -158 117 -158 146 -117 c 1,105,-1
 136 -117 l 2,106,107
 63 -117 63 -117 4.5 -134.5 c 128,-1,108
 -54 -152 -54 -152 -95 -177.5 c 128,-1,109
 -136 -203 -136 -203 -158 -231.5 c 128,-1,110
 -180 -260 -180 -260 -180 -282 c 0,111,112
 -180 -298 -180 -298 -167 -308 c 128,-1,113
 -154 -318 -154 -318 -128 -318 c 0,100,101
EndSplineSet
EndChar

StartChar: h
Encoding: 104 104 37
Width: 428
Flags: W
LayerCount: 2
Fore
SplineSet
178 312 m 0,0,1
 176 308 176 308 176 305 c 0,2,3
 176 301 176 301 179 300 c 0,4,5
 180 300 180 300 190 308 c 0,6,7
 211 328 211 328 237.5 351.5 c 128,-1,8
 264 375 264 375 293 394.5 c 128,-1,9
 322 414 322 414 353.5 427 c 128,-1,10
 385 440 385 440 415 440 c 0,11,12
 449 440 449 440 463.5 425 c 128,-1,13
 478 410 478 410 478 384 c 0,14,15
 478 351 478 351 457.5 306.5 c 128,-1,16
 437 262 437 262 404 214.5 c 128,-1,17
 371 167 371 167 329.5 122.5 c 128,-1,18
 288 78 288 78 246 45 c 1,19,20
 270 35 270 35 291 24.5 c 128,-1,21
 312 14 312 14 334 14 c 0,22,23
 347 14 347 14 363 22.5 c 128,-1,24
 379 31 379 31 387 41 c 0,25,26
 391 46 391 46 394 46 c 0,27,28
 401 46 401 46 401 37 c 0,29,30
 401 32 401 32 398 28 c 0,31,32
 396 25 396 25 388.5 17 c 128,-1,33
 381 9 381 9 369 1 c 128,-1,34
 357 -7 357 -7 341.5 -13 c 128,-1,35
 326 -19 326 -19 308 -19 c 0,36,37
 293 -19 293 -19 281.5 -14.5 c 128,-1,38
 270 -10 270 -10 260 -3 c 128,-1,39
 250 4 250 4 240.5 12 c 128,-1,40
 231 20 231 20 220 26 c 1,41,42
 193 8 193 8 168 -2.5 c 128,-1,43
 143 -13 143 -13 122 -13 c 0,44,45
 99 -13 99 -13 99 2 c 0,46,47
 99 9 99 9 106 18.5 c 128,-1,48
 113 28 113 28 125.5 36.5 c 128,-1,49
 138 45 138 45 156 50.5 c 128,-1,50
 174 56 174 56 195 56 c 0,51,52
 202 56 202 56 208.5 55 c 128,-1,53
 215 54 215 54 222 52 c 1,54,55
 252 79 252 79 281 116.5 c 128,-1,56
 310 154 310 154 332.5 193.5 c 128,-1,57
 355 233 355 233 369 271 c 128,-1,58
 383 309 383 309 383 337 c 0,59,60
 383 359 383 359 373.5 372 c 128,-1,61
 364 385 364 385 342 385 c 0,62,63
 322 385 322 385 295 368.5 c 128,-1,64
 268 352 268 352 242 330 c 128,-1,65
 216 308 216 308 194.5 287.5 c 128,-1,66
 173 267 173 267 164 259 c 0,67,68
 162 256 162 256 159 252 c 0,69,70
 157 249 157 249 154.5 245.5 c 128,-1,71
 152 242 152 242 151 239 c 0,72,73
 147 231 147 231 140 217 c 128,-1,74
 133 203 133 203 124.5 184.5 c 128,-1,75
 116 166 116 166 106.5 145 c 128,-1,76
 97 124 97 124 88 103 c 0,77,78
 66 54 66 54 42 -4 c 0,79,80
 39 -8 39 -8 23.5 -11.5 c 128,-1,81
 8 -15 8 -15 -7 -15 c 0,82,83
 -18 -15 -18 -15 -25.5 -12.5 c 128,-1,84
 -33 -10 -33 -10 -33 -5 c 2,85,-1
 -33 -2 l 2,86,87
 -33 -1 -33 -1 -32 -1 c 0,88,89
 -31 1 -31 1 -25.5 14.5 c 128,-1,90
 -20 28 -20 28 -11.5 48 c 128,-1,91
 -3 68 -3 68 8 93.5 c 128,-1,92
 19 119 19 119 31 146 c 0,93,94
 53 196 53 196 80.5 261.5 c 128,-1,95
 108 327 108 327 141 398.5 c 128,-1,96
 174 470 174 470 213 541 c 128,-1,97
 252 612 252 612 297 673 c 1,98,99
 205 698 205 698 157.5 740 c 128,-1,100
 110 782 110 782 110 821 c 0,101,102
 110 855 110 855 147 878 c 128,-1,103
 184 901 184 901 262 901 c 0,104,105
 292 901 292 901 323 896 c 128,-1,106
 354 891 354 891 382 881.5 c 128,-1,107
 410 872 410 872 433 859 c 128,-1,108
 456 846 456 846 471 830 c 1,109,110
 497 842 497 842 524.5 849 c 128,-1,111
 552 856 552 856 581 856 c 0,112,113
 644 856 644 856 678 830 c 128,-1,114
 712 804 712 804 712 770 c 0,115,116
 712 749 712 749 698 728 c 128,-1,117
 684 707 684 707 655.5 689.5 c 128,-1,118
 627 672 627 672 582.5 661.5 c 128,-1,119
 538 651 538 651 477 651 c 0,120,121
 440 651 440 651 407 654 c 128,-1,122
 374 657 374 657 344 662 c 1,123,124
 300 591 300 591 259 501.5 c 128,-1,125
 218 412 218 412 178 312 c 0,0,1
444 815 m 1,126,127
 419 850 419 850 370.5 867.5 c 128,-1,128
 322 885 322 885 273 885 c 0,129,130
 218 885 218 885 189.5 863.5 c 128,-1,131
 161 842 161 842 161 812 c 0,132,133
 161 779 161 779 197 743.5 c 128,-1,134
 233 708 233 708 308 688 c 1,135,136
 339 728 339 728 372.5 760 c 128,-1,137
 406 792 406 792 444 815 c 1,126,127
565 838 m 0,138,139
 543 838 543 838 522.5 831.5 c 128,-1,140
 502 825 502 825 482 814 c 1,141,142
 490 800 490 800 490 787 c 0,143,144
 490 775 490 775 472 775 c 0,145,146
 460 775 460 775 459.5 782 c 128,-1,147
 459 789 459 789 455 794 c 1,148,149
 429 774 429 774 403.5 744.5 c 128,-1,150
 378 715 378 715 354 678 c 1,151,152
 403 669 403 669 464 669 c 0,153,154
 510 669 510 669 544 679 c 128,-1,155
 578 689 578 689 600 704.5 c 128,-1,156
 622 720 622 720 632.5 739 c 128,-1,157
 643 758 643 758 643 776 c 0,158,159
 643 802 643 802 623 820 c 128,-1,160
 603 838 603 838 565 838 c 0,138,139
176 37 m 0,161,162
 152 37 152 37 138.5 29 c 128,-1,163
 125 21 125 21 125 14 c 256,164,165
 125 7 125 7 138 7 c 0,166,167
 152 8 152 8 167.5 15 c 128,-1,168
 183 22 183 22 199 34 c 1,169,170
 188 37 188 37 176 37 c 0,161,162
EndSplineSet
EndChar

StartChar: i
Encoding: 105 105 38
Width: 228
Flags: W
LayerCount: 2
Fore
SplineSet
278 608 m 0,0,1
 278 594 278 594 265 583.5 c 128,-1,2
 252 573 252 573 234 573 c 256,3,4
 216 573 216 573 203.5 583.5 c 128,-1,5
 191 594 191 594 191 608 c 0,6,7
 191 623 191 623 204 633 c 128,-1,8
 217 643 217 643 235 643 c 256,9,10
 253 643 253 643 265.5 633 c 128,-1,11
 278 623 278 623 278 608 c 0,0,1
114 417 m 0,12,13
 109 417 109 417 106 420.5 c 128,-1,14
 103 424 103 424 103 429 c 0,15,16
 103 438 103 438 112 438 c 0,17,18
 115 438 115 438 122 437.5 c 128,-1,19
 129 437 129 437 137.5 437 c 128,-1,20
 146 437 146 437 155 436.5 c 128,-1,21
 164 436 164 436 171 436 c 0,22,23
 185 436 185 436 194.5 436.5 c 128,-1,24
 204 437 204 437 212 437 c 0,25,26
 222 437 222 437 222 431 c 256,27,28
 222 425 222 425 216 410 c 128,-1,29
 210 395 210 395 195.5 364 c 128,-1,30
 181 333 181 333 158.5 282.5 c 128,-1,31
 136 232 136 232 103 156 c 0,32,33
 88 121 88 121 82 102 c 128,-1,34
 76 83 76 83 76 73 c 0,35,36
 76 62 76 62 81 60.5 c 128,-1,37
 86 59 86 59 92 59 c 0,38,39
 109 59 109 59 138 80.5 c 128,-1,40
 167 102 167 102 193 137 c 0,41,42
 197 141 197 141 200 141 c 0,43,44
 210 141 210 141 210 131 c 0,45,46
 210 128 210 128 209 127 c 0,47,48
 203 116 203 116 184 92.5 c 128,-1,49
 165 69 165 69 139 45.5 c 128,-1,50
 113 22 113 22 84 4.5 c 128,-1,51
 55 -13 55 -13 29 -13 c 0,52,53
 6 -13 6 -13 -2.5 -2 c 128,-1,54
 -11 9 -11 9 -11 27 c 0,55,56
 -11 49 -11 49 -0.5 81 c 128,-1,57
 10 113 10 113 26.5 149.5 c 128,-1,58
 43 186 43 186 61.5 224.5 c 128,-1,59
 80 263 80 263 96.5 297.5 c 128,-1,60
 113 332 113 332 123.5 360 c 128,-1,61
 134 388 134 388 134 404 c 0,62,63
 134 414 134 414 128.5 415.5 c 128,-1,64
 123 417 123 417 114 417 c 0,12,13
EndSplineSet
EndChar

StartChar: j
Encoding: 106 106 39
Width: 170
Flags: W
LayerCount: 2
Fore
SplineSet
71 232 m 0,0,1
 90 275 90 275 105 310 c 0,2,3
 118 340 118 340 128.5 368 c 128,-1,4
 139 396 139 396 139 404 c 0,5,6
 139 413 139 413 133.5 415 c 128,-1,7
 128 417 128 417 119 417 c 0,8,9
 114 417 114 417 111 420.5 c 128,-1,10
 108 424 108 424 108 429 c 0,11,12
 108 438 108 438 117 438 c 0,13,14
 120 438 120 438 127 437.5 c 128,-1,15
 134 437 134 437 142.5 437 c 128,-1,16
 151 437 151 437 160 436.5 c 128,-1,17
 169 436 169 436 176 436 c 0,18,19
 190 436 190 436 199.5 436.5 c 128,-1,20
 209 437 209 437 217 437 c 0,21,22
 222 437 222 437 225 435.5 c 128,-1,23
 228 434 228 434 228 428 c 0,24,25
 228 423 228 423 224.5 412.5 c 128,-1,26
 221 402 221 402 213.5 383.5 c 128,-1,27
 206 365 206 365 194 338 c 128,-1,28
 182 311 182 311 164 273 c 0,29,30
 145 232 145 232 122 183.5 c 128,-1,31
 99 135 99 135 72 84 c 128,-1,32
 45 33 45 33 13.5 -18.5 c 128,-1,33
 -18 -70 -18 -70 -54 -117 c 1,34,35
 -10 -134 -10 -134 9 -162 c 128,-1,36
 28 -190 28 -190 28 -211 c 0,37,38
 28 -234 28 -234 17 -244 c 128,-1,39
 6 -254 6 -254 -5 -254 c 0,40,41
 -14 -254 -14 -254 -21 -248.5 c 128,-1,42
 -28 -243 -28 -243 -28 -233 c 0,43,44
 -28 -224 -28 -224 -27.5 -218 c 128,-1,45
 -27 -212 -27 -212 -26 -207 c 128,-1,46
 -25 -202 -25 -202 -24.5 -195.5 c 128,-1,47
 -24 -189 -24 -189 -24 -179 c 0,48,49
 -24 -145 -24 -145 -63 -128 c 1,50,51
 -97 -172 -97 -172 -135.5 -209.5 c 128,-1,52
 -174 -247 -174 -247 -217 -275 c 128,-1,53
 -260 -303 -260 -303 -308 -318.5 c 128,-1,54
 -356 -334 -356 -334 -408 -334 c 0,55,56
 -459 -334 -459 -334 -482.5 -317.5 c 128,-1,57
 -506 -301 -506 -301 -506 -275 c 0,58,59
 -506 -250 -506 -250 -482 -220 c 128,-1,60
 -458 -190 -458 -190 -411.5 -164 c 128,-1,61
 -365 -138 -365 -138 -296 -121 c 128,-1,62
 -227 -104 -227 -104 -138 -104 c 0,63,64
 -130 -104 -130 -104 -124 -104 c 128,-1,65
 -118 -104 -118 -104 -111 -105 c 1,66,67
 -57 -27 -57 -27 -11 61 c 128,-1,68
 35 149 35 149 71 232 c 0,0,1
-132 -117 m 2,69,70
 -205 -117 -205 -117 -263 -134.5 c 128,-1,71
 -321 -152 -321 -152 -362 -177 c 128,-1,72
 -403 -202 -403 -202 -425 -230 c 128,-1,73
 -447 -258 -447 -258 -447 -279 c 0,74,75
 -447 -295 -447 -295 -434 -304.5 c 128,-1,76
 -421 -314 -421 -314 -395 -314 c 0,77,78
 -358 -314 -358 -314 -321.5 -299 c 128,-1,79
 -285 -284 -285 -284 -250.5 -258 c 128,-1,80
 -216 -232 -216 -232 -183.5 -195.5 c 128,-1,81
 -151 -159 -151 -159 -120 -117 c 1,82,-1
 -132 -117 l 2,69,70
286 608 m 0,83,84
 286 594 286 594 273 583.5 c 128,-1,85
 260 573 260 573 242 573 c 256,86,87
 224 573 224 573 211.5 583.5 c 128,-1,88
 199 594 199 594 199 608 c 0,89,90
 199 623 199 623 212 633 c 128,-1,91
 225 643 225 643 243 643 c 256,92,93
 261 643 261 643 273.5 633 c 128,-1,94
 286 623 286 623 286 608 c 0,83,84
EndSplineSet
EndChar

StartChar: k
Encoding: 107 107 40
Width: 470
Flags: W
LayerCount: 2
Fore
SplineSet
581 856 m 0,0,1
 662 856 662 856 702.5 830 c 128,-1,2
 743 804 743 804 743 770 c 0,3,4
 743 750 743 750 728 729.5 c 128,-1,5
 713 709 713 709 683 692.5 c 128,-1,6
 653 676 653 676 608 666 c 128,-1,7
 563 656 563 656 503 656 c 0,8,9
 459 656 459 656 421 660 c 128,-1,10
 383 664 383 664 349 672 c 1,11,12
 302 600 302 600 259 506 c 128,-1,13
 216 412 216 412 174 306 c 0,14,15
 173 304 173 304 167.5 291.5 c 128,-1,16
 162 279 162 279 156 264 c 128,-1,17
 150 249 150 249 145 234.5 c 128,-1,18
 140 220 140 220 140 216 c 0,19,20
 140 214 140 214 141 214 c 256,21,22
 142 214 142 214 144 216 c 0,23,24
 216 294 216 294 269 338 c 128,-1,25
 322 382 322 382 359 403.5 c 128,-1,26
 396 425 396 425 418 429.5 c 128,-1,27
 440 434 440 434 450 434 c 0,28,29
 478 434 478 434 491.5 424 c 128,-1,30
 505 414 505 414 505 398 c 0,31,32
 505 378 505 378 485.5 353.5 c 128,-1,33
 466 329 466 329 427 306 c 0,34,35
 382 279 382 279 345 255 c 128,-1,36
 308 231 308 231 282 207.5 c 128,-1,37
 256 184 256 184 242 159.5 c 128,-1,38
 228 135 228 135 228 106 c 0,39,40
 228 80 228 80 239 65 c 128,-1,41
 250 50 250 50 276 50 c 0,42,43
 303 50 303 50 330 63.5 c 128,-1,44
 357 77 357 77 380.5 97.5 c 128,-1,45
 404 118 404 118 423 142.5 c 128,-1,46
 442 167 442 167 453 189 c 0,47,48
 456 195 456 195 462 195 c 0,49,50
 472 195 472 195 472 185 c 0,51,52
 472 184 472 184 470 178 c 0,53,54
 460 153 460 153 433.5 119.5 c 128,-1,55
 407 86 407 86 371 56 c 128,-1,56
 335 26 335 26 293.5 5 c 128,-1,57
 252 -16 252 -16 212 -16 c 0,58,59
 177 -16 177 -16 153 0 c 128,-1,60
 129 16 129 16 129 45 c 0,61,62
 129 77 129 77 150 109 c 128,-1,63
 171 141 171 141 202.5 170.5 c 128,-1,64
 234 200 234 200 271 227.5 c 128,-1,65
 308 255 308 255 339.5 279 c 128,-1,66
 371 303 371 303 392 322.5 c 128,-1,67
 413 342 413 342 413 356 c 256,68,69
 413 370 413 370 404.5 374 c 128,-1,70
 396 378 396 378 386 378 c 0,71,72
 363 378 363 378 326 355 c 128,-1,73
 289 332 289 332 248 294.5 c 128,-1,74
 207 257 207 257 167.5 210 c 128,-1,75
 128 163 128 163 101 116 c 0,76,77
 93 101 93 101 82.5 80.5 c 128,-1,78
 72 60 72 60 63 41 c 0,79,80
 52 19 52 19 42 -4 c 0,81,82
 39 -8 39 -8 23.5 -11.5 c 128,-1,83
 8 -15 8 -15 -7 -15 c 0,84,85
 -18 -15 -18 -15 -25.5 -12.5 c 128,-1,86
 -33 -10 -33 -10 -33 -5 c 2,87,-1
 -33 -2 l 2,88,89
 -33 -1 -33 -1 -32 -1 c 0,90,91
 -31 1 -31 1 -25.5 14.5 c 128,-1,92
 -20 28 -20 28 -11.5 48 c 128,-1,93
 -3 68 -3 68 8 93.5 c 128,-1,94
 19 119 19 119 31 146 c 0,95,96
 53 197 53 197 81 264.5 c 128,-1,97
 109 332 109 332 143 404.5 c 128,-1,98
 177 477 177 477 217 549.5 c 128,-1,99
 257 622 257 622 304 683 c 1,100,101
 222 709 222 709 179 749 c 128,-1,102
 136 789 136 789 136 826 c 0,103,104
 136 860 136 860 173 883 c 128,-1,105
 210 906 210 906 288 906 c 0,106,107
 317 906 317 906 347 901 c 128,-1,108
 377 896 377 896 404.5 887.5 c 128,-1,109
 432 879 432 879 455 866.5 c 128,-1,110
 478 854 478 854 493 839 c 1,111,112
 536 856 536 856 581 856 c 0,0,1
516 792 m 0,113,114
 516 780 516 780 498 780 c 0,115,116
 491 780 491 780 488 783 c 0,117,118
 486 785 486 785 485 787 c 0,119,120
 482 799 482 799 476 811 c 1,121,122
 445 791 445 791 416 760 c 128,-1,123
 387 729 387 729 359 687 c 1,124,125
 387 681 387 681 419.5 677.5 c 128,-1,126
 452 674 452 674 490 674 c 0,127,128
 535 674 535 674 568.5 683 c 128,-1,129
 602 692 602 692 625 706 c 128,-1,130
 648 720 648 720 659.5 738 c 128,-1,131
 671 756 671 756 671 773 c 0,132,133
 671 799 671 799 645 818.5 c 128,-1,134
 619 838 619 838 565 838 c 0,135,136
 536 838 536 838 505 825 c 1,137,138
 516 809 516 809 516 792 c 0,113,114
299 890 m 0,139,140
 244 890 244 890 215.5 868.5 c 128,-1,141
 187 847 187 847 187 817 c 0,142,143
 187 785 187 785 218.5 752 c 128,-1,144
 250 719 250 719 316 698 c 1,145,146
 350 740 350 740 387 773 c 128,-1,147
 424 806 424 806 465 827 c 1,148,149
 439 859 439 859 392.5 874.5 c 128,-1,150
 346 890 346 890 299 890 c 0,139,140
EndSplineSet
EndChar

StartChar: l
Encoding: 108 108 41
Width: 231
Flags: W
LayerCount: 2
Fore
SplineSet
27 146 m 0,0,1
 60 216 60 216 93.5 290 c 128,-1,2
 127 364 127 364 162.5 435 c 128,-1,3
 198 506 198 506 237 572 c 128,-1,4
 276 638 276 638 320 692 c 1,5,6
 248 718 248 718 210.5 755.5 c 128,-1,7
 173 793 173 793 173 828 c 0,8,9
 173 862 173 862 210 885 c 128,-1,10
 247 908 247 908 325 908 c 0,11,12
 353 908 353 908 382.5 903.5 c 128,-1,13
 412 899 412 899 439 890.5 c 128,-1,14
 466 882 466 882 488.5 870.5 c 128,-1,15
 511 859 511 859 527 844 c 1,16,17
 571 858 571 858 618 858 c 0,18,19
 699 858 699 858 739.5 832 c 128,-1,20
 780 806 780 806 780 772 c 0,21,22
 780 752 780 752 765 731.5 c 128,-1,23
 750 711 750 711 720 694.5 c 128,-1,24
 690 678 690 678 645 668 c 128,-1,25
 600 658 600 658 540 658 c 0,26,27
 488 658 488 658 443 663.5 c 128,-1,28
 398 669 398 669 360 680 c 1,29,30
 311 611 311 611 267 518.5 c 128,-1,31
 223 426 223 426 176 314 c 0,32,33
 173 308 173 308 165 290.5 c 128,-1,34
 157 273 157 273 146.5 249.5 c 128,-1,35
 136 226 136 226 124.5 199 c 128,-1,36
 113 172 113 172 103.5 147.5 c 128,-1,37
 94 123 94 123 87.5 103.5 c 128,-1,38
 81 84 81 84 81 75 c 0,39,40
 81 67 81 67 85 65.5 c 128,-1,41
 89 64 89 64 96 64 c 0,42,43
 113 64 113 64 140 83 c 128,-1,44
 167 102 167 102 193 137 c 0,45,46
 197 141 197 141 200 141 c 0,47,48
 210 141 210 141 210 131 c 0,49,50
 210 129 210 129 209 127 c 0,51,52
 203 116 203 116 184 92.5 c 128,-1,53
 165 69 165 69 139 45.5 c 128,-1,54
 113 22 113 22 84 4.5 c 128,-1,55
 55 -13 55 -13 29 -13 c 0,56,57
 6 -13 6 -13 -2.5 -2 c 128,-1,58
 -11 9 -11 9 -11 27 c 0,59,60
 -11 51 -11 51 1 82.5 c 128,-1,61
 13 114 13 114 27 146 c 0,0,1
553 794 m 0,62,63
 553 782 553 782 535 782 c 0,64,65
 528 782 528 782 525 785 c 0,66,67
 523 787 523 787 522 789 c 0,68,69
 517 805 517 805 510 818 c 1,70,71
 471 799 471 799 437 767.5 c 128,-1,72
 403 736 403 736 371 694 c 1,73,74
 403 686 403 686 441.5 681 c 128,-1,75
 480 676 480 676 527 676 c 0,76,77
 573 676 573 676 607 686 c 128,-1,78
 641 696 641 696 663 711.5 c 128,-1,79
 685 727 685 727 695.5 746 c 128,-1,80
 706 765 706 765 706 783 c 0,81,82
 706 809 706 809 686 827 c 128,-1,83
 666 845 666 845 628 845 c 0,84,85
 604 845 604 845 582 841.5 c 128,-1,86
 560 838 560 838 539 831 c 1,87,88
 553 812 553 812 553 794 c 0,62,63
497 834 m 1,89,90
 471 863 471 863 426 877.5 c 128,-1,91
 381 892 381 892 336 892 c 0,92,93
 281 892 281 892 252.5 870.5 c 128,-1,94
 224 849 224 849 224 819 c 0,95,96
 224 790 224 790 250.5 759.5 c 128,-1,97
 277 729 277 729 332 707 c 1,98,99
 369 750 369 750 410 782.5 c 128,-1,100
 451 815 451 815 497 834 c 1,89,90
EndSplineSet
EndChar

StartChar: m
Encoding: 109 109 42
Width: 593
Flags: W
LayerCount: 2
Fore
SplineSet
165 7 m 0,0,1
 176 30 176 30 191 63.5 c 128,-1,2
 206 97 206 97 222.5 134.5 c 128,-1,3
 239 172 239 172 255 210 c 128,-1,4
 271 248 271 248 284 280 c 128,-1,5
 297 312 297 312 305 334.5 c 128,-1,6
 313 357 313 357 313 364 c 256,7,8
 313 371 313 371 305 371 c 0,9,10
 293 371 293 371 274 355.5 c 128,-1,11
 255 340 255 340 233 314.5 c 128,-1,12
 211 289 211 289 188 258 c 128,-1,13
 165 227 165 227 144 195.5 c 128,-1,14
 123 164 123 164 106.5 135.5 c 128,-1,15
 90 107 90 107 82 88 c 256,16,17
 74 69 74 69 66.5 52.5 c 128,-1,18
 59 36 59 36 54 23 c 0,19,20
 48 8 48 8 42 -4 c 0,21,22
 39 -8 39 -8 23.5 -11.5 c 128,-1,23
 8 -15 8 -15 -7 -15 c 0,24,25
 -18 -15 -18 -15 -25.5 -12.5 c 128,-1,26
 -33 -10 -33 -10 -33 -5 c 2,27,-1
 -33 -2 l 2,28,29
 -33 -1 -33 -1 -32 -1 c 0,30,31
 -31 1 -31 1 -25.5 14.5 c 128,-1,32
 -20 28 -20 28 -11.5 48 c 128,-1,33
 -3 68 -3 68 8 93.5 c 128,-1,34
 19 119 19 119 31 146 c 0,35,36
 61 212 61 212 81.5 257.5 c 128,-1,37
 102 303 102 303 114.5 333 c 128,-1,38
 127 363 127 363 132.5 380 c 128,-1,39
 138 397 138 397 138 405 c 0,40,41
 138 414 138 414 133 415.5 c 128,-1,42
 128 417 128 417 119 417 c 0,43,44
 114 417 114 417 111 420.5 c 128,-1,45
 108 424 108 424 108 429 c 0,46,47
 108 438 108 438 117 438 c 0,48,49
 120 438 120 438 127 437.5 c 128,-1,50
 134 437 134 437 142.5 437 c 128,-1,51
 151 437 151 437 160 436.5 c 128,-1,52
 169 436 169 436 176 436 c 0,53,54
 190 436 190 436 199.5 436.5 c 128,-1,55
 209 437 209 437 217 437 c 0,56,57
 227 437 227 437 227 430 c 0,58,59
 227 422 227 422 218 403.5 c 128,-1,60
 209 385 209 385 192 343 c 2,61,-1
 156 251 l 2,62,63
 156 247 156 247 159 246 c 0,64,65
 174 265 174 265 199 297 c 128,-1,66
 224 329 224 329 252.5 360 c 128,-1,67
 281 391 281 391 310 413.5 c 128,-1,68
 339 436 339 436 364 436 c 0,69,70
 379 436 379 436 386.5 425.5 c 128,-1,71
 394 415 394 415 394 400 c 0,72,73
 394 381 394 381 386 355.5 c 128,-1,74
 378 330 378 330 368 306 c 128,-1,75
 358 282 358 282 350 262.5 c 128,-1,76
 342 243 342 243 342 237 c 0,77,78
 342 235 342 235 344 235 c 0,79,80
 360 254 360 254 387.5 288 c 128,-1,81
 415 322 415 322 447 356 c 128,-1,82
 479 390 479 390 513 415 c 128,-1,83
 547 440 547 440 577 440 c 0,84,85
 611 440 611 440 625.5 425 c 128,-1,86
 640 410 640 410 640 384 c 0,87,88
 640 351 640 351 619.5 306.5 c 128,-1,89
 599 262 599 262 566 214.5 c 128,-1,90
 533 167 533 167 491.5 122.5 c 128,-1,91
 450 78 450 78 408 45 c 1,92,93
 432 35 432 35 453 24.5 c 128,-1,94
 474 14 474 14 496 14 c 0,95,96
 507 14 507 14 522.5 20.5 c 128,-1,97
 538 27 538 27 549 41 c 0,98,99
 553 46 553 46 556 46 c 0,100,101
 563 46 563 46 563 37 c 0,102,103
 563 32 563 32 560 28 c 0,104,105
 558 25 558 25 550.5 17 c 128,-1,106
 543 9 543 9 531 1 c 128,-1,107
 519 -7 519 -7 503.5 -13 c 128,-1,108
 488 -19 488 -19 470 -19 c 0,109,110
 455 -19 455 -19 443.5 -14.5 c 128,-1,111
 432 -10 432 -10 422 -3 c 128,-1,112
 412 4 412 4 402.5 12 c 128,-1,113
 393 20 393 20 382 26 c 1,114,115
 355 8 355 8 330 -2.5 c 128,-1,116
 305 -13 305 -13 284 -13 c 0,117,118
 261 -13 261 -13 261 2 c 0,119,120
 261 9 261 9 268 18.5 c 128,-1,121
 275 28 275 28 287.5 36.5 c 128,-1,122
 300 45 300 45 318 50.5 c 128,-1,123
 336 56 336 56 357 56 c 0,124,125
 370 56 370 56 382 53 c 1,126,127
 413 83 413 83 443.5 125 c 128,-1,128
 474 167 474 167 498 210 c 128,-1,129
 522 253 522 253 536.5 292.5 c 128,-1,130
 551 332 551 332 551 356 c 0,131,132
 551 384 551 384 531 384 c 0,133,134
 514 384 514 384 483 357.5 c 128,-1,135
 452 331 452 331 417.5 292 c 128,-1,136
 383 253 383 253 350.5 209 c 128,-1,137
 318 165 318 165 298 130 c 0,138,139
 289 115 289 115 280.5 97.5 c 128,-1,140
 272 80 272 80 264 62.5 c 128,-1,141
 256 45 256 45 249.5 29.5 c 128,-1,142
 243 14 243 14 239 4 c 0,143,144
 236 0 236 0 220.5 -3.5 c 128,-1,145
 205 -7 205 -7 190 -7 c 0,146,147
 179 -7 179 -7 171.5 -4.5 c 128,-1,148
 164 -2 164 -2 164 3 c 2,149,-1
 164 6 l 2,150,151
 164 7 164 7 165 7 c 0,0,1
338 37 m 0,152,153
 314 37 314 37 300.5 29 c 128,-1,154
 287 21 287 21 287 14 c 256,155,156
 287 7 287 7 300 7 c 0,157,158
 314 8 314 8 329 15 c 128,-1,159
 344 22 344 22 360 34 c 1,160,161
 349 37 349 37 338 37 c 0,152,153
EndSplineSet
EndChar

StartChar: n
Encoding: 110 110 43
Width: 432
Flags: W
LayerCount: 2
Fore
SplineSet
176 305 m 2,0,1
 176 301 176 301 179 300 c 0,2,3
 180 300 180 300 190 308 c 0,4,5
 211 328 211 328 237.5 351.5 c 128,-1,6
 264 375 264 375 293 394.5 c 128,-1,7
 322 414 322 414 353.5 427 c 128,-1,8
 385 440 385 440 415 440 c 0,9,10
 449 440 449 440 463.5 425 c 128,-1,11
 478 410 478 410 478 384 c 0,12,13
 478 351 478 351 457.5 306.5 c 128,-1,14
 437 262 437 262 404 214.5 c 128,-1,15
 371 167 371 167 329.5 122.5 c 128,-1,16
 288 78 288 78 246 45 c 1,17,18
 270 35 270 35 291 24.5 c 128,-1,19
 312 14 312 14 334 14 c 0,20,21
 345 14 345 14 360.5 20.5 c 128,-1,22
 376 27 376 27 387 41 c 0,23,24
 390 45 390 45 391 45.5 c 128,-1,25
 392 46 392 46 394 46 c 0,26,27
 401 46 401 46 401 37 c 0,28,29
 401 32 401 32 398 28 c 0,30,31
 396 25 396 25 388.5 17 c 128,-1,32
 381 9 381 9 369 1 c 128,-1,33
 357 -7 357 -7 341.5 -13 c 128,-1,34
 326 -19 326 -19 308 -19 c 0,35,36
 293 -19 293 -19 281.5 -14.5 c 128,-1,37
 270 -10 270 -10 260 -3 c 128,-1,38
 250 4 250 4 240.5 12 c 128,-1,39
 231 20 231 20 220 26 c 1,40,41
 193 8 193 8 168 -2.5 c 128,-1,42
 143 -13 143 -13 122 -13 c 0,43,44
 99 -13 99 -13 99 2 c 0,45,46
 99 9 99 9 106 18.5 c 128,-1,47
 113 28 113 28 125.5 36.5 c 128,-1,48
 138 45 138 45 156 50.5 c 128,-1,49
 174 56 174 56 195 56 c 0,50,51
 202 56 202 56 208.5 55 c 128,-1,52
 215 54 215 54 222 52 c 1,53,54
 252 79 252 79 281 117 c 128,-1,55
 310 155 310 155 332.5 195 c 128,-1,56
 355 235 355 235 369 273 c 128,-1,57
 383 311 383 311 383 338 c 0,58,59
 383 359 383 359 373.5 372 c 128,-1,60
 364 385 364 385 342 385 c 0,61,62
 323 385 323 385 293.5 367 c 128,-1,63
 264 349 264 349 235 325 c 128,-1,64
 206 301 206 301 182.5 276.5 c 128,-1,65
 159 252 159 252 151 239 c 0,66,67
 146 232 146 232 139 217.5 c 128,-1,68
 132 203 132 203 124 184.5 c 128,-1,69
 116 166 116 166 106.5 145 c 128,-1,70
 97 124 97 124 88 103 c 0,71,72
 67 54 67 54 42 -4 c 0,73,74
 39 -8 39 -8 23.5 -11.5 c 128,-1,75
 8 -15 8 -15 -7 -15 c 0,76,77
 -18 -15 -18 -15 -25.5 -12.5 c 128,-1,78
 -33 -10 -33 -10 -33 -5 c 2,79,-1
 -33 -2 l 2,80,81
 -33 -1 -33 -1 -32 -1 c 0,82,83
 -25 18 -25 18 -9.5 52.5 c 128,-1,84
 6 87 6 87 24.5 128.5 c 128,-1,85
 43 170 43 170 63.5 214 c 128,-1,86
 84 258 84 258 100.5 297 c 128,-1,87
 117 336 117 336 127.5 365 c 128,-1,88
 138 394 138 394 138 405 c 0,89,90
 138 414 138 414 133 415.5 c 128,-1,91
 128 417 128 417 119 417 c 0,92,93
 114 417 114 417 111 420.5 c 128,-1,94
 108 424 108 424 108 429 c 0,95,96
 108 438 108 438 117 438 c 0,97,98
 120 438 120 438 127 437.5 c 128,-1,99
 134 437 134 437 142.5 437 c 128,-1,100
 151 437 151 437 160 436.5 c 128,-1,101
 169 436 169 436 176 436 c 0,102,103
 190 436 190 436 199.5 436.5 c 128,-1,104
 209 437 209 437 217 437 c 0,105,106
 227 437 227 437 227 430 c 0,107,108
 227 422 227 422 218 403.5 c 128,-1,109
 209 385 209 385 192 343 c 2,110,-1
 176 305 l 2,0,1
176 37 m 0,111,112
 152 37 152 37 138.5 29 c 128,-1,113
 125 21 125 21 125 14 c 256,114,115
 125 7 125 7 138 7 c 0,116,117
 152 8 152 8 167.5 15 c 128,-1,118
 183 22 183 22 199 34 c 1,119,120
 188 37 188 37 176 37 c 0,111,112
EndSplineSet
EndChar

StartChar: nine
Encoding: 57 57 44
Width: 559
Flags: W
LayerCount: 2
Fore
SplineSet
-42 27 m 0,0,1
 -33 27 -33 27 -29 22 c 0,2,3
 -23 15 -23 15 -5.5 5.5 c 128,-1,4
 12 -4 12 -4 36 -4 c 0,5,6
 102 -4 102 -4 165.5 22.5 c 128,-1,7
 229 49 229 49 285 91.5 c 128,-1,8
 341 134 341 134 387 187.5 c 128,-1,9
 433 241 433 241 464 295 c 1,10,-1
 464 297 l 2,11,12
 464 299 464 299 462 299 c 0,13,14
 448 289 448 289 426 274 c 128,-1,15
 404 259 404 259 375.5 245.5 c 128,-1,16
 347 232 347 232 313 222 c 128,-1,17
 279 212 279 212 241 212 c 0,18,19
 194 212 194 212 161 223 c 128,-1,20
 128 234 128 234 107 253 c 128,-1,21
 86 272 86 272 76.5 298.5 c 128,-1,22
 67 325 67 325 67 355 c 0,23,24
 67 393 67 393 81 435.5 c 128,-1,25
 95 478 95 478 120.5 519.5 c 128,-1,26
 146 561 146 561 181.5 599 c 128,-1,27
 217 637 217 637 260 665.5 c 128,-1,28
 303 694 303 694 351 711 c 128,-1,29
 399 728 399 728 451 728 c 256,30,31
 503 728 503 728 541 715 c 128,-1,32
 579 702 579 702 603 679.5 c 128,-1,33
 627 657 627 657 638.5 625.5 c 128,-1,34
 650 594 650 594 650 557 c 0,35,36
 650 501 650 501 626.5 436 c 128,-1,37
 603 371 603 371 561 306 c 128,-1,38
 519 241 519 241 460.5 180.5 c 128,-1,39
 402 120 402 120 331.5 73.5 c 128,-1,40
 261 27 261 27 182 -1 c 128,-1,41
 103 -29 103 -29 19 -29 c 0,42,43
 -24 -29 -24 -29 -45 -15.5 c 128,-1,44
 -66 -2 -66 -2 -66 11 c 0,45,46
 -66 27 -66 27 -42 27 c 0,0,1
253 234 m 0,47,48
 280 234 280 234 307.5 241 c 128,-1,49
 335 248 335 248 361.5 259 c 128,-1,50
 388 270 388 270 411.5 285 c 128,-1,51
 435 300 435 300 454 316 c 0,52,53
 477 335 477 335 497 364 c 128,-1,54
 517 393 517 393 532 427.5 c 128,-1,55
 547 462 547 462 555.5 498.5 c 128,-1,56
 564 535 564 535 564 569 c 0,57,58
 564 597 564 597 557.5 622.5 c 128,-1,59
 551 648 551 648 536 666.5 c 128,-1,60
 521 685 521 685 497 696 c 128,-1,61
 473 707 473 707 439 707 c 0,62,63
 403 707 403 707 368 690 c 128,-1,64
 333 673 333 673 302 644 c 128,-1,65
 271 615 271 615 244.5 577.5 c 128,-1,66
 218 540 218 540 199 499.5 c 128,-1,67
 180 459 180 459 169.5 418.5 c 128,-1,68
 159 378 159 378 159 343 c 0,69,70
 159 295 159 295 181 264.5 c 128,-1,71
 203 234 203 234 253 234 c 0,47,48
EndSplineSet
EndChar

StartChar: o
Encoding: 111 111 45
Width: 385
Flags: W
LayerCount: 2
Fore
SplineSet
99 -10 m 0,0,1
 45 -10 45 -10 22.5 17 c 128,-1,2
 0 44 0 44 0 87 c 0,3,4
 0 137 0 137 27 198.5 c 128,-1,5
 54 260 54 260 97.5 314 c 128,-1,6
 141 368 141 368 196 404.5 c 128,-1,7
 251 441 251 441 307 441 c 0,8,9
 362 441 362 441 386 413.5 c 128,-1,10
 410 386 410 386 410 342 c 0,11,12
 410 309 410 309 397.5 270 c 128,-1,13
 385 231 385 231 363.5 192 c 128,-1,14
 342 153 342 153 312 116.5 c 128,-1,15
 282 80 282 80 247.5 52 c 128,-1,16
 213 24 213 24 175 7 c 128,-1,17
 137 -10 137 -10 99 -10 c 0,0,1
260 402 m 0,18,19
 228 402 228 402 197 374 c 128,-1,20
 166 346 166 346 141 304 c 128,-1,21
 116 262 116 262 101 214 c 128,-1,22
 86 166 86 166 86 126 c 0,23,24
 86 90 86 90 101 66 c 128,-1,25
 116 42 116 42 150 42 c 0,26,27
 187 42 187 42 222 68.5 c 128,-1,28
 257 95 257 95 284.5 135 c 128,-1,29
 312 175 312 175 328.5 221.5 c 128,-1,30
 345 268 345 268 345 308 c 0,31,32
 345 349 345 349 325.5 375.5 c 128,-1,33
 306 402 306 402 260 402 c 0,18,19
EndSplineSet
EndChar

StartChar: one
Encoding: 49 49 46
Width: 252
Flags: W
LayerCount: 2
Fore
SplineSet
177 654 m 0,0,1
 204 660 204 660 233 672.5 c 128,-1,2
 262 685 262 685 288 699 c 128,-1,3
 314 713 314 713 334.5 726 c 128,-1,4
 355 739 355 739 366 747 c 0,5,6
 371 751 371 751 375 751 c 0,7,8
 380 751 380 751 381.5 747 c 128,-1,9
 383 743 383 743 383 738 c 256,10,11
 383 733 383 733 382 732 c 0,12,13
 372 724 372 724 363 715.5 c 128,-1,14
 354 707 354 707 343 684 c 0,15,16
 338 674 338 674 331.5 661 c 128,-1,17
 325 648 325 648 313 623 c 128,-1,18
 301 598 301 598 282.5 557 c 128,-1,19
 264 516 264 516 236 450 c 128,-1,20
 208 384 208 384 168.5 288 c 128,-1,21
 129 192 129 192 75 59 c 0,22,23
 73 54 73 54 72 50.5 c 128,-1,24
 71 47 71 47 71 43 c 0,25,26
 71 29 71 29 82.5 22 c 128,-1,27
 94 15 94 15 111 13 c 0,28,29
 117 12 117 12 122.5 12 c 128,-1,30
 128 12 128 12 138 12 c 0,31,32
 143 12 143 12 143 4 c 0,33,34
 143 0 143 0 140.5 -3.5 c 128,-1,35
 138 -7 138 -7 133 -7 c 0,36,37
 129 -7 129 -7 118 -6.5 c 128,-1,38
 107 -6 107 -6 92 -5 c 128,-1,39
 77 -4 77 -4 59.5 -3.5 c 128,-1,40
 42 -3 42 -3 26 -3 c 0,41,42
 14 -3 14 -3 -3 -3 c 128,-1,43
 -20 -3 -20 -3 -36 -3.5 c 128,-1,44
 -52 -4 -52 -4 -64.5 -4.5 c 128,-1,45
 -77 -5 -77 -5 -80 -5 c 0,46,47
 -86 -5 -86 -5 -86 -2 c 128,-1,48
 -86 1 -86 1 -87 4 c 0,49,50
 -87 7 -87 7 -85.5 10.5 c 128,-1,51
 -84 14 -84 14 -79 15 c 0,52,53
 -59 15 -59 15 -45.5 19 c 128,-1,54
 -32 23 -32 23 -22.5 30.5 c 128,-1,55
 -13 38 -13 38 -5.5 50 c 128,-1,56
 2 62 2 62 10 79 c 0,57,58
 16 92 16 92 37.5 142 c 128,-1,59
 59 192 59 192 90 265.5 c 128,-1,60
 121 339 121 339 159 430 c 128,-1,61
 197 521 197 521 236 617 c 0,62,63
 236 618 236 618 237 620 c 0,64,65
 237 622 237 622 237.5 623.5 c 128,-1,66
 238 625 238 625 238 627 c 0,67,68
 238 639 238 639 219 639 c 0,69,70
 205 639 205 639 189 634.5 c 128,-1,71
 173 630 173 630 168 630 c 0,72,73
 156 630 156 630 156 639 c 0,74,75
 156 650 156 650 177 654 c 0,0,1
EndSplineSet
EndChar

StartChar: p
Encoding: 112 112 47
Width: 399
Flags: W
LayerCount: 2
Fore
SplineSet
136 404 m 256,0,1
 136 412 136 412 131 413.5 c 128,-1,2
 126 415 126 415 118 415 c 0,3,4
 113 415 113 415 110 418.5 c 128,-1,5
 107 422 107 422 107 427 c 0,6,7
 107 436 107 436 116 436 c 0,8,9
 119 436 119 436 126 435.5 c 128,-1,10
 133 435 133 435 141.5 435 c 128,-1,11
 150 435 150 435 159 434.5 c 128,-1,12
 168 434 168 434 175 434 c 0,13,14
 189 434 189 434 198.5 434.5 c 128,-1,15
 208 435 208 435 216 435 c 256,16,17
 224 435 224 435 224 428 c 0,18,19
 224 419 224 419 207 384 c 128,-1,20
 190 349 190 349 161 272 c 1,21,22
 161 272 161 272 162 271 c 1,23,24
 183 303 183 303 208 331.5 c 128,-1,25
 233 360 233 360 260 381.5 c 128,-1,26
 287 403 287 403 314 415.5 c 128,-1,27
 341 428 341 428 366 428 c 0,28,29
 403 428 403 428 419.5 408 c 128,-1,30
 436 388 436 388 436 356 c 0,31,32
 436 325 436 325 422.5 285 c 128,-1,33
 409 245 409 245 385.5 203.5 c 128,-1,34
 362 162 362 162 330.5 122.5 c 128,-1,35
 299 83 299 83 264 52.5 c 128,-1,36
 229 22 229 22 191.5 3 c 128,-1,37
 154 -16 154 -16 119 -16 c 0,38,39
 91 -16 91 -16 79 -2 c 128,-1,40
 67 12 67 12 67 26 c 0,41,42
 67 36 67 36 72 43 c 128,-1,43
 77 50 77 50 86 50 c 0,44,45
 89 50 89 50 93 48 c 0,46,47
 101 44 101 44 101 32 c 0,48,49
 101 16 101 16 106 9.5 c 128,-1,50
 111 3 111 3 126 3 c 0,51,52
 154 3 154 3 181 20.5 c 128,-1,53
 208 38 208 38 232 66 c 128,-1,54
 256 94 256 94 276.5 130 c 128,-1,55
 297 166 297 166 311.5 203 c 128,-1,56
 326 240 326 240 334 274.5 c 128,-1,57
 342 309 342 309 342 335 c 0,58,59
 342 358 342 358 335 371 c 128,-1,60
 328 384 328 384 314 384 c 0,61,62
 282 384 282 384 242.5 346 c 128,-1,63
 203 308 203 308 161 248 c 0,64,65
 148 230 148 230 139 214.5 c 128,-1,66
 130 199 130 199 123 188 c 0,67,68
 115 175 115 175 110 163 c 0,69,70
 24 -37 24 -37 -47 -148 c 1,71,72
 -34 -146 -34 -146 -21.5 -146 c 128,-1,73
 -9 -146 -9 -146 5 -146 c 0,74,75
 61 -146 61 -146 94 -164.5 c 128,-1,76
 127 -183 127 -183 127 -209 c 0,77,78
 127 -220 127 -220 120.5 -227 c 128,-1,79
 114 -234 114 -234 107 -234 c 0,80,81
 97 -234 97 -234 93 -222 c 0,82,83
 82 -194 82 -194 50 -179.5 c 128,-1,84
 18 -165 18 -165 -24 -165 c 0,85,86
 -33 -165 -33 -165 -42 -165 c 128,-1,87
 -51 -165 -51 -165 -59 -166 c 1,88,89
 -76 -190 -76 -190 -93 -210.5 c 128,-1,90
 -110 -231 -110 -231 -127 -248 c 0,91,92
 -160 -280 -160 -280 -204 -299 c 128,-1,93
 -248 -318 -248 -318 -282 -318 c 0,94,95
 -302 -318 -302 -318 -315 -310 c 128,-1,96
 -328 -302 -328 -302 -328 -285 c 0,97,98
 -328 -270 -328 -270 -313.5 -252 c 128,-1,99
 -299 -234 -299 -234 -271.5 -216 c 128,-1,100
 -244 -198 -244 -198 -204.5 -182 c 128,-1,101
 -165 -166 -165 -166 -115 -157 c 1,102,103
 -86 -108 -86 -108 -56.5 -49.5 c 128,-1,104
 -27 9 -27 9 1 71 c 128,-1,105
 29 133 29 133 54.5 194.5 c 128,-1,106
 80 256 80 256 103 310 c 0,107,108
 118 345 118 345 127 370.5 c 128,-1,109
 136 396 136 396 136 404 c 256,0,1
-297 -279 m 0,110,111
 -297 -293 -297 -293 -290 -298.5 c 128,-1,112
 -283 -304 -283 -304 -272 -304 c 0,113,114
 -255 -304 -255 -304 -234.5 -293.5 c 128,-1,115
 -214 -283 -214 -283 -199 -269 c 0,116,117
 -181 -252 -181 -252 -163 -228.5 c 128,-1,118
 -145 -205 -145 -205 -126 -176 c 1,119,120
 -165 -184 -165 -184 -197 -197 c 128,-1,121
 -229 -210 -229 -210 -251 -224.5 c 128,-1,122
 -273 -239 -273 -239 -285 -253.5 c 128,-1,123
 -297 -268 -297 -268 -297 -279 c 0,110,111
EndSplineSet
EndChar

StartChar: q
Encoding: 113 113 48
Width: 434
Flags: W
LayerCount: 2
Fore
SplineSet
408 -258 m 0,0,1
 408 -292 408 -292 379.5 -318.5 c 128,-1,2
 351 -345 351 -345 300 -345 c 0,3,4
 238 -345 238 -345 213 -308 c 128,-1,5
 188 -271 188 -271 188 -214 c 0,6,7
 188 -191 188 -191 191 -165 c 1,8,9
 155 -170 155 -170 133.5 -185 c 128,-1,10
 112 -200 112 -200 112 -226 c 0,11,12
 112 -236 112 -236 113 -241 c 128,-1,13
 114 -246 114 -246 115 -249.5 c 128,-1,14
 116 -253 116 -253 117 -257.5 c 128,-1,15
 118 -262 118 -262 118 -271 c 0,16,17
 118 -282 118 -282 109 -289 c 128,-1,18
 100 -296 100 -296 89 -296 c 256,19,20
 78 -296 78 -296 69 -287.5 c 128,-1,21
 60 -279 60 -279 60 -258 c 0,22,23
 60 -245 60 -245 67.5 -229 c 128,-1,24
 75 -213 75 -213 91 -197.5 c 128,-1,25
 107 -182 107 -182 132 -169.5 c 128,-1,26
 157 -157 157 -157 193 -152 c 1,27,28
 199 -112 199 -112 211 -69.5 c 128,-1,29
 223 -27 223 -27 237.5 12.5 c 128,-1,30
 252 52 252 52 266.5 86 c 128,-1,31
 281 120 281 120 293 144 c 0,32,33
 293 145 293 145 292 146 c 0,34,35
 289 149 289 149 289 149 c 2,36,37
 288 149 288 149 285 146 c 0,38,39
 277 136 277 136 254 110.5 c 128,-1,40
 231 85 231 85 199 58 c 128,-1,41
 167 31 167 31 130 10.5 c 128,-1,42
 93 -10 93 -10 58 -10 c 0,43,44
 22 -10 22 -10 5.5 8.5 c 128,-1,45
 -11 27 -11 27 -11 58 c 256,46,47
 -11 89 -11 89 4 129.5 c 128,-1,48
 19 170 19 170 44.5 212 c 128,-1,49
 70 254 70 254 104.5 294 c 128,-1,50
 139 334 139 334 178 365.5 c 128,-1,51
 217 397 217 397 258 416.5 c 128,-1,52
 299 436 299 436 339 436 c 0,53,54
 364 436 364 436 380.5 431.5 c 128,-1,55
 397 427 397 427 407 420 c 128,-1,56
 417 413 417 413 421 406 c 128,-1,57
 425 399 425 399 426 394 c 1,58,-1
 439 421 l 2,59,60
 442 426 442 426 445.5 429.5 c 128,-1,61
 449 433 449 433 456.5 434.5 c 128,-1,62
 464 436 464 436 477.5 436.5 c 128,-1,63
 491 437 491 437 512 437 c 0,64,65
 527 437 527 437 527 432 c 0,66,67
 527 429 527 429 522 424 c 128,-1,68
 517 419 517 419 512 412 c 0,69,70
 503 401 503 401 489.5 376.5 c 128,-1,71
 476 352 476 352 459.5 320.5 c 128,-1,72
 443 289 443 289 425 252.5 c 128,-1,73
 407 216 407 216 390 182 c 0,74,75
 377 157 377 157 358.5 118.5 c 128,-1,76
 340 80 340 80 320 35.5 c 128,-1,77
 300 -9 300 -9 282 -57 c 128,-1,78
 264 -105 264 -105 252 -150 c 1,79,80
 293 -152 293 -152 322.5 -162.5 c 128,-1,81
 352 -173 352 -173 371 -188 c 128,-1,82
 390 -203 390 -203 399 -221.5 c 128,-1,83
 408 -240 408 -240 408 -258 c 0,0,1
119 58 m 0,84,85
 148 58 148 58 180 78 c 128,-1,86
 212 98 212 98 243 127.5 c 128,-1,87
 274 157 274 157 301 191 c 128,-1,88
 328 225 328 225 346 252 c 0,89,90
 374 294 374 294 389 325 c 128,-1,91
 404 356 404 356 404 377 c 0,92,93
 404 418 404 418 342 418 c 0,94,95
 314 418 314 418 284.5 401 c 128,-1,96
 255 384 255 384 226 356.5 c 128,-1,97
 197 329 197 329 171.5 294 c 128,-1,98
 146 259 146 259 127 223.5 c 128,-1,99
 108 188 108 188 96.5 155 c 128,-1,100
 85 122 85 122 85 99 c 0,101,102
 85 80 85 80 93 69 c 128,-1,103
 101 58 101 58 119 58 c 0,84,85
238 -243 m 0,104,105
 238 -282 238 -282 254 -305.5 c 128,-1,106
 270 -329 270 -329 310 -329 c 0,107,108
 332 -329 332 -329 344.5 -311.5 c 128,-1,109
 357 -294 357 -294 357 -270 c 0,110,111
 357 -254 357 -254 351 -237.5 c 128,-1,112
 345 -221 345 -221 331.5 -206 c 128,-1,113
 318 -191 318 -191 297.5 -180 c 128,-1,114
 277 -169 277 -169 248 -165 c 1,115,116
 243 -186 243 -186 240.5 -206 c 128,-1,117
 238 -226 238 -226 238 -243 c 0,104,105
EndSplineSet
EndChar

StartChar: r
Encoding: 114 114 49
Width: 339
Flags: W
LayerCount: 2
Fore
SplineSet
31 146 m 0,0,1
 61 213 61 213 82 259 c 128,-1,2
 103 305 103 305 115.5 335 c 128,-1,3
 128 365 128 365 133.5 381 c 128,-1,4
 139 397 139 397 139 405 c 0,5,6
 139 412 139 412 133.5 413.5 c 128,-1,7
 128 415 128 415 120 415 c 0,8,9
 115 415 115 415 112 418.5 c 128,-1,10
 109 422 109 422 109 427 c 0,11,12
 109 436 109 436 118 436 c 0,13,14
 121 436 121 436 128 435.5 c 128,-1,15
 135 435 135 435 143.5 435 c 128,-1,16
 152 435 152 435 161 434.5 c 128,-1,17
 170 434 170 434 177 434 c 0,18,19
 191 434 191 434 200.5 434.5 c 128,-1,20
 210 435 210 435 218 435 c 256,21,22
 226 435 226 435 226 428 c 0,23,24
 226 419 226 419 213 390 c 128,-1,25
 200 361 200 361 172 297 c 0,26,27
 171 295 171 295 166 284 c 128,-1,28
 161 273 161 273 155 259.5 c 128,-1,29
 149 246 149 246 144.5 233 c 128,-1,30
 140 220 140 220 140 216 c 0,31,32
 140 214 140 214 141 214 c 256,33,34
 142 214 142 214 144 216 c 0,35,36
 161 241 161 241 188.5 278 c 128,-1,37
 216 315 216 315 249 350 c 128,-1,38
 282 385 282 385 319 410 c 128,-1,39
 356 435 356 435 393 435 c 0,40,41
 416 435 416 435 426.5 424 c 128,-1,42
 437 413 437 413 437 401 c 0,43,44
 437 390 437 390 430.5 382 c 128,-1,45
 424 374 424 374 413 374 c 0,46,47
 362 374 362 374 317.5 352.5 c 128,-1,48
 273 331 273 331 234.5 295 c 128,-1,49
 196 259 196 259 163 212.5 c 128,-1,50
 130 166 130 166 101 116 c 0,51,52
 93 101 93 101 82.5 80.5 c 128,-1,53
 72 60 72 60 63 41 c 0,54,55
 52 19 52 19 42 -4 c 0,56,57
 39 -8 39 -8 23.5 -11.5 c 128,-1,58
 8 -15 8 -15 -7 -15 c 0,59,60
 -18 -15 -18 -15 -25.5 -12.5 c 128,-1,61
 -33 -10 -33 -10 -33 -5 c 2,62,-1
 -33 -2 l 2,63,64
 -33 -1 -33 -1 -32 -1 c 0,65,66
 -31 1 -31 1 -25.5 14.5 c 128,-1,67
 -20 28 -20 28 -11.5 48 c 128,-1,68
 -3 68 -3 68 8 93.5 c 128,-1,69
 19 119 19 119 31 146 c 0,0,1
EndSplineSet
EndChar

StartChar: s
Encoding: 115 115 50
Width: 343
Flags: W
LayerCount: 2
Fore
SplineSet
344 358 m 0,0,1
 336 358 336 358 330 362.5 c 128,-1,2
 324 367 324 367 324 375 c 0,3,4
 324 381 324 381 328 390.5 c 128,-1,5
 332 400 332 400 332 405 c 0,6,7
 332 416 332 416 321 422 c 128,-1,8
 310 428 310 428 294 428 c 0,9,10
 281 428 281 428 267.5 424 c 128,-1,11
 254 420 254 420 242.5 412.5 c 128,-1,12
 231 405 231 405 224 393 c 128,-1,13
 217 381 217 381 217 365 c 0,14,15
 217 342 217 342 231 317.5 c 128,-1,16
 245 293 245 293 261.5 267.5 c 128,-1,17
 278 242 278 242 292 215 c 128,-1,18
 306 188 306 188 306 161 c 0,19,20
 306 118 306 118 286 85 c 128,-1,21
 266 52 266 52 235 29.5 c 128,-1,22
 204 7 204 7 165 -5 c 128,-1,23
 126 -17 126 -17 89 -17 c 0,24,25
 51 -17 51 -17 24 -7.5 c 128,-1,26
 -3 2 -3 2 -21 17.5 c 128,-1,27
 -39 33 -39 33 -47.5 53.5 c 128,-1,28
 -56 74 -56 74 -56 96 c 0,29,30
 -56 120 -56 120 -46 143 c 128,-1,31
 -36 166 -36 166 -17.5 184 c 128,-1,32
 1 202 1 202 28.5 213 c 128,-1,33
 56 224 56 224 92 224 c 0,34,35
 130 224 130 224 147.5 206 c 128,-1,36
 165 188 165 188 165 168 c 0,37,38
 165 151 165 151 154 138.5 c 128,-1,39
 143 126 143 126 123 126 c 0,40,41
 110 126 110 126 110 135 c 0,42,43
 110 141 110 141 112.5 150 c 128,-1,44
 115 159 115 159 115 173 c 0,45,46
 115 188 115 188 105 197 c 128,-1,47
 95 206 95 206 78 206 c 0,48,49
 57 206 57 206 40.5 197.5 c 128,-1,50
 24 189 24 189 12.5 175 c 128,-1,51
 1 161 1 161 -4.5 143 c 128,-1,52
 -10 125 -10 125 -10 106 c 256,53,54
 -10 87 -10 87 -4 68.5 c 128,-1,55
 2 50 2 50 15 36 c 128,-1,56
 28 22 28 22 47 13 c 128,-1,57
 66 4 66 4 93 4 c 0,58,59
 115 4 115 4 136.5 12.5 c 128,-1,60
 158 21 158 21 175 38 c 128,-1,61
 192 55 192 55 203 80.5 c 128,-1,62
 214 106 214 106 214 141 c 0,63,64
 214 163 214 163 202 188.5 c 128,-1,65
 190 214 190 214 175.5 239 c 128,-1,66
 161 264 161 264 149 287.5 c 128,-1,67
 137 311 137 311 137 331 c 0,68,69
 137 360 137 360 151.5 382 c 128,-1,70
 166 404 166 404 188.5 418.5 c 128,-1,71
 211 433 211 433 238.5 440.5 c 128,-1,72
 266 448 266 448 292 448 c 0,73,74
 327 448 327 448 353 434.5 c 128,-1,75
 379 421 379 421 379 395 c 0,76,77
 379 382 379 382 369.5 370 c 128,-1,78
 360 358 360 358 344 358 c 0,0,1
EndSplineSet
EndChar

StartChar: seven
Encoding: 55 55 51
Width: 462
Flags: W
LayerCount: 2
Fore
SplineSet
168 731 m 0,0,1
 178 731 178 731 178 723 c 0,2,3
 178 716 178 716 173.5 706.5 c 128,-1,4
 169 697 169 697 169 692 c 0,5,6
 169 681 169 681 178 681 c 0,7,8
 190 684 190 684 198.5 688 c 128,-1,9
 207 692 207 692 216 695 c 128,-1,10
 225 698 225 698 237 700 c 128,-1,11
 249 702 249 702 268 702 c 0,12,13
 312 702 312 702 341 697.5 c 128,-1,14
 370 693 370 693 396.5 687 c 128,-1,15
 423 681 423 681 453 676.5 c 128,-1,16
 483 672 483 672 528 672 c 0,17,18
 541 672 541 672 559.5 676 c 128,-1,19
 578 680 578 680 596.5 686.5 c 128,-1,20
 615 693 615 693 631.5 701 c 128,-1,21
 648 709 648 709 658 717 c 0,22,23
 659 718 659 718 662 719 c 0,24,25
 668 721 668 721 672 721 c 0,26,27
 686 721 686 721 686 715 c 0,28,29
 686 713 686 713 681 708 c 0,30,31
 677 704 677 704 669 697 c 128,-1,32
 661 690 661 690 652 683 c 0,33,34
 641 675 641 675 629 666 c 0,35,36
 561 609 561 609 490.5 531 c 128,-1,37
 420 453 420 453 357.5 365 c 128,-1,38
 295 277 295 277 246 185 c 128,-1,39
 197 93 197 93 173 8 c 0,40,41
 173 4 173 4 167 3 c 0,42,43
 164 2 164 2 155 1 c 128,-1,44
 146 0 146 0 134.5 -0.5 c 128,-1,45
 123 -1 123 -1 111.5 -1.5 c 128,-1,46
 100 -2 100 -2 92 -2 c 0,47,48
 85 -2 85 -2 85 8 c 0,49,50
 85 23 85 23 99 58 c 128,-1,51
 113 93 113 93 141 143 c 128,-1,52
 169 193 169 193 211 254.5 c 128,-1,53
 253 316 253 316 309 383 c 128,-1,54
 365 450 365 450 434.5 520.5 c 128,-1,55
 504 591 504 591 588 658 c 0,56,57
 590 660 590 660 583 660 c 0,58,59
 579 660 579 660 577 659 c 0,60,61
 526 642 526 642 484.5 637 c 128,-1,62
 443 632 443 632 406 632 c 0,63,64
 375 632 375 632 347.5 633.5 c 128,-1,65
 320 635 320 635 293 635 c 0,66,67
 258 635 258 635 223 629 c 128,-1,68
 188 623 188 623 150 603 c 0,69,70
 142 598 142 598 135.5 594 c 128,-1,71
 129 590 129 590 124 587 c 0,72,73
 119 583 119 583 114 580 c 256,74,75
 109 577 109 577 104 577 c 0,76,77
 95 577 95 577 95 584 c 0,78,79
 95 587 95 587 103 600 c 128,-1,80
 111 613 111 613 121.5 631.5 c 128,-1,81
 132 650 132 650 143.5 673 c 128,-1,82
 155 696 155 696 162 720 c 0,83,84
 162 722 162 722 163 725 c 0,85,86
 165 731 165 731 168 731 c 0,0,1
EndSplineSet
EndChar

StartChar: six
Encoding: 54 54 52
Width: 578
Flags: W
LayerCount: 2
Fore
SplineSet
629 707 m 0,0,1
 563 707 563 707 496.5 680 c 128,-1,2
 430 653 430 653 370 610 c 128,-1,3
 310 567 310 567 260.5 513 c 128,-1,4
 211 459 211 459 180 405 c 1,5,-1
 180 403 l 2,6,7
 180 401 180 401 182 401 c 0,8,9
 196 411 196 411 218 426 c 128,-1,10
 240 441 240 441 268.5 454.5 c 128,-1,11
 297 468 297 468 331 478 c 128,-1,12
 365 488 365 488 403 488 c 0,13,14
 449 488 449 488 482 477 c 128,-1,15
 515 466 515 466 536 447 c 128,-1,16
 557 428 557 428 567 401.5 c 128,-1,17
 577 375 577 375 577 345 c 0,18,19
 577 307 577 307 563 264.5 c 128,-1,20
 549 222 549 222 523.5 180.5 c 128,-1,21
 498 139 498 139 462.5 101 c 128,-1,22
 427 63 427 63 384 34.5 c 128,-1,23
 341 6 341 6 292.5 -11 c 128,-1,24
 244 -28 244 -28 193 -28 c 0,25,26
 140 -28 140 -28 102.5 -15 c 128,-1,27
 65 -2 65 -2 41 20.5 c 128,-1,28
 17 43 17 43 5.5 74.5 c 128,-1,29
 -6 106 -6 106 -6 143 c 0,30,31
 -6 199 -6 199 17.5 264 c 128,-1,32
 41 329 41 329 83 394 c 128,-1,33
 125 459 125 459 183.5 519.5 c 128,-1,34
 242 580 242 580 312.5 626.5 c 128,-1,35
 383 673 383 673 462 701 c 128,-1,36
 541 729 541 729 625 729 c 0,37,38
 646 729 646 729 646 721 c 0,39,40
 646 716 646 716 640 711.5 c 128,-1,41
 634 707 634 707 629 707 c 0,0,1
391 466 m 0,42,43
 364 466 364 466 336.5 459 c 128,-1,44
 309 452 309 452 282.5 441 c 128,-1,45
 256 430 256 430 232.5 415 c 128,-1,46
 209 400 209 400 190 384 c 0,47,48
 167 365 167 365 147 336 c 128,-1,49
 127 307 127 307 112 272.5 c 128,-1,50
 97 238 97 238 88.5 201.5 c 128,-1,51
 80 165 80 165 80 131 c 0,52,53
 80 102 80 102 86.5 77 c 128,-1,54
 93 52 93 52 108 33.5 c 128,-1,55
 123 15 123 15 147 4 c 128,-1,56
 171 -7 171 -7 205 -7 c 0,57,58
 241 -7 241 -7 276 10 c 128,-1,59
 311 27 311 27 342 56 c 128,-1,60
 373 85 373 85 399.5 122.5 c 128,-1,61
 426 160 426 160 445 200.5 c 128,-1,62
 464 241 464 241 474.5 281.5 c 128,-1,63
 485 322 485 322 485 357 c 0,64,65
 485 405 485 405 463 435.5 c 128,-1,66
 441 466 441 466 391 466 c 0,42,43
EndSplineSet
EndChar

StartChar: t
Encoding: 116 116 53
Width: 244
Flags: W
LayerCount: 2
Fore
SplineSet
-31 499 m 0,0,1
 -35 503 -35 503 -35 506 c 0,2,3
 -35 511 -35 511 -28 511 c 0,4,5
 -25 511 -25 511 -21 509 c 0,6,7
 -7 501 -7 501 7.5 495 c 128,-1,8
 22 489 22 489 39.5 485 c 128,-1,9
 57 481 57 481 78.5 478.5 c 128,-1,10
 100 476 100 476 128 476 c 0,11,12
 142 476 142 476 155 476 c 128,-1,13
 168 476 168 476 181 478 c 1,14,15
 209 542 209 542 209 556 c 0,16,17
 209 565 209 565 203 565 c 256,18,19
 197 565 197 565 197 571 c 0,20,21
 197 576 197 576 201.5 581 c 128,-1,22
 206 586 206 586 213 586 c 0,23,24
 218 586 218 586 232 585 c 128,-1,25
 246 584 246 584 260 584 c 256,26,27
 274 584 274 584 283.5 584.5 c 128,-1,28
 293 585 293 585 301 585 c 0,29,30
 305 585 305 585 305 580 c 0,31,32
 305 571 305 571 295 549 c 128,-1,33
 285 527 285 527 267 490 c 1,34,35
 311 498 311 498 354.5 508.5 c 128,-1,36
 398 519 398 519 441 528 c 128,-1,37
 484 537 484 537 527 543.5 c 128,-1,38
 570 550 570 550 613 550 c 0,39,40
 641 550 641 550 659.5 546 c 128,-1,41
 678 542 678 542 689.5 535.5 c 128,-1,42
 701 529 701 529 705.5 521 c 128,-1,43
 710 513 710 513 710 506 c 0,44,45
 710 497 710 497 704.5 490.5 c 128,-1,46
 699 484 699 484 692 484 c 0,47,48
 683 484 683 484 674.5 488.5 c 128,-1,49
 666 493 666 493 654.5 498 c 128,-1,50
 643 503 643 503 625.5 507.5 c 128,-1,51
 608 512 608 512 581 512 c 0,52,53
 505 512 505 512 421.5 497 c 128,-1,54
 338 482 338 482 258 470 c 1,55,56
 249 452 249 452 233 417.5 c 128,-1,57
 217 383 217 383 198 341.5 c 128,-1,58
 179 300 179 300 159 256 c 128,-1,59
 139 212 139 212 123 174.5 c 128,-1,60
 107 137 107 137 96.5 110.5 c 128,-1,61
 86 84 86 84 86 78 c 0,62,63
 86 59 86 59 101 59 c 0,64,65
 110 59 110 59 123.5 66 c 128,-1,66
 137 73 137 73 152 84 c 128,-1,67
 167 95 167 95 182 109 c 128,-1,68
 197 123 197 123 209 137 c 0,69,70
 213 141 213 141 216 141 c 0,71,72
 226 141 226 141 226 131 c 0,73,74
 226 128 226 128 225 127 c 0,75,76
 219 116 219 116 198.5 92.5 c 128,-1,77
 178 69 178 69 150 45.5 c 128,-1,78
 122 22 122 22 91.5 4.5 c 128,-1,79
 61 -13 61 -13 35 -13 c 0,80,81
 12 -13 12 -13 3.5 -2 c 128,-1,82
 -5 9 -5 9 -5 27 c 0,83,84
 -5 51 -5 51 7 82.5 c 128,-1,85
 19 114 19 114 33 146 c 0,86,87
 74 237 74 237 111.5 319.5 c 128,-1,88
 149 402 149 402 174 461 c 1,89,90
 163 460 163 460 152.5 460 c 128,-1,91
 142 460 142 460 132 460 c 0,92,93
 98 461 98 461 66 465 c 0,94,95
 39 469 39 469 11.5 477 c 128,-1,96
 -16 485 -16 485 -31 499 c 0,0,1
EndSplineSet
EndChar

StartChar: three
Encoding: 51 51 54
Width: 437
Flags: W
LayerCount: 2
Fore
SplineSet
-190 -136 m 0,0,1
 -121 -136 -121 -136 -56.5 -112.5 c 128,-1,2
 8 -89 8 -89 65 -50.5 c 128,-1,3
 122 -12 122 -12 168.5 37.5 c 128,-1,4
 215 87 215 87 249 139.5 c 128,-1,5
 283 192 283 192 301.5 242 c 128,-1,6
 320 292 320 292 320 333 c 0,7,8
 320 377 320 377 298 402 c 1,9,10
 240 377 240 377 185 377 c 0,11,12
 164 377 164 377 153 385.5 c 128,-1,13
 142 394 142 394 142 405 c 0,14,15
 142 419 142 419 162 433 c 128,-1,16
 182 447 182 447 227 447 c 0,17,18
 273 447 273 447 308 435 c 1,19,20
 331 451 331 451 350 472.5 c 128,-1,21
 369 494 369 494 383 516.5 c 128,-1,22
 397 539 397 539 405 562.5 c 128,-1,23
 413 586 413 586 413 607 c 0,24,25
 413 650 413 650 389.5 668 c 128,-1,26
 366 686 366 686 333 686 c 0,27,28
 306 686 306 686 276.5 675.5 c 128,-1,29
 247 665 247 665 222 648 c 128,-1,30
 197 631 197 631 181 607.5 c 128,-1,31
 165 584 165 584 165 559 c 0,32,33
 165 535 165 535 176 518.5 c 128,-1,34
 187 502 187 502 207 502 c 0,35,36
 223 502 223 502 232.5 509 c 128,-1,37
 242 516 242 516 248 525.5 c 128,-1,38
 254 535 254 535 256.5 544.5 c 128,-1,39
 259 554 259 554 260 559 c 0,40,41
 263 577 263 577 282 577 c 0,42,43
 302 577 302 577 302 558 c 0,44,45
 302 548 302 548 296 535 c 128,-1,46
 290 522 290 522 278.5 511 c 128,-1,47
 267 500 267 500 251.5 492 c 128,-1,48
 236 484 236 484 218 484 c 0,49,50
 183 484 183 484 165 504.5 c 128,-1,51
 147 525 147 525 147 555 c 0,52,53
 147 591 147 591 168.5 622 c 128,-1,54
 190 653 190 653 223.5 675 c 128,-1,55
 257 697 257 697 297.5 709.5 c 128,-1,56
 338 722 338 722 376 722 c 0,57,58
 400 722 400 722 421.5 716.5 c 128,-1,59
 443 711 443 711 459 699 c 128,-1,60
 475 687 475 687 484.5 668.5 c 128,-1,61
 494 650 494 650 494 624 c 0,62,63
 494 600 494 600 482 572.5 c 128,-1,64
 470 545 470 545 449 518 c 128,-1,65
 428 491 428 491 399.5 466 c 128,-1,66
 371 441 371 441 338 422 c 1,67,68
 372 403 372 403 388 372 c 128,-1,69
 404 341 404 341 404 303 c 0,70,71
 404 258 404 258 384 206 c 128,-1,72
 364 154 364 154 326.5 102.5 c 128,-1,73
 289 51 289 51 235.5 3.5 c 128,-1,74
 182 -44 182 -44 116 -80.5 c 128,-1,75
 50 -117 50 -117 -27.5 -139 c 128,-1,76
 -105 -161 -105 -161 -191 -161 c 0,77,78
 -249 -161 -249 -161 -278 -146 c 128,-1,79
 -307 -131 -307 -131 -307 -118 c 256,80,81
 -307 -105 -307 -105 -283 -105 c 0,82,83
 -274 -105 -274 -105 -270 -110 c 0,84,85
 -263 -118 -263 -118 -252 -123 c 0,86,87
 -242 -128 -242 -128 -227.5 -132 c 128,-1,88
 -213 -136 -213 -136 -190 -136 c 0,0,1
221 431 m 0,89,90
 197 431 197 431 185.5 424.5 c 128,-1,91
 174 418 174 418 174 410 c 0,92,93
 174 396 174 396 200 396 c 0,94,95
 220 396 220 396 240 401.5 c 128,-1,96
 260 407 260 407 279 417 c 1,97,98
 256 431 256 431 221 431 c 0,89,90
EndSplineSet
EndChar

StartChar: two
Encoding: 50 50 55
Width: 527
Flags: W
LayerCount: 2
Fore
SplineSet
431 728 m 0,0,1
 481 728 481 728 516 717.5 c 128,-1,2
 551 707 551 707 573.5 688.5 c 128,-1,3
 596 670 596 670 606.5 643.5 c 128,-1,4
 617 617 617 617 617 586 c 0,5,6
 617 546 617 546 602 499.5 c 128,-1,7
 587 453 587 453 559.5 403.5 c 128,-1,8
 532 354 532 354 494.5 304.5 c 128,-1,9
 457 255 457 255 413 209.5 c 128,-1,10
 369 164 369 164 319 123.5 c 128,-1,11
 269 83 269 83 218 53 c 1,12,13
 249 46 249 46 278 41.5 c 128,-1,14
 307 37 307 37 333 37 c 0,15,16
 357 37 357 37 382 45 c 128,-1,17
 407 53 407 53 422 70 c 0,18,19
 428 77 428 77 435 77 c 0,20,21
 446 77 446 77 446 69 c 0,22,23
 446 68 446 68 444 64 c 0,24,25
 435 51 435 51 418.5 37 c 128,-1,26
 402 23 402 23 382 11.5 c 128,-1,27
 362 0 362 0 340 -7.5 c 128,-1,28
 318 -15 318 -15 299 -15 c 0,29,30
 259 -15 259 -15 226 -3 c 128,-1,31
 193 9 193 9 161 23 c 1,32,33
 120 6 120 6 81 -4.5 c 128,-1,34
 42 -15 42 -15 5 -15 c 0,35,36
 -30 -15 -30 -15 -47 -6.5 c 128,-1,37
 -64 2 -64 2 -64 14 c 0,38,39
 -64 33 -64 33 -25 52.5 c 128,-1,40
 14 72 14 72 87 72 c 0,41,42
 110 72 110 72 134 68.5 c 128,-1,43
 158 65 158 65 182 60 c 1,44,45
 252 102 252 102 315.5 168 c 128,-1,46
 379 234 379 234 428 307.5 c 128,-1,47
 477 381 477 381 506 454.5 c 128,-1,48
 535 528 535 528 535 586 c 0,49,50
 535 640 535 640 506 673.5 c 128,-1,51
 477 707 477 707 411 707 c 0,52,53
 352 707 352 707 304 676 c 128,-1,54
 256 645 256 645 221.5 598.5 c 128,-1,55
 187 552 187 552 168 498 c 128,-1,56
 149 444 149 444 149 397 c 0,57,58
 149 349 149 349 170.5 316.5 c 128,-1,59
 192 284 192 284 239 284 c 0,60,61
 284 284 284 284 322 307 c 128,-1,62
 360 330 360 330 388 363.5 c 128,-1,63
 416 397 416 397 431.5 436.5 c 128,-1,64
 447 476 447 476 447 509 c 0,65,66
 447 540 447 540 432 560 c 128,-1,67
 417 580 417 580 384 580 c 0,68,69
 365 580 365 580 351 570 c 128,-1,70
 337 560 337 560 327.5 545 c 128,-1,71
 318 530 318 530 313 512 c 128,-1,72
 308 494 308 494 308 478 c 0,73,74
 308 461 308 461 311.5 455.5 c 128,-1,75
 315 450 315 450 315 440 c 0,76,77
 315 427 315 427 306.5 417.5 c 128,-1,78
 298 408 298 408 284 408 c 0,79,80
 266 408 266 408 257.5 420 c 128,-1,81
 249 432 249 432 249 450 c 0,82,83
 249 471 249 471 259.5 496 c 128,-1,84
 270 521 270 521 288.5 543.5 c 128,-1,85
 307 566 307 566 333.5 581 c 128,-1,86
 360 596 360 596 393 596 c 0,87,88
 439 596 439 596 459.5 571.5 c 128,-1,89
 480 547 480 547 480 510 c 0,90,91
 480 472 480 472 460.5 428 c 128,-1,92
 441 384 441 384 406.5 346 c 128,-1,93
 372 308 372 308 324.5 282.5 c 128,-1,94
 277 257 277 257 222 257 c 0,95,96
 182 257 182 257 153 267 c 128,-1,97
 124 277 124 277 105.5 295 c 128,-1,98
 87 313 87 313 78.5 337 c 128,-1,99
 70 361 70 361 70 389 c 0,100,101
 70 441 70 441 97.5 500.5 c 128,-1,102
 125 560 125 560 174 610.5 c 128,-1,103
 223 661 223 661 288.5 694.5 c 128,-1,104
 354 728 354 728 431 728 c 0,0,1
54 51 m 0,105,106
 39 51 39 51 24 48 c 128,-1,107
 9 45 9 45 -3 40 c 128,-1,108
 -15 35 -15 35 -22.5 29.5 c 128,-1,109
 -30 24 -30 24 -30 19 c 0,110,111
 -30 7 -30 7 14 7 c 0,112,113
 71 7 71 7 133 35 c 1,114,115
 114 42 114 42 94.5 46.5 c 128,-1,116
 75 51 75 51 54 51 c 0,105,106
EndSplineSet
EndChar

StartChar: u
Encoding: 117 117 56
Width: 464
Flags: W
LayerCount: 2
Fore
SplineSet
339 298 m 0,0,1
 360 346 360 346 370 378.5 c 128,-1,2
 380 411 380 411 380 426 c 0,3,4
 380 430 380 430 381 432.5 c 128,-1,5
 382 435 382 435 388.5 436.5 c 128,-1,6
 395 438 395 438 409 438 c 128,-1,7
 423 438 423 438 448 438 c 0,8,9
 456 438 456 438 461 436.5 c 128,-1,10
 466 435 466 435 466 431 c 0,11,12
 466 425 466 425 460 410.5 c 128,-1,13
 454 396 454 396 440.5 365.5 c 128,-1,14
 427 335 427 335 405 285.5 c 128,-1,15
 383 236 383 236 350 161 c 0,16,17
 335 126 335 126 329 107 c 128,-1,18
 323 88 323 88 323 78 c 0,19,20
 323 67 323 67 328 65.5 c 128,-1,21
 333 64 333 64 339 64 c 0,22,23
 356 64 356 64 383 83 c 128,-1,24
 410 102 410 102 436 137 c 0,25,26
 440 141 440 141 443 141 c 0,27,28
 453 141 453 141 453 131 c 0,29,30
 453 128 453 128 452 127 c 0,31,32
 446 116 446 116 427 92.5 c 128,-1,33
 408 69 408 69 382 45.5 c 128,-1,34
 356 22 356 22 327 4.5 c 128,-1,35
 298 -13 298 -13 272 -13 c 0,36,37
 249 -13 249 -13 240.5 -2 c 128,-1,38
 232 9 232 9 232 27 c 0,39,40
 232 51 232 51 244 82.5 c 128,-1,41
 256 114 256 114 270 146 c 1,42,43
 269 146 269 146 269 147 c 0,44,45
 267 149 267 149 267 149 c 2,46,47
 265 149 265 149 264 148 c 0,48,49
 259 139 259 139 243.5 124 c 128,-1,50
 228 109 228 109 207.5 91.5 c 128,-1,51
 187 74 187 74 162.5 56 c 128,-1,52
 138 38 138 38 113.5 23.5 c 128,-1,53
 89 9 89 9 67.5 0 c 128,-1,54
 46 -9 46 -9 31 -9 c 0,55,56
 8 -9 8 -9 -0.5 2 c 128,-1,57
 -9 13 -9 13 -9 31 c 0,58,59
 -9 55 -9 55 3 86.5 c 128,-1,60
 15 118 15 118 29 150 c 0,61,62
 58 214 58 214 78 258.5 c 128,-1,63
 98 303 98 303 110.5 332.5 c 128,-1,64
 123 362 123 362 128.5 379 c 128,-1,65
 134 396 134 396 134 404 c 0,66,67
 134 413 134 413 128.5 415 c 128,-1,68
 123 417 123 417 114 417 c 0,69,70
 109 417 109 417 106 420.5 c 128,-1,71
 103 424 103 424 103 429 c 0,72,73
 103 438 103 438 112 438 c 0,74,75
 115 438 115 438 122 437.5 c 128,-1,76
 129 437 129 437 137.5 437 c 128,-1,77
 146 437 146 437 155 436.5 c 128,-1,78
 164 436 164 436 171 436 c 0,79,80
 185 436 185 436 194.5 436.5 c 128,-1,81
 204 437 204 437 212 437 c 0,82,83
 217 437 217 437 220 436.5 c 128,-1,84
 223 436 223 436 223 431 c 0,85,86
 223 425 223 425 217.5 410 c 128,-1,87
 212 395 212 395 198.5 365 c 128,-1,88
 185 335 185 335 163 286.5 c 128,-1,89
 141 238 141 238 109 165 c 0,90,91
 96 136 96 136 90.5 116.5 c 128,-1,92
 85 97 85 97 85 85 c 0,93,94
 85 61 85 61 104 61 c 0,95,96
 126 61 126 61 158 81.5 c 128,-1,97
 190 102 190 102 223.5 135.5 c 128,-1,98
 257 169 257 169 288 211.5 c 128,-1,99
 319 254 319 254 339 298 c 0,0,1
EndSplineSet
EndChar

StartChar: underscore
Encoding: 95 95 57
Width: 525
Flags: W
LayerCount: 2
Fore
SplineSet
478 -24 m 0,0,1
 478 -38 478 -38 461 -38 c 2,2,-1
 -44 -38 l 2,3,4
 -49 -38 -49 -38 -51 -34 c 128,-1,5
 -53 -30 -53 -30 -53 -25 c 0,6,7
 -53 -15 -53 -15 -48 -15 c 0,8,9
 -39 -15 -39 -15 -12 -15 c 128,-1,10
 15 -15 15 -15 53 -15 c 128,-1,11
 91 -15 91 -15 136.5 -14.5 c 128,-1,12
 182 -14 182 -14 228 -14 c 0,13,14
 336 -14 336 -14 468 -13 c 0,15,16
 471 -13 471 -13 474.5 -16 c 128,-1,17
 478 -19 478 -19 478 -24 c 0,0,1
EndSplineSet
EndChar

